<?xml version="1.0" encoding="UTF-8"?> <svg xmlns="http://www.w3.org/2000/svg" xmlns:v="https://vecta.io/nano" viewBox="0 0 384 89"><g fill="#fff"><path d="M146.93 70.9c-1.11-3.46-3.09-5.62-6.44-6.51-.96-.25-3.5-.14-4.04-.08-1.54.18-2.94.35-4.34.87-1.8.67-3.21 2.06-4.18 3.56-1.42 2.18-3.04 3.1-4.44 3.44-.86.21-1.64.2-2.25.12.56.27 1.32.6 2.25.88.96.29 2.07.52 3.26.52.48 0 .97-.03 1.46-.11-.1.08-.19.16-.29.24-.34.25-.72.49-1.11.71.39.13.82.26 1.3.38 1.05.26 2.29.46 3.6.47 1.19 0 2.42-.15 3.61-.59.33-.12.63-.3.93-.46-.13.16-.26.31-.39.47-.44.49-.89.92-1.32 1.31.42-.08 1.1-.22 1.9-.47 2.14-.67 5.09-2.12 6.12-5.08 1.22 1.69 1.52 3.64.81 5.57-1.34 3.61-6.46 7.17-14.95 6.83-4.85-.17-9.09-1.45-12.56-3.04 0-.15-.01-.29-.03-.43a7.4 7.4 0 0 0-.15-.64c.21.12 1.35.75 1.72.97-.02-.28-.04-.56-.09-.81-.5-2.81-2.63-4.08-4.1-4.64.37-.21.68-.44.94-.67 1.08-.93 1.69-2.19 1.67-3.44-.03-1.5.2-3.22.35-4.27.02-.13.04-.24.05-.34-.35.1-.7.24-1.02.44-.02 0-.03.03-.06.04-.47.3-.88.71-1.19 1.19a7.477 7.477 0 0 0-2.54-2.54c-.87-.53-1.38-1.16-1.35-1.68.02-.32.23-.49.41-.57.49-.23 1.42-.2 2.58.62 2.19 1.56 7.38 3.55 9.9 1.96.33-.21.67-.53.93-1 .17-.31.31-.7.37-1.17-.34.15-.71.27-1.11.36-.61.14-1.27.18-1.95.05v-5.23c.5-.25.91-.52 1.26-.79.11-.09.22-.17.32-.27.33-.29.58-.59.77-.88.07-.11.14-.22.2-.33.4-.75.44-1.47.38-2.02 0-.08-.02-.15-.03-.23-.01-.07-.02-.14-.04-.21-.02-.08-.03-.16-.05-.22s-.03-.13-.04-.18a.89.89 0 0 1-.03-.19c-.08.06-1.41 1.16-3.06.9h-.03c-.11-.02-.22-.05-.33-.09-.34-.12-.61-.34-.84-.67-.15-.21-.19-.39-.09-.6 0-.02.02-.04.03-.06.04-.08.1-.17.18-.27.06-.07.13-.15.21-.23l.09-.09.09-.09.2-.2c.08-.07.16-.15.25-.23.41-.39.9-.84 1.33-1.39 1.66 4.27 5.83 3.96 6.03 3.92 0 0 3.47-.31 3.38-4.58-.04-2.23-.78-4.12-1.58-6.02-1.18-2.4-1.57-3.99-1.63-4.81-.16-1.56.34-3.03 1.36-3.94.38-.35.94-.57 1.49-.57.33 0 1.15.09 1.55.89.1.2.15.44.19.69-.12.08-2.98 1.65-.72 3.88.39.44 2.05 1.66.96 4.07.97-.17 1.7-.68 2.01-1.07 1.5.77 3.3-.1 3.6-.28-.96-.41-1.52-2.34-1.52-2.34-.11-.33-.52-1.2-1.05-1.84.04-.02 1.03-.25 1.27-1.45-2.22-.1-2.63-1.1-2.69-1.19 0-.44-.04-.87-.17-1.27-.42-1.23-1.59-2.22-2.9-2.46-1.26-.26-2.59.08-3.65.85-1.81 1.3-2.75 3.61-2.71 6.19.03 1.92 1.79 5.92 1.79 5.92.82 1.82 1.28 3.33 1.4 4.74.11 1.24-.47 1.56-.49 1.58-.62.32-1.25.24-1.86-.25-.92-.75-2.13-3.44-2.89-5.33-.21-1.26-1.31-3.55-2.07-4.87.56-.59 1.67-2.68 1.8-3.02-.4.07-.89.24-2.04.06.17-1.02.5-2.16 1.01-3.41 1.09-.96 1.88-1.96 2.05-3.16 1.35 1.18 3.47 1.36 3.68 1.34-1.44-1.27.11-4.79.15-4.92 3.11-.27 4.7-2.43 4.81-2.62-2.84-.53-3.33-2.58-3.7-4.1-.44-1.97-1.38-2.33-1.44-2.37 1.33-2.08 1.2-3.93 1.12-4.47-.26.43-1.33 2.71-7.55 1.18-.92-.23-1.73-.36-2.39-.39-.72-.03-1.37.21-1.91.71-.65.6-1.37 2.83-1.42 3.04l-2.08.48-.41.83-2.43.78.34 1.28c-1.28 1.2-.07 2.92-.03 2.97 1.58-2.58 2.78-1.49 2.86-1.35.81 1.44-2.47 1.58-2.47 1.58l.86 1.02c-.61.29-1.15.61-1.64.95-1.5-.21-2.65-.68-3.38-1.47-.99-1.07-.88-2.28-.88-2.32.02-.19.19-1.74-.51-2.55.64-.47 1.43-.64 1.93.03.65.62 0 1.78-.1 2.85-.1.55.1 1.27.64 1.58.22.13.45.21.68.28.11.03.21.06.33.08 0-.06-.04-.12-.04-.18v-.07c0-.38.09-.78.27-1.09.23-.41.39-.82.52-1.26.24-.87.24-1.87-.19-2.73-.06-.11-.13-.21-.2-.31.32-.09.68-.14 1.07-.14.69-.03 2.14-.35 2.67-2.11-.04.03-1.16 1.15-2.66.65-.58-.2-1.32-.45-2.04-.24-.26.07-.48.22-.7.37a.467.467 0 0 1-.1-.05c2.1-2.18.32-4.28-.02-4.75-2.41-2.73-.25-3.44-.08-3.66-3.84.67-3.96 1.44-4 1.51a8.94 8.94 0 0 0-.86-1.79c-.94-1.52-2.47-2.69-4.17-3.15-.84-.26-1.73-.33-2.55-.54-.2-.06-.4-.17-.4-.36 0-.11.05-.22.1-.32.16 0 .33.02.49.03.81.07 1.67.14 2.55-.1 2.08-.57 1.64-2.71 1.63-2.78-.06.16-.28 1.43-2.38.93-1.55-.37-3.55-.64-4.94.74-.67.67-.76 1.89-.14 2.67.59.79 1.57 1.11 2.46 1.16 1.01.02 2.02.28 2.84.74-.15.06-1.87.53-1.76 2.36.03.65.81 1.7 1.43 1.97-.02-.1-.35-2.34 1.37-2.19.26.02 2.47.63 2.63 4.1-.13-.07-.26-.16-.4-.2-1.14-.36-2.47.17-2.99 1.25-.31.68-.34 1.38-.06 2.43.07-.11.45-.71 1.1-.72.97 0 1.36 1.13.91 1.95-.39.9-1.17 1.46-2.12 1.59-.99.15-1.91-.01-3-.32-4.38-.86-5.15 1.08-5.2 1.16-.3-.47-.8-.8-1.39-.8H81.4c-.6 0-1.1.33-1.39.8-.05-.08-.81-2.02-5.2-1.16-1.09.3-2.02.47-3.01.32-.96-.13-1.74-.69-2.12-1.59-.45-.82-.06-1.96.91-1.95.65 0 1.03.6 1.1.72.28-1.05.24-1.75-.07-2.43-.52-1.08-1.86-1.61-2.99-1.25-.14.04-.27.14-.4.2.15-3.47 2.37-4.07 2.63-4.1 1.71-.15 1.39 2.08 1.37 2.19.62-.27 1.4-1.32 1.43-1.97.11-1.83-1.6-2.29-1.76-2.36.82-.46 1.84-.73 2.85-.74.88-.05 1.86-.37 2.46-1.16.63-.77.54-2-.14-2.67-1.39-1.38-3.38-1.11-4.94-.74-2.1.5-2.32-.77-2.38-.93 0 .07-.45 2.21 1.63 2.78.87.24 1.73.17 2.55.1.16-.01.33-.03.49-.03.06.1.1.21.1.32 0 .2-.2.3-.4.36-.82.21-1.71.28-2.55.54-1.7.46-3.23 1.63-4.17 3.15a8.94 8.94 0 0 0-.86 1.79c-.04-.06-.16-.84-4-1.51.16.22 2.33.93-.08 3.66-.35.48-2.13 2.57-.02 4.75-.03.02-.07.04-.1.05-.22-.15-.44-.3-.7-.37-.73-.21-1.47.04-2.04.24-1.5.51-2.62-.62-2.66-.65.52 1.76 1.97 2.08 2.67 2.11.39 0 .74.05 1.07.14-.07.1-.14.2-.19.31-.43.86-.43 1.86-.19 2.73.12.44.28.86.52 1.26.17.32.27.71.26 1.09 0 .02.01.05 0 .07 0 .06-.03.12-.04.18.11-.02.22-.05.33-.08.23-.07.46-.15.68-.28.53-.31.73-1.02.64-1.58-.11-1.07-.76-2.23-.1-2.85.5-.67 1.3-.5 1.93-.03-.69.81-.53 2.37-.51 2.55 0 .04.11 1.25-.88 2.32-.73.78-1.88 1.26-3.38 1.47-.49-.35-1.04-.67-1.64-.95l.86-1.02s-3.29-.14-2.47-1.58c.08-.14 1.28-1.23 2.86 1.35.04-.05 1.25-1.77-.03-2.97l.33-1.28-2.42-.78-.41-.83-2.08-.48c-.04-.21-.77-2.43-1.42-3.04a2.57 2.57 0 0 0-1.9-.71c-.66.03-1.47.17-2.39.39-6.22 1.53-7.29-.75-7.55-1.18-.08.54-.21 2.39 1.12 4.47-.06.04-1 .39-1.44 2.37-.38 1.52-.86 3.57-3.7 4.1.11.19 1.7 2.35 4.81 2.62.03.12 1.58 3.65.14 4.92.22.01 2.33-.17 3.68-1.34.17 1.2.96 2.19 2.05 3.16.51 1.25.85 2.39 1.01 3.41-1.15.18-1.64.01-2.04-.06.12.34 1.23 2.44 1.8 3.02-.77 1.32-1.86 3.61-2.08 4.87-.76 1.89-1.97 4.58-2.89 5.33-.61.5-1.24.57-1.86.25-.02-.02-.6-.34-.49-1.58.12-1.41.58-2.92 1.4-4.74 0 0 1.76-4 1.79-5.92.04-2.58-.9-4.89-2.71-6.19-1.07-.77-2.39-1.1-3.65-.85-1.31.23-2.49 1.22-2.9 2.46-.13.41-.17.83-.17 1.27-.06.09-.46 1.09-2.69 1.19.23 1.2 1.23 1.43 1.27 1.45-.53.65-.93 1.52-1.05 1.84 0 0-.57 1.93-1.52 2.34.3.17 2.1 1.05 3.6.28.31.39 1.04.9 2.01 1.07-1.1-2.41.56-3.63.96-4.07 2.26-2.23-.6-3.8-.72-3.88.03-.25.08-.49.19-.69.4-.81 1.22-.89 1.55-.89.55 0 1.11.21 1.49.57 1.02.91 1.52 2.38 1.36 3.94-.06.82-.45 2.42-1.63 4.81-.8 1.91-1.54 3.79-1.58 6.02-.08 4.28 3.38 4.58 3.38 4.58.2.04 4.38.35 6.03-3.92.44.55.92 1 1.34 1.39 1.06.99 1.29 1.31.96 1.78-.3.43-.69.68-1.2.76-1.68.26-3.02-.88-3.06-.9 0 .41-1.32 3.23 2.75 5.32v5.23c-.68.12-1.34.08-1.95-.06-.39-.09-.76-.21-1.11-.36.07.47.2.86.37 1.17.26.47.6.79.93 1 2.52 1.59 7.71-.4 9.9-1.96 1.15-.82 2.09-.85 2.58-.62.18.09.39.26.41.57.03.52-.48 1.15-1.35 1.68a7.477 7.477 0 0 0-2.54 2.54c-.31-.48-.72-.89-1.19-1.19-.02-.01-.04-.03-.06-.04-.32-.19-.67-.33-1.02-.44.01.1.04.22.05.34.16 1.05.38 2.77.35 4.27-.02 1.25.59 2.51 1.67 3.44.26.22.57.45.94.67-1.47.55-3.6 1.82-4.1 4.64-.05.26-.07.53-.09.81.37-.22 1.51-.85 1.72-.97-.06.21-.12.43-.15.64-.02.14-.03.29-.03.43-3.47 1.59-7.71 2.87-12.56 3.04-8.49.34-13.61-3.22-14.95-6.83-.71-1.93-.41-3.88.81-5.57 1.03 2.96 3.98 4.42 6.12 5.08.79.25 1.48.4 1.9.47-.43-.38-.88-.82-1.32-1.31-.13-.15-.26-.31-.39-.47.31.16.6.34.93.46 1.19.44 2.42.6 3.61.59 1.3 0 2.55-.22 3.6-.47.49-.12.91-.25 1.3-.38-.39-.22-.77-.45-1.11-.71-.1-.07-.19-.16-.29-.24.49.08.98.12 1.46.11 1.18 0 2.3-.23 3.26-.52.93-.28 1.69-.6 2.25-.88-.61.08-1.39.09-2.25-.12-1.4-.34-3.02-1.26-4.44-3.44-.97-1.5-2.39-2.89-4.18-3.56-1.39-.52-2.8-.69-4.34-.87-.54-.06-3.08-.17-4.04.08-3.35.89-5.32 3.05-6.44 6.51-1.18 3.66.01 7.58 3.19 10.48 2.9 2.65 7.67 4.67 13.99 4.63 4.15-.02 8.98-.95 14.37-3.15.69 1.74 2.19 3.17 4 3.75 1.95.65 4.07.43 5.89-.27 1.45-.55 2.78-1.33 3.96-2.3.26-.21.51-.43.75-.66h-2.39c.35-.49.59-1.09.65-1.7.1-.95-.11-1.86-.46-2.67-.01-.03-.04-.06-.05-.09-.25-.56-.6-1.07-.99-1.54.03.32.05.64.05.94-.01.84-.14 1.6-.41 2.28-.57 1.44-1.74 2.44-3.36 2.89-2.29.63-4.01-.51-4.87-1.78a.21.21 0 0 0-.04-.06c4.06-1.98 6.98-4.27 9.07-6.64 5.8-1.27 9.02-5.17 10.31-7.17.23.02.46.03.68.08 1.21.26 2.34 1.03 2.81 2.13.25.51.16 1.09-.19 1.54-.33.44-.94.76-1.4.61-.46-.14-1.16-1.26.84-2.21-.04-.02-1.24-.67-2.38.01-1.03.61-1.47 2.01-1.02 3.23.19.51.94 1.99 3.42 1.98.35 0 4.47 0 5.55-3.63 1.09 3.64 5.21 3.63 5.55 3.63 2.48.01 3.23-1.47 3.42-1.98.45-1.22.02-2.62-1.02-3.23-1.14-.68-2.34-.03-2.38-.01 2 .95 1.3 2.07.84 2.21-.46.14-1.08-.17-1.4-.61-.35-.45-.44-1.03-.19-1.54.46-1.1 1.6-1.87 2.81-2.13.22-.05.45-.07.68-.08 1.29 2 4.51 5.9 10.31 7.17 2.09 2.37 5.01 4.66 9.07 6.64-.02.02-.03.04-.04.06-.86 1.27-2.59 2.41-4.87 1.78-1.63-.45-2.79-1.45-3.36-2.89-.27-.69-.4-1.45-.41-2.28 0-.3.02-.62.05-.94-.39.47-.74.97-.99 1.54-.01.03-.04.06-.05.09-.35.81-.56 1.72-.46 2.67.06.61.3 1.2.65 1.71h-2.39c.24.21.5.44.75.65 1.18.97 2.51 1.75 3.96 2.3 1.83.7 3.94.92 5.89.27 1.81-.58 3.31-2.01 4-3.75 5.39 2.2 10.22 3.13 14.37 3.15 6.32.04 11.09-1.98 13.99-4.63 3.18-2.9 4.37-6.82 3.19-10.48ZM26.87 80.65c-2.92-2.67-3.99-6.12-2.91-9.45.88-2.72 2.59-4.89 4.81-5.62 2.07-.68 4.76-.65 8.78.6 1.61.5 2.8 1.82 3.63 3.1 1.13 1.72 2.38 2.73 3.59 3.32-1.39.24-2.97.22-4.51-.43-.78-.33-1.54-.85-2.27-1.56.29.57.81 1.42 1.61 2.32.34.39.72.79 1.17 1.18-1.76.34-3.89.46-5.82-.25-.99-.36-1.84-.93-2.58-1.67-.48-.5-.89-1.09-1.26-1.74-.05.78.11 1.54.42 2.27.21.5.48 1 .8 1.46-1.79-.79-3.65-2.18-4.19-4.54a6.47 6.47 0 0 1-.14-1.2c-.33.3-.64.6-.92.92-1.81 2.08-2.36 4.64-1.45 7.1C26.94 80 31.65 84 40.64 83.95c.3 0 .6 0 .9-.02 4.81-.17 9.04-1.41 12.54-2.95.03.31.1.62.17.93-13.21 5.4-22.8 2.93-27.39-1.26ZM135.26 36.9s-.64.29-1.75.07c.37.63 1.18.84 1.22.85 1.6.94 2.03 3.68 2.03 3.68s-.53.36-1.36-.11c0-1.32-.63-1.84-1.07-2.06.92 1.51-.17 2.33-.19 2.35 0-.03.44-1.76-1.29-3.13-1.26-1.07.26-2.76.26-2.77a3.28 3.28 0 0 0 2.15 1.11ZM123.1 47.55c.68 1.49 1.51 3.02 2.29 3.65.93.76 1.97.91 3.02.36 1.19-.8 1.02-2.48 1.01-2.69-.13-1.41-.61-3.03-1.49-4.96 0 0-1.62-2.93-1.69-5.52-.05-1.72.49-4.02 2.28-5.31.84-.61 1.82-.88 2.86-.67.9.16 1.73.83 2.07 1.64-.47-.84-1.36-1.33-2.4-1.33-.82 0-1.62.31-2.19.83-1.25 1.12-1.88 2.92-1.69 4.8.25 2.5 1.52 4.71 1.71 5.13.75 1.8 1.41 3.59 1.5 5.63.13 3.24-2.53 3.55-2.53 3.55-.37.07-3.71.52-5.18-3.93.19-.36.35-.75.45-1.18Zm-3.17 2.83c-.38.29-.75.62-1.02.99l-.02.02-.07.1c-.09.14-.17.28-.23.42-.02.05-.04.1-.05.14-.02.07-.04.15-.05.22 0 .04-.01.07-.01.1v.07c0 .1 0 .22.02.32 0 .03.01.06.02.09.02.08.05.17.09.25.06.13.13.26.22.39.15.21.31.39.49.55a2.658 2.658 0 0 0 1.4.63c.16.02 1.58.1 2.19-.32l-.02.04a.32.32 0 0 1-.06.07c-.21.26-.83.87-2.25 1.18.81.08 1.4-.03 1.81-.2.06-.02.11-.05.16-.07.05-.02.1-.05.15-.08.04-.03.09-.06.12-.08.08-.06.14-.11.2-.15.03-.02.05-.05.08-.07.1-.1.15-.18.17-.19 0 .01 0 .02-.01.03-.01.04-.03.09-.06.15-.12.3-.39.86-.93 1.39-.47.46-1.14.89-2.11 1.11v5.02s-2.13.16-3.69-.05c.07-.15.15-.28.23-.39.06-.07.11-.14.17-.19.33-.31.72-.38 1.13-.41-.89-.33-1.55.12-1.93.48-.09.09-.15.16-.21.23-.06.06-.09.12-.12.14-.05-.01-.09-.03-.14-.04-.04-.02-.09-.04-.12-.06-.03-.01-.06-.02-.08-.04.02-.09.06-.17.09-.25.04-.08.08-.15.13-.22.06-.09.14-.17.21-.25.49-.47 1.22-.59 1.65-.54-.51-.23-1.67-.32-2.52.48l-.1.1s.01-.09.03-.14c0-.02.01-.04.02-.07.03-.09.08-.17.15-.25.02-.02.04-.04.05-.06.62-.66 2.28-.97 3.46-.57v-3.88c.23.03.47.06.7.07.07 0 .15 0 .23.01-.2-.12-.39-.23-.56-.35-.17-.12-.33-.23-.49-.34-.3-.22-.56-.44-.77-.66-.78-.77-1.01-1.46-.96-2.04 0-.03 0-.06.01-.08.01-.1.03-.19.06-.29.02-.05.03-.1.06-.16.02-.05.04-.1.07-.15 0 0 0-.02.01-.02l.06-.12c.03-.05.06-.09.09-.14l.09-.12.02-.02c.06-.08.12-.15.19-.23.06-.07.13-.13.19-.19.05-.05.11-.09.16-.14.05-.04.1-.09.15-.12 0 0 .02-.01.03-.02.03-.02.06-.05.09-.07.22-.15.38-.24.41-.25-.54.13-1 .32-1.38.57-.05.03-.09.06-.14.09-.04.03-.09.06-.13.09-.04.03-.09.06-.13.09-.04.03-.08.06-.12.1-.08.06-.15.13-.22.2-.12.12-.23.24-.34.36l-.21.27c.03-.15.07-.28.12-.4.02-.04.04-.09.06-.13.04-.08.08-.16.12-.23.02-.04.04-.07.06-.1.08-.13.16-.22.22-.29.07-.05.14-.09.21-.14.11-.07.22-.15.34-.22.21-.13.43-.26.66-.37 1.22-.64 2.28-1.66 2.8-2.92.5-1.25.6-2.71.02-3.89.46 1.23.2 2.63-.37 3.73-.6 1.12-1.64 1.92-2.78 2.39-.71.27-1.43.62-2.1 1.07h-.01l-.3.21c-.1.07-.2.15-.29.22-.09.07-.17.14-.25.22l-.3.27c0-.02.02-.03.03-.05 0 0 .01-.02.02-.02 0 0 0-.02.01-.02.05-.07.1-.14.16-.22.05-.07.11-.14.17-.21.06-.07.11-.14.17-.2.06-.07.12-.13.18-.19.6-.62 1.32-1.13 2.13-1.58 1.18-.7 2.2-1.76 2.66-3.05.44-1.27.48-2.74-.16-3.89.51 1.2.33 2.62-.2 3.75-.55 1.14-1.54 1.99-2.67 2.52-1.01.43-2.02 1.05-2.87 1.86.32-.52.7-.99 1.15-1.41.45-.43.96-.81 1.5-1.16 1.14-.77 2.08-1.9 2.46-3.22.33-1.18.28-2.49-.27-3.56a4.38 4.38 0 0 0 1.79-.68c.03-.02.06-.03.08-.05.04.06 4.45 5.8-.35 9.49ZM109.5 66.96c1.51 1.04 2.21 2.8 1.63 4.09-.68 1.5-2.9 1.96-5.98 1.23-.05-.01-.16-.21-.19-.26-.09-.12-.19-.24-.29-.36-.27-.33-.55-.66-.83-.97-.81-.9-1.69-1.74-2.63-2.5-1.16-.94-2.42-1.78-3.76-2.42-.65-.31-1.31-.55-1.99-.77-.7-.23-1.71-.53-2.43-.36-3.03.71-4.54 2.27-6.69 2.36 12.54-6.37 15.83-16.04 16.67-21.15l3.66 3.14c.02.59.23 1.17.74 1.62.89.78 2.22.86 3.25.4.93-.42 1.98-2.01 2.09-2.39-1.38.05-3.09-.98-3.09-1.88 0-1.06 1.24-1.93 2.76-1.93 1.39 0 2.49.73 2.68 1.66-.1.07-.19.15-.29.22-.65.49-1.27 1.09-1.75 1.83-.47.74-.73 1.63-.77 2.51v.36c0 .09 0 .17.01.26v.05c0 .09.02.17.03.26.01.09.03.17.04.24 0 .04.02.08.03.12.01.06.03.13.05.19 0 .02.01.05.02.07.02.06.04.12.06.19.02.05.04.11.06.16.09.23.2.45.33.65.49.75 1.15 1.35 1.88 1.76.91.52 1.87.84 2.85 1.04v3.6c-.57-.18-1.09-.17-1.54-.08-.2-.17-.4-.34-.63-.54-.2-.17-3.09-2.89-5.78-3.09-.78-.06-1.57.09-2.36.51-1.25.66-1.95 1.73-2.03 3.11-.13 2.35 1.62 5.32 4.18 7.07Zm-44.89-7.07c-.08-1.38-.78-2.45-2.03-3.11-.8-.42-1.58-.57-2.36-.51-2.69.2-5.59 2.92-5.78 3.09-.23.2-.43.37-.63.54-.45-.09-.97-.09-1.54.08v-3.6c.98-.2 1.95-.52 2.85-1.04.73-.41 1.4-1.01 1.88-1.76s.69-1.7.65-2.56c-.04-.88-.3-1.76-.77-2.51a7.111 7.111 0 0 0-1.75-1.83c-.09-.07-.19-.15-.29-.22.19-.93 1.29-1.66 2.68-1.66 1.52 0 2.76.86 2.76 1.93 0 .9-1.72 1.93-3.09 1.88.11.38 1.16 1.98 2.09 2.39 1.04.46 2.36.38 3.25-.4.51-.45.71-1.04.74-1.62l3.66-3.14c.84 5.11 4.12 14.78 16.67 21.15-2.15-.09-3.67-1.65-6.7-2.36-.73-.17-1.73.13-2.43.36-.68.22-1.34.46-1.99.77-1.35.65-2.6 1.48-3.76 2.42-.94.76-1.82 1.6-2.63 2.5-.29.32-.56.64-.83.97-.1.12-.19.24-.29.36-.03.04-.14.24-.19.26-3.08.73-5.3.28-5.98-1.23-.58-1.3.11-3.06 1.63-4.09 2.55-1.75 4.31-4.73 4.18-7.07ZM53.45 45.31v.05c-.64-.57-1.13-1.22-1.22-2.15-.17.8.17 1.68.67 2.34.17.21.36.4.54.59.37.38.74.73 1.1 1.09.02.02.05.04.07.06.59.56 1.1 1.16 1.46 1.81-.62-.53-1.28-1-1.96-1.35-1.09-.59-2.03-1.51-2.5-2.69-.41-1.06-.5-2.33-.06-3.43.3.04.58.05.85.04-.02.64.06 2.42 1.05 3.65Zm.14-1.48-.03.21c-.66-.5-.94-1.77-1.07-2.38.19-.01.37-.04.54-.07.02.41.15 1.3.57 2.24Zm-.31-2.29c.1-.02.2-.05.29-.08.09.55.22.78.31 1.01-.03.1-.05.19-.07.29-.31-.42-.43-.87-.53-1.22Zm.71-.22c.22-.09.34-.16.34-.16-.07.17-.12.33-.18.49-.11-.13-.14-.24-.17-.33Zm3.5-.13c.18-.04 2.48-.41 4.16 1.7-.3-.57-.72-1.13-1.22-1.61.45.04.89.07 1.31.09.19.44 1.04 2.31.83 4.81.28-.39.46-.84.59-1.3l2.02-1.73c.22.23.47.44.75.62-.56-1.26-.82-2.38-.86-2.57.64-.09 1.15-.2 1.59-.31v1.5s-.04.87.11 2.23l-3.78 3.24c-.42 3.74-3.36 2.13-3.4 2.11.29-.01 2.09.23 2.51-1.65-1.02 1.3-2.38 1-2.7.92 1.14-.51 1.93-1.43 1.93-2.53 0-1.63-1.7-2.96-3.79-2.96-.19 0-.38.02-.57.04.35-.12 2.71-.99 4.7 1.58-.67-1.28-2.51-3.16-4.72-2.9.36-.12 2.55-.96 4.72 1.57-1.53-2.67-3.95-2.86-4.16-2.87Zm-3.68-7.02c.44 1.25 1.61 2.15 2.81 2.53.62.23 1.26.23 1.63.5.44.27.83.69 1.18 1.13.44.57.82 1.23 1.17 1.89-.39-.04-.78-.07-1.2-.13 0-.01 0-.02-.01-.03-.47-.91-1.12-1.88-2.22-2.32-.57-.23-1.11-.16-1.49-.3-.44-.12-.86-.33-1.25-.59-.77-.53-1.4-1.27-1.82-2.13-.57-1.13-.78-2.4-.77-3.68.46.04 1.64.02 1.78.01-.17 1.02-.2 2.1.18 3.14Zm2.46.65c.31.19.61.33.91.45.59.24 1.13.42 1.61.7.07.05.16.07.24.12.24.15.44.32.64.5.14.13.27.25.4.4.36.4.74.8 1.21 1.1.86.62 2.16 1.02 3.1.42-.61.09-1.16-.07-1.65-.34.91 0 1.61-.12 2.18-.25.27.42.57.81.96 1.12-.08-.46-1.68-3.97.8-3.93v4.7c-.96.23-2.63.54-4.87.48-.48-.89-.99-1.74-1.65-2.53-.41-.48-.86-.94-1.46-1.29-.27-.17-.72-.29-.98-.32-.29-.05-.56-.11-.83-.19-1.08-.3-2.03-.99-2.45-2.03-.38-.9-.38-1.94-.23-2.96.36-.03.72-.05 1.08-.1.57.54 1.15 1.46 1.08 3.05-.63-.42-1.05-1.2-1.39-2.02-.43 2.01 1.31 2.9 1.33 2.91Zm6.86-4.05c.43.6.56 1.82.56 1.82 2.05-1.13 1.57-2.84 1.21-3.61.78-.81 1.35-1.7 1.76-2.52v8.04c-.77-.13-2.05.3-2.28 1.14-.12.5-.07.94.06 1.33-.73.14-1.76.22-3.04.07-.19-.22-.86-.99-1.01-1.15.76-.79 1.26-1.55 1.6-2.25 1.65-.78 1.15-2.88 1.15-2.88Zm-4.22 1.84c.02-.12.05-.25.05-.37.09.03.76 0 1.89 1.32-.14.23-.29.47-.46.71-.38-.63-.86-1.21-1.48-1.66Zm2.03.79a4.988 4.988 0 0 0-1.99-1.8c-.02-.17-.04-.32-.06-.47.12.02 1.35.39 2.31 1.72-.07.19-.15.37-.25.55Zm-.62.97c-.15.19-.31.38-.48.57-.32-.5-.71-.95-1.18-1.34.06-.15.12-.31.16-.46.56.31 1.06.73 1.5 1.23Zm4.22 7.98-1.18 1.01c-.13-.97-.4-1.63-.59-1.97.46 0 .88-.03 1.29-.07.12.36.28.72.49 1.02Zm20.43 23.06c16.97-8.2 16.26-22.79 16.24-22.94V23.64c.57-.38.72-.72.81-.86.04.01.09.05.23.07v19.57c-.31 17.26-17.28 24.11-17.28 24.11-17.96-8.56-17.29-23.93-17.28-24.11V22.85c.14-.02.19-.06.23-.07.09.15.24.48.81.86v18.82c-.01.15-.83 14.59 16.25 22.94Zm17.57-43.4c-.08.07-.22.03-.22.03-.3-.07-.48-.49-.38-.91.09-.37.45-.8.89-.56-.07.09-.41.55-.29 1.44Zm-34.93.03s-.14.04-.22-.03c.12-.89-.22-1.35-.28-1.44.44-.23.8.2.89.56.09.42-.08.84-.38.91Zm35.66 20.36v-1.5c.44.1.95.22 1.59.31-.04.19-.31 1.31-.86 2.57.28-.17.52-.38.75-.62l2.01 1.73c.13.46.31.91.59 1.3-.22-2.5.63-4.37.83-4.81.42-.01.85-.04 1.31-.09-.5.48-.92 1.03-1.22 1.61 1.68-2.11 3.98-1.74 4.16-1.7-.21.01-2.63.2-4.16 2.87 2.18-2.52 4.37-1.69 4.72-1.57-2.22-.26-4.05 1.62-4.72 2.9 1.99-2.57 4.34-1.7 4.7-1.58-.19-.02-.37-.04-.57-.04-2.09 0-3.79 1.33-3.79 2.96 0 1.09.79 2.01 1.93 2.53-.32.08-1.68.37-2.7-.92.43 1.88 2.22 1.64 2.51 1.65-.04.02-2.98 1.62-3.4-2.11l-3.78-3.24c.15-1.36.11-2.2.11-2.23Zm2.97-9.81s.13-1.22.56-1.82c0 0-.5 2.09 1.15 2.88.33.71.84 1.46 1.6 2.25-.16.16-.82.94-1.01 1.15-1.28.14-2.31.07-3.04-.07.12-.4.18-.84.06-1.33-.23-.85-1.51-1.27-2.28-1.14v-8.04c.41.81.98 1.71 1.76 2.52-.36.77-.84 2.48 1.21 3.61Zm4.87.54c.04.15.1.31.16.46-.47.39-.86.84-1.18 1.34a12.1 12.1 0 0 1-.48-.57c.44-.5.94-.92 1.5-1.23Zm-1.57 1.14c-.17-.23-.33-.47-.46-.71 1.14-1.31 1.8-1.29 1.89-1.32 0 .12.04.25.05.37-.62.45-1.1 1.03-1.48 1.66Zm1.44-2.67c-.19.09-1.24.61-1.99 1.8-.1-.19-.18-.37-.25-.55.96-1.32 2.19-1.69 2.31-1.72-.02.15-.05.3-.07.47Zm-6.92 7.45c.39-.31.7-.7.96-1.12.57.14 1.27.25 2.18.25-.49.27-1.04.43-1.65.34.94.6 2.24.21 3.1-.42.47-.3.85-.7 1.21-1.1.13-.15.27-.28.4-.4.2-.18.4-.35.64-.5.07-.05.16-.08.24-.12.47-.27 1.02-.46 1.61-.7.3-.12.6-.26.91-.45.02-.01 1.75-.91 1.32-2.91-.34.82-.76 1.6-1.39 2.02-.08-1.59.51-2.51 1.08-3.05.35.05.72.07 1.08.1.14 1.02.14 2.05-.23 2.96-.41 1.03-1.36 1.73-2.44 2.03-.27.08-.55.14-.83.19-.27.03-.71.15-.98.32-.6.34-1.05.81-1.46 1.29-.66.79-1.17 1.65-1.65 2.53-2.24.07-3.92-.24-4.87-.48v-4.7c2.48-.04.88 3.47.8 3.93Zm12.23-8.01c.14 0 1.32.02 1.78-.01.01 1.28-.19 2.56-.76 3.68-.43.86-1.06 1.6-1.83 2.13-.39.26-.81.47-1.24.59-.38.14-.93.07-1.49.3-1.1.44-1.74 1.41-2.22 2.32 0 .01 0 .02-.01.03-.41.06-.8.1-1.19.13.35-.66.72-1.31 1.17-1.89.35-.44.74-.86 1.18-1.13.37-.27 1.01-.26 1.63-.5 1.21-.38 2.37-1.28 2.81-2.53.38-1.04.35-2.12.18-3.14Zm-9.12 10.35c-.19.34-.47 1-.59 1.97l-1.19-1.01c.21-.31.37-.66.49-1.02.41.04.84.06 1.29.07Zm9.31 4.75c.19-.19.38-.38.55-.59.5-.66.84-1.53.67-2.34-.08.93-.58 1.59-1.22 2.15v-.05c.99-1.23 1.07-3.01 1.05-3.65.27.01.55 0 .85-.04.44 1.1.35 2.38-.06 3.43-.47 1.18-1.41 2.09-2.5 2.69-.68.35-1.34.82-1.96 1.35.36-.65.87-1.26 1.46-1.81.02-.02.04-.04.07-.06.36-.35.73-.71 1.1-1.09Zm-.88-4.98s.12.07.34.16c-.03.09-.06.2-.16.33-.06-.16-.11-.33-.18-.49Zm.52 1.6c-.02-.1-.04-.19-.07-.29.1-.23.22-.47.31-1.01.09.03.19.06.29.08-.1.36-.22.8-.53 1.22Zm.78-1.17c.17.03.35.06.54.07-.13.61-.41 1.89-1.07 2.38 0-.07-.02-.14-.03-.21.42-.94.54-1.83.57-2.24Zm4.15-8.45c-.5.29-2.94 2.08-3.41 3.88 1.46.94 2.71 1.17 3.04 1.22-.03.02-1.12.71-3.89.38 1.8.86 3.47.53 3.88.44-.24.31-.91 1.49-3.04 1.57-1.18.05-3.05-1.15-3.14-1.21.07-.03 1.72-.71 2.68-2.1-.75.72-1.69 1.25-2.64 1.52-1.07.31-1.61.74-1.62.75-.44.11-.85.19-1.26.27.35-.62.81-1.16 1.4-1.42.35-.18.85-.14 1.41-.34.52-.17.99-.43 1.41-.75.84-.63 1.5-1.49 1.92-2.43.56-1.26.72-2.61.64-3.95.4-.04.8-.12 1.19-.2.05.48.09 2.09-.87 3.51 1.44-1.09 1.75-3.07 1.79-3.78.23-.08.88-.34.97-.39 0 .34 0 1.6-.92 3.02 1.22-1.08 1.7-2.98 1.77-3.62.1-.09.22-.17.31-.27.02.03.17 2.86-1.6 3.9Zm-.69 1.89c-.23.7-.38 1.37-.49 2a5.64 5.64 0 0 1-.93-.38c.49-.97 1.35-1.57 1.42-1.62Zm-6.11-12.24c-.28-.8-1.42-.8-1.44-.8.35-.41.91-.7.91-.7-1.99.29-2.66 1.51-2.66 1.51-.25-.69.8-1.53 1-1.71l-.75-.38 2.02-.64.22.34-.57.55 2.05-.68-.82-.38 1.07-.75-1.7.46.16-.32 1.71-.39c.22.2 1.15 1.21 1.33 1.47.41-.59 1.02-.68 1.14-.68.73 0 1.33.6 1.33 1.33 0 .54-.33 1-.79 1.2-.17.08-.35.13-.54.13-.05 0-1.79-1.07-3.6.07.54-.08 1.54.08 2.03.3-.02 0-.48-.04-1.68.53.54-.08 1.19-.07 1.69.14-.47.09-.91.24-1.3.46.37-.05.74-.04 1.09 0-.59.39-1.37.75-2.4 1.08-.37.12-.72.26-1.07.39l-.1-.12c1.94-.63 1.88-1.93 1.7-2.42Zm-.22 3.13c2.16-.69 3.5-1.54 4.09-2.59 1.19-.12 2.14-1.09 2.14-2.32 0-1.3-1.06-2.36-2.36-2.36-.37 0-.71.1-1.02.25-.21-.23-.39-.44-.64-.68.19-.9.53-1.88 1.11-2.42.33-.31.7-.46 1.15-.43.57.02 1.38.19 2.23.37 2.07.43 4.59.95 6.56.14-.2.64-.51 1.21-.84 1.71-.45-.13-3.07-.6-5.96.56 6.49-.98 7.14 1.78 7.33 2.51.21.72.43 1.53.83 2.26.43.77 1.57 1.7 2.65 1.92 0 0-1.61 1.38-3.4 1.28.21-1.58-.07-3.28-1.27-4.48-1.52-1.49-3.65-1.83-5.54-1.64 9.24 1.05 3.88 9.29 4.64 10.72-.23-.12-1.61-.68-2.63-2.14.39-.75.5-1.62.31-2.4-.33-1.55-1.57-3.02-3.14-3.06 1.42.46 2.22 1.89 2.36 3.18.15 1.35-.55 4.28-7.55 4.04.55-.23 4.37-1.46 3.76-4.39-.02 1.5-1.12 2.57-2.38 2.94-1.33.39-3.15.89-4.27 1.83.72-2.57 2.17-3.07 3.85-3.64-.89-.13-2.5-.11-4.18 1.85-2.31.56-3.33 1.98-3.43 2.1.62-2.36 2.42-4.12 5.57-5.12Zm-7.81-.22c.73.8 1.8 1.33 3.14 1.62-.65.59-1.15 1.25-1.48 1.94-.04-.13-.19-1.43-.06-1.96-.28.47-.59 1.54-.57 1.91-.07-.22-.27-1.73-.14-2.26-.28.47-.53 1.38-.57 1.89-.1-.25-.3-1.82-.18-2.36-.27.45-.46.97-.54 1.52-.08-.22-.28-1.74-.15-2.28-.44.8-.56 1.63-.56 1.65-.07-.21-.26-1.68-.14-2.22-.21.34-.35.73-.45 1.14-.16-.49-.19-1.44-.07-1.97-.24.4-.4.87-.5 1.35a3.69 3.69 0 0 1-.16-1.65c1.62-1.08.55-2.09.55-2.09-.02.72-.68 1.03-.96.13-.05-.31-.05-.54.05-.88.28-.96 1.3-.48 1.36-.42.41.35.44 1.4.36 1.99 0 .06-.16 1.61 1.08 2.96Zm1.57-6.98c.51-.97 1.82-.64 2.46-.48.68.15 1.4.04 1.99-.29.2-.11.36-.26.52-.41-.59 1.31-1.81 1.39-2.41 1.35-.42-.04-.93-.06-1.43.06-.19.05-.38.12-.56.22.16.15.3.31.42.48.08.11.17.22.23.34.39.71.43 1.58.25 2.39-.09.41-.24.82-.43 1.18-.15.3-.21.62-.23.94-.05-.15-.1-.32-.1-.48-.02-.49.15-.91.36-1.39.36-1.02.18-2.22-.52-3 .4.94.5 1.97.15 2.86-.16.46-.38 1.01-.29 1.56.02.22.11.41.22.59-.11-.05-.23-.09-.32-.16-.4-.29-.51-.77-.4-1.26.09-.5.28-.99.43-1.53.53-1.93-1.3-2.63-1.96-2.52-.57.07-1.02.34-1.44.67a1.66 1.66 0 0 0-.82.03c-.17.05-.32.11-.45.17-.02-.02-.05-.04-.07-.06 1.97-2.56 4.24-1.36 4.42-1.26Zm-3.8-4.91c.24.32.48.63.69.92.18.23 1.15 1.85-.99 2.41.21-.92.31-3.15.3-3.33Zm-3.8-4.16c-1.2-.81-3.46.13-3.14 2.02-.23-.32-.36-.68-.34-1.06.03-1.11.97-1.66 2.01-1.89.42-.09.86-.14 1.26-.14-.22-.27-.48-.49-.74-.69-1.19-.9-2.68-1.16-4-1.15-.76 0-1.53-.24-1.99-.79-.46-.53-.47-1.37.02-1.93.47-.57 1.27-.88 2.05-.97.8-.1 1.62.02 2.45.15.39.05.79.1 1.19.06-.16.05-.32.1-.48.12-.54.1-1.1.02-1.69 0-.59 0-1.17.06-1.73.25-.51.19-1.15.5-1.23 1.12.41-1.2 2.4-1.2 2.95-1.11 1.79.28 2.27.04 2.53-.05-.23.29-.62.91-3.28.82-.06 0-.89-.03-1.3.29-.46.41-.13.96.12 1.22-.2-.34-.27-.86.05-.97.15-.08.33-.1.53-.1-.05.09-.1.2-.11.32 0 .27.26.42.46.49.85.26 1.7.37 2.51.67 1.64.54 2.98 1.68 3.81 3.17 1.15 1.97 1.34 4.29.91 6.48-.13-.38-.36-.73-.66-1.02.04-.36.29-3.65-2.18-5.31Zm-8.26 11.71c.94-.19 2-.08 3 .13.98.26 2.23.5 3.39.27 1.18-.19 2.36-1.09 2.69-2.26.2-.58.25-1.26-.07-1.86-.3-.59-.97-.97-1.63-.88-.15.02-.3.07-.43.14.82-1.23 1.9-.96 2.39-.66-1.11-1.1-2.22-.17-2.43.02.05-.11.1-.23.17-.32.45-.6 1.3-.88 2.01-.66.72.2 1.25.88 1.36 1.68.03.24.15 1.23-.7 2.58.58-.42 1.08-1.02 1.33-1.76 2.79-.23 3.09-2.12 2.94-2.57-.1-.42-.28-.72-.46-1.01-.37-.56-.78-1.05-1.05-1.54-.3-.51-.39-.9-.14-1.21.25-.36.82-.62 1.36-.85-.5.25-.98.63-1.02 1.31 0 .46.31.77.51 1.05.21.29.43.58.62.88.41.58.73 1.23.74 1.91.01.68-.39 1.33-.91 1.84.6-.39 1.16-1.02 1.21-1.83.06-.8-.32-1.52-.71-2.14-.37-.61-1.05-1.17-1.16-1.73-.03-.44.31-.84.73-1.17-.09.15-.18.3-.22.5-.11.38-.01.85.16 1.15.36.62.77.99 1.09 1.44.76.87 1.02 1.7.76 2.77-.1.4-.27.8-.46 1.19-.61-.17-2.79-.47-4.44 1.91-.65.02-1.25.53-1.42 1.27-.15.67.08 1.31.53 1.67-.52.5-1.15.83-1.83.82-.56 0-1.14-.1-1.69-.31-.56-.19-1.06-.49-1.76-.73-.66-.19-1.39-.34-2.17-.13-.78.19-1.47 1.04-1.37 1.85.02.29.1.55.21.79-.16-.07-2.18-.65-1.12-2.25.25-.38.74-.6 1.24-.62-.49-.06-1.03.08-1.43.45-.39.35-.82 1.26-.38 2.01-.51-.33-.89-.77-.89-1.33-.05-.99.51-1.63 1.48-1.8Zm-10.57.51h7.19c.35 0 .64.29.64.65s-.29.65-.64.65h-7.19c-.35 0-.64-.29-.64-.65s.29-.65.64-.65ZM67.79 9.5c.83-1.48 2.17-2.63 3.81-3.17.81-.3 1.66-.41 2.51-.67.19-.07.46-.21.46-.49a.81.81 0 0 0-.11-.32c.19 0 .38.02.53.1.32.11.25.63.06.97.25-.26.57-.81.12-1.22-.4-.31-1.24-.28-1.3-.29-2.65.09-3.04-.54-3.27-.82.26.09.75.33 2.53.05.55-.09 2.53-.09 2.94 1.11-.07-.61-.71-.92-1.23-1.12-.56-.19-1.14-.26-1.73-.25-.59.01-1.15.1-1.69 0-.16-.02-.32-.07-.48-.12.4.04.8-.01 1.19-.06.83-.12 1.65-.25 2.45-.15.79.09 1.58.4 2.05.97.49.56.49 1.4.02 1.93-.46.55-1.22.78-1.99.79-1.32-.01-2.81.25-4 1.15-.26.2-.51.43-.74.69.4 0 .84.05 1.26.14 1.04.23 1.98.78 2.01 1.89.02.38-.11.74-.34 1.06.32-1.88-1.93-2.82-3.14-2.02-2.47 1.65-2.22 4.95-2.18 5.31-.3.29-.53.64-.66 1.02-.43-2.19-.24-4.52.91-6.48Zm-1.57 7.64c-2.13-.56-1.16-2.17-.99-2.41.21-.29.45-.6.69-.92-.01.18.09 2.41.3 3.33Zm-2.99-3.34c.32-.45.73-.82 1.09-1.44.17-.31.27-.78.16-1.15-.04-.2-.14-.35-.22-.5.42.32.76.72.73 1.17-.11.56-.79 1.12-1.16 1.73-.39.62-.77 1.34-.71 2.14.05.8.6 1.44 1.21 1.83-.52-.51-.92-1.16-.91-1.84 0-.68.33-1.33.74-1.91.19-.3.41-.59.62-.88.19-.28.5-.59.51-1.05-.04-.68-.52-1.06-1.02-1.31.54.23 1.1.49 1.36.85.25.31.17.7-.14 1.21-.28.5-.68.98-1.05 1.54-.18.29-.36.59-.46 1.01-.14.46.15 2.34 2.94 2.57.25.74.75 1.34 1.33 1.76-.85-1.35-.73-2.34-.7-2.58.1-.8.64-1.48 1.36-1.68.71-.23 1.56.05 2.01.66.07.1.11.22.17.32-.22-.2-1.32-1.12-2.43-.02.49-.3 1.57-.57 2.39.66a1.21 1.21 0 0 0-.43-.14c-.65-.09-1.33.29-1.63.88-.31.59-.27 1.28-.07 1.86.33 1.18 1.51 2.08 2.69 2.26 1.16.23 2.41 0 3.39-.27 1-.21 2.06-.31 3-.13.97.17 1.53.8 1.48 1.8 0 .56-.38 1-.89 1.33.44-.75.02-1.66-.38-2.01a1.82 1.82 0 0 0-1.43-.45c.5.02.99.24 1.24.62 1.05 1.6-.97 2.18-1.12 2.25.1-.24.19-.49.21-.79.1-.81-.59-1.66-1.37-1.85-.78-.21-1.51-.07-2.17.13-.7.24-1.2.54-1.76.73-.56.21-1.13.31-1.69.31-.68 0-1.31-.32-1.84-.82.45-.35.68-1 .53-1.67-.17-.74-.78-1.24-1.42-1.27-1.64-2.38-3.83-2.08-4.44-1.91a6.95 6.95 0 0 1-.46-1.19c-.26-1.07 0-1.9.76-2.77Zm.52 5.37c-.66-.11-2.49.59-1.96 2.52.15.54.34 1.04.43 1.53.1.49 0 .97-.4 1.26-.1.07-.21.11-.32.16.1-.18.19-.37.22-.59.1-.55-.13-1.1-.29-1.56-.35-.89-.25-1.93.15-2.86-.69.78-.88 1.98-.52 3 .2.48.37.91.36 1.39 0 .16-.06.32-.1.48-.02-.32-.09-.64-.23-.94a5.19 5.19 0 0 1-.43-1.18c-.19-.81-.14-1.68.25-2.39.07-.12.15-.23.23-.34.12-.17.26-.34.42-.48-.18-.1-.36-.17-.55-.22-.49-.12-1-.1-1.43-.06-.6.04-1.83-.04-2.41-1.35.17.15.33.3.52.41.58.33 1.31.45 1.98.29.65-.16 1.96-.5 2.47.48.18-.1 2.45-1.3 4.42 1.26-.02.02-.05.04-.07.06-.13-.07-.28-.13-.45-.17-.33-.08-.6-.07-.83-.03-.42-.33-.87-.6-1.44-.67Zm-.05 6.53c1.24-1.35 1.09-2.9 1.08-2.96-.07-.59-.04-1.64.36-1.99.06-.05 1.07-.54 1.36.42.1.34.1.57.06.88-.28.9-.94.59-.96-.13 0 0-1.08 1.01.55 2.09.04.39.09.9-.16 1.65-.1-.48-.26-.95-.5-1.35.12.54.09 1.48-.07 1.97-.1-.4-.24-.79-.45-1.14.12.54-.07 2.01-.14 2.22 0-.02-.11-.85-.56-1.65.12.53-.07 2.05-.15 2.28a4.12 4.12 0 0 0-.54-1.52c.12.54-.09 2.11-.18 2.36-.05-.51-.29-1.43-.57-1.89.12.54-.07 2.04-.14 2.26.01-.36-.29-1.44-.57-1.91.12.54-.03 1.83-.06 1.96-.33-.7-.83-1.35-1.48-1.94 1.34-.29 2.41-.82 3.14-1.62Zm-9.2-6.81 1.71.39.16.32-1.7-.46 1.07.75-.82.38 2.05.68-.57-.55.22-.34 2.01.64-.75.38c.2.17 1.24 1.02 1 1.71 0 0-.67-1.22-2.67-1.51 0 0 .57.28.91.7-.02 0-1.16 0-1.44.8-.17.49-.24 1.79 1.71 2.42l-.1.12c-.35-.14-.7-.27-1.07-.39-1.03-.33-1.81-.69-2.4-1.08.35-.05.72-.06 1.09 0-.39-.22-.83-.37-1.3-.46.5-.21 1.14-.22 1.69-.14-1.2-.57-1.66-.53-1.68-.53.49-.22 1.49-.38 2.03-.3-1.81-1.14-3.55-.07-3.6-.07-.2 0-.38-.05-.54-.13-.46-.21-.79-.67-.79-1.2 0-.73.6-1.33 1.33-1.33.11 0 .73.09 1.14.68.19-.26 1.12-1.27 1.34-1.47ZM44.18 30.72c.76-1.43-4.59-9.68 4.64-10.72-1.88-.19-4.01.14-5.54 1.64-1.19 1.2-1.47 2.91-1.26 4.48-1.79.1-3.4-1.27-3.4-1.28 1.08-.22 2.23-1.15 2.65-1.92.4-.73.62-1.54.83-2.26.19-.73.84-3.49 7.33-2.51-2.89-1.15-5.52-.69-5.96-.56a6.81 6.81 0 0 1-.84-1.71c1.97.81 4.49.29 6.56-.14.85-.18 1.65-.35 2.23-.37.46-.03.82.12 1.15.43.58.54.92 1.52 1.11 2.42-.25.24-.43.46-.63.68-.31-.15-.65-.25-1.02-.25-1.3 0-2.36 1.06-2.36 2.36 0 1.22.94 2.2 2.14 2.32.59 1.05 1.94 1.9 4.1 2.59 3.14 1 4.95 2.76 5.57 5.12-.1-.11-1.12-1.54-3.42-2.1-1.68-1.96-3.29-1.98-4.18-1.85 1.68.57 3.13 1.07 3.85 3.64-1.12-.94-2.94-1.44-4.27-1.83-1.26-.38-2.36-1.44-2.38-2.94-.6 2.93 3.22 4.15 3.77 4.39-7 .23-7.7-2.69-7.55-4.04.15-1.3.94-2.72 2.36-3.18-1.57.04-2.81 1.51-3.14 3.06-.19.78-.08 1.65.31 2.4-1.02 1.46-2.4 2.02-2.63 2.14Zm4.69 2.41c-1.78-1.04-1.62-3.87-1.6-3.9.09.1.2.18.31.27.07.64.55 2.54 1.77 3.62-.91-1.43-.92-2.68-.92-3.02.09.05.73.31.96.39.05.71.36 2.69 1.79 3.78-.97-1.42-.93-3.02-.87-3.51.39.09.79.16 1.19.2-.08 1.34.08 2.69.64 3.95.42.94 1.07 1.8 1.92 2.43.43.31.89.58 1.41.75.56.2 1.06.16 1.41.34.59.26 1.05.8 1.4 1.42-.41-.09-.83-.16-1.26-.27-.01-.01-.56-.45-1.62-.75-.95-.27-1.89-.8-2.64-1.52.97 1.39 2.61 2.07 2.68 2.1-.09.06-1.97 1.26-3.15 1.21-2.13-.09-2.79-1.26-3.04-1.57.41.09 2.09.42 3.88-.44-2.77.33-3.86-.36-3.89-.38.32-.04 1.58-.28 3.04-1.22-.48-1.8-2.92-3.59-3.41-3.88Zm.69 1.89c.06.05.93.65 1.42 1.62-.28.15-.59.27-.93.38-.11-.63-.26-1.3-.49-2Zm-12.48 3.54c-1.72 1.36-1.3 3.1-1.29 3.13-.02-.02-1.11-.84-.19-2.35-.45.22-1.07.74-1.07 2.06-.83.47-1.36.11-1.36.11s.43-2.74 2.04-3.68c.03 0 .84-.22 1.21-.85-1.1.22-1.71-.06-1.75-.07a3.28 3.28 0 0 0 2.15-1.11s1.52 1.7.26 2.77Zm5.02 14.11s-2.66-.31-2.53-3.55c.08-2.04.74-3.83 1.5-5.63.19-.42 1.46-2.64 1.71-5.13.19-1.88-.44-3.67-1.69-4.8-.57-.53-1.37-.83-2.19-.83-1.05 0-1.93.49-2.4 1.33.33-.81 1.16-1.48 2.07-1.64 1.03-.2 2.02.07 2.85.67 1.8 1.29 2.33 3.58 2.28 5.31-.08 2.59-1.7 5.52-1.7 5.52-.88 1.93-1.36 3.55-1.49 4.96-.02.2-.19 1.89 1.01 2.69 1.04.55 2.08.41 3.02-.36.77-.63 1.6-2.16 2.29-3.65.11.43.26.83.45 1.18-1.47 4.45-4.81 4-5.18 3.93Zm4.55 2.16c.06.06.69 1.05 2.69.85-1.74-.38-2.28-1.22-2.34-1.29.6.42 2.03.35 2.19.32.79-.12 1.43-.52 1.89-1.18.89-1.28-.09-2.35-1.1-3.13-4.8-3.69-.39-9.43-.35-9.49.02.01.05.03.08.05.61.4 1.22.6 1.79.68-.55 1.07-.6 2.38-.28 3.56.38 1.32 1.32 2.45 2.46 3.22 1.1.71 2.02 1.54 2.65 2.57-.85-.81-1.87-1.43-2.87-1.86-1.12-.52-2.12-1.37-2.67-2.52-.52-1.13-.71-2.54-.19-3.75-.64 1.16-.61 2.62-.17 3.89.47 1.29 1.48 2.35 2.66 3.05 1.14.64 2.12 1.4 2.82 2.39.02.03.04.07.06.1-.94-.92-2.11-1.56-3.25-1.99-1.15-.47-2.18-1.27-2.78-2.39-.57-1.1-.83-2.5-.37-3.73-.58 1.19-.48 2.65.02 3.89.52 1.27 1.59 2.29 2.8 2.92.43.21.82.47 1.2.73.17.17.45.56.58 1.15-.52-.72-1.34-1.45-2.67-1.76.16.08 4.33 2.31-1.11 5.52.31 0 .63-.04.94-.08v3.88c1.46-.49 3.63.1 3.71 1.09-.85-.91-2.09-.82-2.62-.58.59-.07 1.78.2 2.08 1.26-.11.05-.21.1-.35.14-.14-.18-.96-1.33-2.25-.86.59.04 1.15.19 1.54.99-1.57.2-3.7.05-3.7.05V57.5c-2.39-.55-2.99-2.37-3.11-2.68Zm14.27 29.85c.48 0 .98-.07 1.52-.22 1.94-.53 3.33-1.73 4.02-3.47 0 .2 0 .4-.03.6-.07.74-.37 1.42-.87 2-.51.58-1.19 1.06-1.93 1.51.86-.08 1.74-.35 2.46-.94.03-.02.05-.05.07-.08h1.78c-.37.19-.74.39-1.12.56-.85.41-1.72.76-2.62 1-1.77.49-3.65.64-5.34.05-1.7-.54-3.07-1.85-3.77-3.51-.35-.83-.54-1.74-.51-2.65.01-.9.25-1.87.98-2.51-.36.19-.62.48-.84.82-.24.13-.53.28-.89.48.91-2.51 3.51-3.19 4.27-3.34.86.29 1.94.49 3.24.55-.23.18-.48.37-.74.56-1-.49-2.84-.68-4.35 1.3-.98 1.27-.88 3.25.24 4.91.85 1.26 2.4 2.41 4.44 2.4Zm-1.31-7.9c-.85.58-1.83 1.18-2.88 1.77.07-.21.17-.41.3-.58.94-1.23 1.92-1.32 2.58-1.19Zm-2.78 4.01c-.13-.34-.21-.69-.24-1.03 2.78-1.49 4.95-3.08 6.38-4.26.57-.03 1.17-.09 1.81-.17-1.95 1.94-4.53 3.8-7.94 5.47Zm26.93-8.81c0-.25.08-1.96-1.71-3.2.68.7 1.78 2.47.09 4.8-.34.18-.73.32-1.17.43.12-.16 1.24-1.52.57-3.43.09.97-.14 2.74-2.41 3.65-1.14-.05-1.92-.51-2.21-1.32-.28-.77-.09-1.87 1.02-2.19-.49.57-.37 1.6.42 1.97 1.65.51 3.1-1.41 2.39-2.88-.6-1.36-1.95-2.19-3.33-2.37-.17-.03-2.08-.25-3.87.94.61-.24 1.24-.42 1.87-.51-1.49 2.07-4.68 5.46-10.04 6.36-4.01.67-7.19.21-8.95-1.3-.86-.74-1.34-1.71-1.32-2.67.02-1.12-.09-2.33-.21-3.32.24.26.46.53.63.84.03.06.05.13.08.18.24.46.41.96.5 1.49.1.55.14 1.13.15 1.73.25-.57.36-1.21.35-1.85 0-.3-.05-.59-.12-.88.42-.94 1.17-2.01 2.54-2.85 1.2-.73 1.86-1.67 1.82-2.58-.03-.62-.38-1.13-.96-1.41-.96-.47-2.3-.21-3.58.7-2.11 1.5-6.37 2.97-8.46 2.07 1 .02 2.06-.22 3.13-.9h.46c1.21-.05 3.89.02 4.54-1.74.13-.36-.44-.99-.79-1.24-.06-.05-.18-.13-.35-.22.25-.21.5-.42.76-.61 1.66-1.25 2.69-2.31 4.89-2.42.54-.03 1.07.12 1.61.4.94.49 1.44 1.27 1.5 2.29.12 1.99-1.49 4.66-3.74 6.2-1.9 1.3-2.74 3.59-1.97 5.32.43.96 2 3.05 7.3 1.74l.18-.05c4.75-1.32 6.17-3.66 6.17-3.66-1.64 1.38-3.81 2.11-5.24 2.48.06-.01.16-.19.21-.24l.23-.26c.17-.19.34-.38.52-.56.41-.43.84-.85 1.28-1.25 1.1-.99 2.3-1.88 3.6-2.61.78-.43 1.32-.7 2.16-.99.4-.14.99-.33 1.41-.42 1.05-.24 2.01.1 2.48.31.86.38 1.85.87 2.71 1.25.46.2.93.4 1.39.59.23.1.47.19.7.28.12.05.24.1.37.15.05.02.29.07.31.12.26.5.88 2.04.11 3.62Zm10.74-4.09c.63.09 1.27.27 1.87.51-1.79-1.19-3.7-.97-3.87-.94-1.37.17-2.73 1.01-3.33 2.37-.71 1.47.74 3.39 2.39 2.88.79-.37.91-1.4.42-1.97 1.11.32 1.31 1.42 1.02 2.19-.3.81-1.08 1.26-2.21 1.32-2.28-.91-2.5-2.69-2.41-3.65-.67 1.91.44 3.28.57 3.43-.44-.11-.83-.25-1.17-.43-1.69-2.33-.58-4.1.09-4.8-1.79 1.24-1.71 2.94-1.71 3.2-.77-1.57-.15-3.12.11-3.62.02-.05.26-.1.31-.12.12-.05.24-.1.37-.15.23-.09.47-.19.7-.28.47-.19.93-.39 1.39-.59.86-.37 1.85-.87 2.71-1.25.47-.21 1.43-.55 2.48-.31.42.09 1 .29 1.41.42.84.28 1.38.55 2.16.99 1.3.72 2.49 1.61 3.6 2.61.44.4.87.81 1.28 1.25.18.18.35.37.52.56l.23.26c.04.05.15.23.21.24-1.43-.36-3.61-1.1-5.24-2.48 0 0 1.42 2.35 6.17 3.66l.18.05c5.29 1.32 6.86-.78 7.3-1.74.78-1.73-.07-4.02-1.97-5.32-2.25-1.55-3.86-4.21-3.74-6.2.06-1.02.56-1.8 1.5-2.29.53-.28 1.07-.43 1.61-.4 2.21.11 3.23 1.17 4.89 2.42.26.19.51.4.76.62-.03.01-.06.03-.08.05-.1.06-.18.11-.23.15-.01 0-.02.01-.03.02-.35.25-.92.88-.79 1.24.28.68.83 1.09 1.47 1.33.04.02.09.03.13.05.05.02.1.03.16.05.1.03.2.06.3.08.11.02.23.05.34.07h.03c.22.04.44.07.65.08.06 0 .11 0 .17.01.28.02.54.03.77.04.19 0 .37.01.52.02H118.96c1.07.68 2.14.92 3.13.9-2.08.9-6.35-.57-8.46-2.07-1.28-.91-2.62-1.17-3.58-.7-.58.28-.93.79-.96 1.41-.04.9.62 1.84 1.82 2.58 1.37.83 2.12 1.91 2.54 2.85-.07.29-.12.58-.12.88-.01.64.1 1.28.35 1.85.01-.6.05-1.18.15-1.73.1-.53.26-1.03.5-1.49.03-.06.05-.13.08-.18.17-.3.39-.58.63-.84-.12 1-.23 2.2-.21 3.32.01.96-.47 1.93-1.32 2.67-1.75 1.51-4.94 1.97-8.95 1.3-5.35-.9-8.55-4.29-10.04-6.36Zm10.64 7.44c.64.09 1.25.14 1.81.17 1.43 1.18 3.59 2.77 6.38 4.26-.03.34-.11.69-.24 1.03-3.42-1.66-6-3.53-7.94-5.47Zm5.16 1.45c.66-.13 1.64-.03 2.58 1.19.13.17.22.37.3.58-1.05-.59-2.03-1.19-2.88-1.77Zm5.03 2.75c.03.91-.16 1.83-.51 2.65-.7 1.66-2.07 2.97-3.77 3.51-1.68.59-3.56.44-5.34-.05-.89-.24-1.77-.59-2.62-1-.38-.18-.75-.37-1.12-.57h1.78s.05.07.07.09c.72.59 1.6.86 2.46.94-.74-.44-1.42-.93-1.93-1.51-.5-.58-.8-1.26-.87-2-.03-.2-.03-.4-.03-.6.69 1.74 2.08 2.94 4.02 3.47.53.15 1.04.21 1.52.22 2.04.01 3.59-1.14 4.44-2.4 1.12-1.66 1.22-3.64.24-4.91-1.51-1.98-3.35-1.78-4.35-1.3-.26-.19-.51-.38-.74-.56 1.3-.05 2.37-.25 3.24-.55.76.15 3.36.83 4.27 3.34-.36-.2-.65-.35-.89-.48-.21-.34-.48-.63-.84-.82.73.63.97 1.6.98 2.51Zm27.73 1.13c-4.59 4.2-14.18 6.67-27.39 1.26.07-.31.14-.62.17-.93 3.5 1.55 7.72 2.79 12.54 2.95.31.01.61.01.9.02 8.99.05 13.7-3.95 15.01-7.49.92-2.47.36-5.02-1.45-7.1-.28-.32-.58-.62-.92-.92-.01.43-.06.83-.14 1.2-.54 2.36-2.4 3.75-4.19 4.54.32-.47.59-.96.8-1.46.31-.73.47-1.5.42-2.27-.37.66-.78 1.25-1.26 1.74-.73.74-1.59 1.31-2.58 1.67-1.93.71-4.06.59-5.82.25.45-.39.83-.78 1.17-1.18.79-.9 1.31-1.75 1.61-2.32-.73.7-1.49 1.23-2.27 1.56-1.54.65-3.11.67-4.51.43 1.21-.58 2.47-1.59 3.59-3.32.83-1.28 2.03-2.61 3.63-3.1 4.02-1.25 6.71-1.28 8.78-.6 2.23.73 3.94 2.9 4.81 5.62 1.08 3.33.01 6.78-2.91 9.45Z"></path><path d="M117.9 21.87a.83.83 0 0 0 0-1.66c-.15 0-.28.05-.4.12.19 0 .36.09.49.22h-.02c-.26 0-.47.22-.47.5s.21.5.47.5c-.12.12-.28.21-.47.21.12.07.26.12.4.12zm-65.85-1.66a.83.83 0 0 0 0 1.66c.15 0 .28-.05.4-.12-.19 0-.35-.09-.47-.21.26 0 .47-.22.47-.5s-.21-.5-.47-.5h-.02a.68.68 0 0 1 .49-.22.782.782 0 0 0-.4-.12zm39.01-9.18c-.69.88 0 2.21 0 2.21-2.56-.94-2.51 1.65-2.51 1.65s.5-.74 1.28-.3c.78.43.48 1.78-.14 2.16-.46.28-2.55.93-2.89-1.67s2.5-3.16 2.5-3.16c-.7-.68-1.63-.42-1.63-.42.12-1.85-1.47-1.73-1.47-1.73.4-2.41-1.23-3.46-1.23-3.46s-1.63 1.05-1.23 3.46c0 0-1.6-.12-1.47 1.73 0 0-.92-.26-1.63.42 0 0 2.85.56 2.5 3.16-.34 2.6-2.42 1.95-2.89 1.67-.63-.38-.93-1.73-.14-2.16.78-.43 1.28.3 1.28.3s.05-2.59-2.51-1.65c0 0 .69-1.33 0-2.21s-2.81-1.67-2.81-1.67 1.5 3.3 1.98 5.65l.66 3.14a.63.63 0 0 0 .51.49 32.643 32.643 0 0 0 11.5 0 .63.63 0 0 0 .51-.49l.66-3.14c.48-2.35 1.98-5.65 1.98-5.65s-2.12.78-2.81 1.67zm-12.83 2.64l-.18-.9c-.07-.3-.16-.59-.27-.87a7.24 7.24 0 0 0-.85-1.62c.26.19.46.43.64.68.18.26.33.54.44.84a3.697 3.697 0 0 1 .22 1.86zm.91.6c-.13.18-.2.41-.24.65s-.06.49-.07.74c-.09-.24-.13-.5-.12-.76 0-.26.07-.53.23-.77.05-.05.09-.11.14-.16l.17-.13c.13-.06.26-.12.4-.13.13-.03.27 0 .4.01.13.03.25.07.37.11-.13.01-.26 0-.38.01l-.18.02a.47.47 0 0 0-.17.04.86.86 0 0 0-.54.36zm5.84 3.4c-.17 0-.3-.2-.3-.43s.14-.42.3-.43c.17 0 .31.2.31.43s-.14.43-.31.43zm0-1.85c-.26 0-.47-.3-.47-.66s.21-.65.47-.66c.27 0 .48.3.48.66s-.22.66-.48.66zm1.04-3.93c-.32.18-.59.44-.76.76l-.28.5-.28-.5c-.18-.32-.44-.59-.76-.76l-.5-.28.5-.28c.32-.18.59-.44.76-.76l.28-.5.28.5c.18.32.44.59.76.76l.5.28-.5.28zm5 3.77c0-.26-.03-.51-.07-.74-.05-.24-.12-.46-.24-.65a.824.824 0 0 0-.54-.36.471.471 0 0 0-.17-.04l-.18-.02c-.12 0-.25 0-.38-.01l.37-.11c.13 0 .27-.04.4-.01.14 0 .27.07.4.13a1.09 1.09 0 0 1 .17.13c.05.05.09.11.14.16.16.23.22.51.23.77 0 .26-.03.52-.12.76zm1.04-3.76c-.11.28-.2.57-.27.87-.08.29-.12.59-.18.9a3.7 3.7 0 0 1-.02-.94c.03-.32.12-.62.23-.92.12-.29.26-.58.44-.84s.39-.5.64-.68c-.18.26-.33.52-.48.79a6.17 6.17 0 0 0-.37.83z"></path></g><path d="M78.97 49.6v-6.03c0-3.07 1.82-3.95 2.8-3.95-1.53 0-2.8-1.41-2.8-3.31v-2.99c.09-.91 1.41-1.22 2.13-1.41h-5.7c.72.19 1.49.72 1.65 1.41v3c0 1.68 1.39 3.04 3.19 3.31-1.82.48-3.19 1.89-3.19 4.24v5.74c-.17.7-.93 1.22-1.65 1.44h5.7c-.72-.22-1.89-.53-2.13-1.44ZM90.97 49.6v-6.03c0-3.07-1.82-3.95-2.8-3.95 1.53 0 2.8-1.41 2.8-3.31v-2.99c-.09-.91-1.41-1.22-2.13-1.41h5.71c-.72.19-1.49.72-1.65 1.41v3c0 1.68-1.39 3.04-3.19 3.31 1.82.48 3.19 1.89 3.19 4.24v5.74c.17.7.93 1.22 1.65 1.44h-5.7c.72-.22 1.89-.53 2.13-1.44ZM85 42.24l-.91 1.4c-.61.93-1.04 1.71-1.04 2.41 0 .66.32 1.21.83 1.54.23.19.57.32 1.02.32 1.04 0 1.84-.85 1.84-1.86s-1.73-3.81-1.73-3.81Zm-.66 5.14c-.55 0-1.08-.55-1.08-1.33 0-.59.38-1.31.93-2.2.61 1.04 1.12 1.93 1.12 2.48s-.38 1.06-.97 1.06ZM82.1 31.9c1.18.3 2.6 1.43 2.88 2.86.28-1.43 1.7-2.56 2.88-2.86H82.1ZM85.25 37.83v3.58c.05-.36.46-.76.91-1.1.5-.37 1.08-.6 1.69-.69s-.11-.02-.11-.02c-.54-.1-1.05-.31-1.5-.62-.49-.35-.94-.78-1-1.15ZM83.7 38.97c-.45.32-.96.52-1.5.62l-.11.02c.61.09 1.19.33 1.69.69.46.34.86.74.91 1.1v-3.58c-.05.37-.51.8-1 1.15Z" fill="#14254c"></path><path d="M85.25 28l-.27-.5-.27.5c-.18.32-.44.59-.76.76l-.5.27.5.27c.32.18.59.44.76.76l.27.5.27-.5c.18-.32.44-.59.76-.76l.5-.27-.5-.27c-.32-.18-.59-.44-.76-.76zm0 24.86l-.27-.5-.27.5c-.18.32-.44.59-.76.76l-.5.27.5.27c.32.18.59.44.76.76l.27.5.27-.5c.18-.32.44-.59.76-.76l.5-.27-.5-.27c-.32-.18-.59-.44-.76-.76zm13.19-11.12l.5-.27-.5-.27c-.32-.18-.59-.44-.76-.76l-.27-.5-.27.5c-.18.32-.44.59-.76.76l-.5.27.5.27c.32.18.59.44.76.76l.27.5.27-.5c.18-.32.44-.59.76-.76zm-24.86 0l.5-.27-.5-.27c-.32-.18-.59-.44-.76-.76l-.27-.5-.27.5c-.18.32-.44.59-.76.76l-.5.27.5.27c.32.18.59.44.76.76l.27.5.27-.5c.18-.32.44-.59.76-.76z" fill="#daa351"></path><path d="M165.27 27.05h-3.7v1.49h3.7v27.64h-3.7v1.49h11.64v-1.49h-4.06V43.17h1.84c1.18 0 2.12.11 2.8.32s1.16.58 1.45 1.09c.29.52.43 1.23.43 2.14h1.51v-8.35h-1.51c0 .91-.14 1.61-.43 2.08-.29.48-.77.8-1.45.98s-1.61.27-2.8.27h-1.84V28.53h6.51c1.59 0 2.83.27 3.73.81.89.54 1.51 1.32 1.87 2.35.35 1.03.53 2.27.53 3.73h1.49v-8.37h-18.01zm45.31 4.19a12.3 12.3 0 0 0-4.12-3.38c-1.61-.81-3.4-1.21-5.37-1.21s-3.76.41-5.36 1.21c-1.6.81-2.97 1.94-4.12 3.38s-2.03 3.11-2.64 5.01-.92 3.94-.92 6.11.29 4.22.87 6.11c.58 1.9 1.43 3.57 2.54 5.01 1.12 1.44 2.48 2.57 4.1 3.38s3.46 1.21 5.53 1.21 3.91-.4 5.53-1.21 2.99-1.94 4.11-3.38 1.97-3.11 2.55-5.01.87-3.94.87-6.11-.31-4.22-.93-6.11c-.62-1.9-1.5-3.57-2.64-5.01zm-1.43 16.48c-.22 1.72-.62 3.25-1.2 4.6-.59 1.35-1.43 2.43-2.53 3.22s-2.55 1.18-4.33 1.18-3.21-.39-4.31-1.18-1.95-1.86-2.54-3.22c-.59-1.35-.99-2.89-1.2-4.6s-.32-3.5-.32-5.35.13-3.63.38-5.35c.25-1.71.68-3.25 1.3-4.6.61-1.35 1.46-2.43 2.55-3.22s2.47-1.18 4.14-1.18 3.06.39 4.14 1.18c1.09.79 1.94 1.86 2.56 3.22.62 1.35 1.05 2.89 1.31 4.6a37.02 37.02 0 0 1 .38 5.35c0 1.85-.11 3.63-.33 5.35zm59.22 5.06c-.38 1.14-1.07 1.99-2.07 2.55s-2.43.85-4.3.85h-6.51v-13.6h2.43c.78 0 1.44.12 1.98.36s.96.63 1.26 1.17c.29.54.44 1.27.44 2.18h1.51v-8.76h-1.51c0 .91-.15 1.63-.44 2.14a2.36 2.36 0 0 1-1.26 1.09c-.54.21-1.2.32-1.98.32h-2.43V28.52h6.94c1.59 0 2.83.27 3.72.81.88.54 1.5 1.32 1.86 2.35.35 1.03.53 2.27.53 3.73h1.51v-8.37h-22.13v1.49h3.7v27.64h-3.7v1.49h22.52v-9.19h-1.49c0 1.73-.19 3.16-.57 4.3zm31.04-25.73h-5.23v1.49h4.71l-8.55 24.58-7.93-24.58h3.99v-1.49h-11.84v1.49h3.4l10.3 29.73h1.78l10.55-29.73h3.53v-1.49h-4.71zm28.68 25.73c-.38 1.14-1.07 1.99-2.07 2.55s-2.43.85-4.3.85h-6.51v-13.6h2.43c.78 0 1.44.12 1.98.36s.96.63 1.26 1.17c.29.54.44 1.27.44 2.18h1.51v-8.76h-1.51c0 .91-.15 1.63-.44 2.14a2.36 2.36 0 0 1-1.26 1.09c-.54.21-1.2.32-1.98.32h-2.43V28.52h6.94c1.59 0 2.83.27 3.72.81.88.54 1.5 1.32 1.86 2.35.35 1.03.53 2.27.53 3.73h1.51v-8.37h-22.13v1.49h3.7v27.64h-3.7v1.49h22.52v-9.19h-1.49c0 1.73-.19 3.16-.57 4.3zm-85.3 3.4c-.67 0-1.12-.25-1.35-.75s-.36-1.15-.39-1.97l-.07-2.68c-.02-.97-.14-1.95-.35-2.93s-.62-1.88-1.21-2.69c-.6-.82-1.49-1.47-2.68-1.97-.91-.38-2.05-.61-3.42-.7 1.35-.11 2.55-.33 3.59-.68 1.52-.5 2.67-1.3 3.46-2.4s1.18-2.53 1.18-4.3-.42-3.25-1.27-4.45c-.84-1.2-2.03-2.1-3.56-2.7-1.53-.61-3.32-.91-5.38-.91h-13.47v1.49h4.51v27.64h-4.51v1.49h12.88v-1.49h-4.51V28.54h5.1c1.31 0 2.42.24 3.33.71.91.48 1.61 1.2 2.09 2.17s.72 2.2.72 3.69-.24 2.72-.72 3.7-1.18 1.71-2.09 2.19-2.02.72-3.33.72h-2.89v.79a.68.68 0 0 0 .68.68h2c1.21 0 2.16.2 2.84.61s1.18.96 1.5 1.64c.32.69.53 1.46.63 2.32l.18 2.66.17 2.66c.1.86.3 1.63.61 2.32a3.61 3.61 0 0 0 1.48 1.64c.67.4 1.6.61 2.79.61h2.88v-1.49h-1.43zm118.13-.34c-.27.12-.55.23-.84.32s-.65.13-1.08.13c-.65 0-1.1-.25-1.35-.75s-.39-1.16-.45-1.98l-.14-2.72a15.83 15.83 0 0 0-.4-2.96c-.22-.99-.63-1.89-1.2-2.72-.58-.82-1.44-1.48-2.57-1.98-.85-.37-1.92-.61-3.19-.7 1.36-.11 2.57-.33 3.62-.68 1.52-.5 2.67-1.3 3.46-2.4s1.18-2.53 1.18-4.3-.42-3.25-1.27-4.45c-.84-1.2-2.03-2.1-3.56-2.7-1.53-.61-3.32-.91-5.38-.91h-13.47v1.49h4.51v27.64h-4.51v1.49h12.88v-1.49h-4.51V28.54h5.1c1.31 0 2.42.24 3.33.71.91.48 1.61 1.2 2.09 2.17s.72 2.2.72 3.69-.24 2.72-.72 3.7-1.18 1.71-2.09 2.19-2.02.72-3.33.72h-2.89v.79a.68.68 0 0 0 .68.68h2c1.25 0 2.24.21 2.95.62.71.42 1.24.97 1.56 1.66s.54 1.48.63 2.35c.1.87.15 1.77.16 2.7l.13 2.71c.07.87.26 1.65.56 2.35a3.57 3.57 0 0 0 1.44 1.66c.66.42 1.58.62 2.77.62.73 0 1.45-.06 2.14-.18s1.2-.27 1.53-.45l-.51-1.41zM168.4 68.47h-.26l-1.67 4.92-1.82-4.92h-2.29v.32h.69v6.19h-.64v.33h1.62v-.33h-.63v-6.04l2.37 6.46h.38l2.25-6.66v6.24h-.73v.33h2.79v-.33h-.65v-6.19h.65v-.32h-2.06zm15.32 6.51l-2.3-6.64h-.71l-2.36 6.64h-.8v.33h2.02v-.33h-.83l.59-1.7h2.21l.55 1.7h-.78v.33h3.18v-.33h-.76zm-4.29-2.03l1.03-2.96.96 2.96h-1.99zm15.72-1.89l1.93-2.27h.89v-.32h-2.19v.32h.83l-2.79 3.27v-3.27h.91v-.32h-3.16v.32h.83v6.19h-.83v.33h3.07v-.33h-.82v-2.37l.4-.47 1.62 2.84h-.75v.33h3.29v-.33h-.91l-2.32-3.92zm14.98 3.16c-.14.26-.35.45-.61.57-.27.13-.61.19-1.02.19h-.88v-3.05h.24a.94.94 0 0 1 .47.12c.14.08.26.19.36.34s.17.32.22.52h.34v-2.24h-.34c-.05.2-.12.37-.22.51s-.22.24-.36.31-.3.1-.47.1h-.24v-2.81h.97c.36 0 .65.06.89.18s.43.3.57.53.23.51.27.83h.33v-1.87h-5.29v.33h.83v6.19h-.83v.33h5.38v-2.05h-.33c-.05.39-.14.71-.28.96zm13.03-5.75h-.79v.33h.79v4.42c0 .46-.07.82-.2 1.09-.14.26-.32.45-.55.56s-.5.16-.81.16-.53-.04-.72-.13a.98.98 0 0 1-.43-.37 1.63 1.63 0 0 1-.21-.6c-.04-.23-.06-.5-.06-.8v-4.32h.91v-.33h-3.16v.33h.83v4.42c0 .79.2 1.36.59 1.7s1.02.52 1.88.52c.74 0 1.31-.18 1.69-.55s.58-.93.58-1.68V68.8h.82v-.33h-1.15zm13.67.95c-.18-.3-.45-.53-.82-.7s-.84-.25-1.42-.25h-3.15v.33h.83v6.19h-.83v.33h3.07v-.33h-.82v-2.52h.91c.58 0 1.05-.08 1.42-.25s.65-.4.82-.7c.18-.3.26-.65.26-1.05s-.09-.74-.26-1.04zm-1.36 1.65c-.04.2-.12.38-.21.54s-.21.29-.36.38c-.14.1-.31.14-.51.14h-.72v-3.34h.72a.95.95 0 0 1 .51.14c.14.1.26.22.36.39s.16.34.21.54a2.46 2.46 0 0 1 .07.6 2.46 2.46 0 0 1-.07.6zm20.61-2.6h-1.02v.32h1.02v6.19h-1.02v.33h3.53v-.33h-1.1v-6.19h1.1v-.32h-2.51zm15.21 0h-1v.32h1v4.17l-2.86-4.49h-2.76v.32h.97v6.19h-.97v.33h2.37v-.33h-1.06v-6.14l4.18 6.56h.48v-6.61h.95v-.32h-1.3zm12.58 3.27a4.37 4.37 0 0 0-.71-.47l-.77-.36-.71-.34a1.69 1.69 0 0 1-.52-.41.834.834 0 0 1-.2-.56c0-.28.1-.5.31-.65.2-.15.48-.23.84-.23a1.54 1.54 0 0 1 .8.21c.24.14.44.34.62.59s.33.56.45.91h.33v-2.06h-.28l-.61.51c-.11-.1-.23-.18-.37-.25-.31-.17-.65-.25-1.03-.25s-.7.07-1.01.22-.56.35-.74.63c-.19.27-.28.6-.28.98s.07.7.2.96.31.48.52.65a3.28 3.28 0 0 0 .71.45l.78.34.71.34a1.71 1.71 0 0 1 .52.43.98.98 0 0 1 .2.62c0 .25-.06.44-.17.6-.12.17-.28.29-.49.38s-.46.13-.74.13-.54-.05-.76-.16-.42-.25-.58-.43c-.17-.18-.31-.38-.43-.6s-.22-.44-.3-.67h-.33v2.15h.3l.63-.56c.19.17.4.32.64.42.27.12.58.17.93.17.43 0 .81-.08 1.16-.26a1.97 1.97 0 0 0 .81-.73c.2-.31.3-.68.3-1.11 0-.37-.07-.69-.2-.95a1.98 1.98 0 0 0-.52-.66zm7.88-1.08h.35c.03-.29.08-.55.15-.78s.16-.43.27-.59a1.15 1.15 0 0 1 .42-.37c.17-.09.38-.13.62-.13h.51v6.19h-1v.33h3.43v-.33h-1v-6.19h.52c.24 0 .45.04.62.13a1.15 1.15 0 0 1 .42.37c.11.16.2.36.27.59s.12.49.15.78h.33v-2.19h-6.04v2.19zm14.33-2.19h-1.02v.32h1.02v6.19h-1.02v.33h3.53v-.33h-1.1v-6.19h1.1v-.32h-2.51zm9.77 2.19h.35c.03-.29.08-.55.15-.78s.16-.43.27-.59a1.15 1.15 0 0 1 .42-.37c.17-.09.38-.13.62-.13h.51v6.19h-1v.33h3.43v-.33h-1v-6.19h.52c.24 0 .45.04.62.13a1.15 1.15 0 0 1 .42.37c.11.16.2.36.27.59s.12.49.15.78h.33v-2.19h-6.04v2.19zm18.42-2.19h-.79v.33h.79v4.42c0 .46-.07.82-.2 1.09-.14.26-.32.45-.55.56s-.5.16-.81.16-.53-.04-.72-.13a.98.98 0 0 1-.43-.37 1.63 1.63 0 0 1-.21-.6c-.04-.23-.06-.5-.06-.8v-4.32h.91v-.33h-3.16v.33h.83v4.42c0 .79.2 1.36.59 1.7s1.02.52 1.88.52c.74 0 1.31-.18 1.69-.55s.58-.93.58-1.68V68.8h.82v-.33h-1.15zm8.27 2.19h.35c.03-.29.08-.55.15-.78s.16-.43.27-.59a1.15 1.15 0 0 1 .42-.37c.17-.09.38-.13.62-.13h.51v6.19h-1v.33h3.43v-.33h-1v-6.19h.52c.24 0 .45.04.62.13a1.15 1.15 0 0 1 .42.37c.11.16.2.36.27.59s.12.49.15.78h.33v-2.19h-6.04v2.19zm18.35 2.6c-.05.39-.14.71-.28.96-.14.26-.35.45-.61.57-.27.13-.61.19-1.02.19h-.88v-3.05h.24a.94.94 0 0 1 .47.12c.14.08.26.19.36.34s.17.32.22.52h.34v-2.24h-.34c-.05.2-.12.37-.22.51s-.22.24-.36.31-.3.1-.47.1h-.24v-2.81h.97c.36 0 .65.06.89.18s.43.3.57.53.23.51.27.83h.33v-1.87h-5.29v.33h.83v6.19h-.83v.33h5.38v-2.05h-.33z" fill="#fff"></path></svg> 