<?xml version="1.0" encoding="UTF-8"?> <svg xmlns="http://www.w3.org/2000/svg" xmlns:v="https://vecta.io/nano" viewBox="0 0 96 96"><g fill="#14254c"><path d="M87.71 64.92c-.71-2.22-1.98-3.6-4.13-4.17-.61-.16-2.24-.09-2.59-.05-.99.11-1.89.22-2.78.56-1.15.43-2.06 1.32-2.68 2.28-.91 1.4-1.95 1.99-2.85 2.21-.55.13-1.05.13-1.44.07.36.18.84.39 1.44.56.62.19 1.33.33 2.09.34.31 0 .62-.02.94-.07-.06.05-.12.11-.18.15-.22.16-.46.31-.71.45.25.08.52.17.83.24.67.16 1.47.3 2.31.3.76 0 1.55-.1 2.31-.38.21-.08.4-.19.6-.29-.08.1-.16.2-.25.3-.28.31-.57.59-.85.84.27-.05.71-.14 1.22-.3 1.37-.43 3.26-1.36 3.92-3.26.78 1.08.98 2.33.52 3.57-.86 2.31-4.14 4.59-9.59 4.38-3.11-.11-5.83-.93-8.05-1.95 0-.09 0-.19-.02-.28-.02-.13-.06-.27-.1-.41.13.07.86.48 1.1.62-.01-.18-.03-.36-.06-.52-.32-1.8-1.69-2.62-2.63-2.97.24-.14.44-.28.6-.43.69-.6 1.08-1.4 1.07-2.2-.02-.96.13-2.07.23-2.74l.03-.22a2.9 2.9 0 0 0-.65.28c-.01 0-.02.02-.04.02-.3.19-.56.46-.76.76-.34-.56-.85-1.15-1.63-1.63-.56-.34-.88-.74-.86-1.08 0-.2.15-.31.26-.37.31-.15.91-.13 1.65.4 1.41 1 4.73 2.27 6.35 1.26.21-.13.43-.34.6-.64.11-.2.2-.45.24-.75-.22.09-.46.18-.71.23-.39.09-.81.11-1.25.03v-3.35c.32-.16.58-.33.81-.51.07-.05.14-.11.2-.17.21-.19.37-.38.5-.56.05-.07.09-.14.13-.21.25-.48.28-.94.25-1.3 0-.05-.01-.1-.02-.15 0-.05-.01-.09-.02-.13-.01-.05-.02-.1-.03-.14l-.03-.12c-.01-.05-.02-.09-.02-.12-.05.04-.9.74-1.96.58H71c-.07-.01-.14-.03-.21-.05a1.12 1.12 0 0 1-.54-.43c-.09-.13-.12-.25-.06-.39 0-.01.01-.03.02-.04.03-.05.07-.11.12-.17.04-.05.08-.1.13-.15.02-.02.04-.04.05-.06l.06-.06.13-.13s.1-.1.16-.15c.27-.25.58-.54.86-.89 1.06 2.74 3.74 2.54 3.87 2.51 0 0 2.22-.2 2.17-2.94-.03-1.43-.5-2.64-1.01-3.86-.76-1.54-1.01-2.56-1.04-3.09-.1-1 .22-1.94.87-2.53.24-.23.6-.36.96-.36.21 0 .74.05.99.57.07.13.1.28.12.44-.08.05-1.91 1.06-.46 2.49.25.29 1.32 1.07.61 2.61.62-.11 1.09-.43 1.29-.69.96.5 2.12-.07 2.31-.18-.61-.26-.98-1.5-.98-1.5-.07-.21-.33-.77-.67-1.18.02-.01.66-.16.81-.93-1.43-.06-1.68-.7-1.72-.76 0-.28-.02-.56-.11-.82-.27-.79-1.02-1.43-1.86-1.58-.81-.16-1.66.05-2.34.54-1.16.83-1.76 2.32-1.74 3.97.02 1.23 1.15 3.79 1.15 3.79.53 1.16.82 2.13.9 3.04.07.79-.3 1-.31 1.01-.4.21-.8.16-1.19-.16-.59-.48-1.36-2.2-1.85-3.42-.14-.81-.84-2.27-1.33-3.12.36-.38 1.07-1.72 1.15-1.94-.26.05-.57.15-1.31.04.11-.65.32-1.38.65-2.18.7-.62 1.21-1.26 1.32-2.02.87.75 2.22.87 2.36.86-.92-.81.07-3.07.09-3.15 1.99-.17 3.01-1.56 3.08-1.68-1.82-.34-2.13-1.66-2.37-2.63-.28-1.27-.88-1.49-.92-1.52.85-1.33.77-2.52.72-2.86-.17.27-.85 1.74-4.84.76-.59-.15-1.11-.23-1.53-.25-.46-.02-.88.13-1.22.45-.41.39-.88 1.81-.91 1.95l-1.33.31-.26.53-1.56.5.22.82c-.82.77-.05 1.87-.02 1.91 1.01-1.65 1.78-.95 1.83-.86.52.92-1.58 1.01-1.58 1.01l.55.66c-.39.18-.74.39-1.05.61-.96-.13-1.7-.44-2.17-.94-.63-.68-.57-1.46-.56-1.49.02-.12.12-1.12-.32-1.64.41-.3.92-.41 1.24.02.42.39 0 1.14-.07 1.83-.06.35.07.81.41 1.01.14.08.29.13.43.18.07.02.14.04.21.05 0-.04-.02-.08-.02-.12v-.05c0-.24.06-.5.17-.7.15-.26.25-.53.33-.81.15-.56.15-1.2-.12-1.75-.04-.07-.08-.13-.13-.2.21-.06.43-.09.68-.09.44-.02 1.37-.22 1.71-1.35-.02.02-.74.74-1.7.41-.37-.13-.84-.29-1.31-.15-.17.04-.31.14-.45.24-.02 0-.04-.02-.06-.03 1.35-1.4.21-2.74-.02-3.05-1.55-1.75-.16-2.21-.05-2.35-2.46.43-2.54.93-2.56.97-.15-.4-.32-.79-.55-1.15-.6-.97-1.58-1.72-2.67-2.02-.54-.17-1.11-.21-1.63-.35-.13-.04-.26-.11-.26-.23 0-.07.03-.14.07-.21.1 0 .21.01.31.02.52.05 1.07.09 1.63-.06 1.33-.36 1.05-1.74 1.04-1.78-.04.1-.18.92-1.53.6-1-.24-2.28-.41-3.17.47-.43.43-.49 1.21-.09 1.71.38.51 1.01.71 1.58.75.65.01 1.3.18 1.82.48-.1.04-1.2.34-1.13 1.51.02.41.52 1.09.92 1.26-.02-.07-.22-1.5.88-1.4.17.02 1.58.41 1.68 2.63-.09-.04-.16-.1-.26-.13-.73-.23-1.59.11-1.92.8-.2.44-.22.89-.04 1.56.04-.07.29-.46.7-.46.62 0 .87.72.59 1.25-.25.58-.75.94-1.36 1.02-.63.1-1.23 0-1.93-.2-2.81-.55-3.3.69-3.33.74-.19-.3-.51-.52-.89-.52h-4.61c-.38 0-.7.21-.89.52-.03-.05-.52-1.29-3.33-.74-.7.19-1.29.3-1.93.2a1.68 1.68 0 0 1-1.36-1.02c-.29-.52-.04-1.25.58-1.25.42 0 .66.39.7.46.18-.67.15-1.12-.04-1.56-.33-.69-1.19-1.03-1.92-.8-.09.03-.17.09-.26.13.1-2.22 1.52-2.61 1.69-2.63 1.1-.1.89 1.33.88 1.4.4-.17.9-.85.92-1.26.07-1.17-1.03-1.47-1.13-1.51.53-.3 1.18-.47 1.83-.48.57-.03 1.2-.24 1.57-.75.4-.5.35-1.28-.09-1.71-.89-.89-2.17-.71-3.17-.47-1.35.32-1.49-.49-1.53-.6 0 .05-.29 1.42 1.04 1.78.56.15 1.11.11 1.63.06.1 0 .21-.02.31-.02.04.07.07.13.07.21 0 .13-.13.19-.26.23-.53.14-1.09.18-1.63.35-1.09.29-2.07 1.04-2.67 2.02-.23.36-.4.75-.55 1.15-.03-.04-.1-.54-2.56-.97.1.14 1.49.6-.05 2.35-.22.3-1.36 1.65-.01 3.05l-.06.03c-.14-.09-.28-.19-.45-.24-.47-.13-.94.03-1.31.15-.96.32-1.68-.39-1.7-.41.33 1.13 1.27 1.33 1.71 1.35.25 0 .48.03.68.09-.04.07-.09.13-.12.2-.27.55-.27 1.19-.12 1.75.08.28.18.55.33.81.11.2.17.46.17.7v.05c0 .04-.02.08-.02.12.07-.01.14-.03.21-.05.15-.04.29-.09.43-.18.34-.2.47-.66.41-1.01-.07-.69-.49-1.43-.07-1.83.32-.43.83-.32 1.24-.02-.44.52-.34 1.52-.32 1.64 0 .02.07.8-.56 1.49-.47.5-1.21.81-2.17.94-.32-.22-.66-.43-1.05-.61l.55-.66s-2.11-.09-1.58-1.01c.05-.09.82-.79 1.83.86.02-.03.8-1.14-.02-1.91l.21-.82-1.55-.5-.27-.53-1.33-.31c-.03-.13-.49-1.56-.91-1.95-.34-.32-.76-.47-1.22-.45-.42.02-.94.11-1.53.25-3.99.98-4.67-.48-4.84-.76-.05.35-.13 1.53.72 2.86-.04.03-.64.25-.92 1.52-.24.97-.55 2.29-2.37 2.63.07.12 1.09 1.51 3.08 1.68.02.08 1.01 2.34.09 3.15.14 0 1.49-.11 2.36-.86.11.77.61 1.41 1.32 2.02.33.8.54 1.53.65 2.18-.74.12-1.05 0-1.31-.04.08.22.79 1.56 1.15 1.94-.49.85-1.2 2.31-1.33 3.12-.49 1.21-1.26 2.94-1.85 3.42-.39.32-.79.37-1.19.16-.01-.01-.38-.22-.31-1.01.08-.9.37-1.87.9-3.04 0 0 1.13-2.56 1.15-3.79.02-1.65-.58-3.13-1.74-3.97-.69-.49-1.53-.71-2.34-.54-.84.15-1.59.78-1.86 1.58-.08.26-.11.53-.11.82-.04.06-.3.7-1.72.76.15.77.79.92.81.93-.34.41-.6.97-.67 1.18 0 0-.36 1.24-.98 1.5.19.11 1.35.67 2.31.18.2.25.66.58 1.29.69-.71-1.55.36-2.33.61-2.61 1.45-1.43-.38-2.43-.46-2.49.02-.16.05-.31.12-.44.26-.52.78-.57.99-.57.35 0 .71.14.95.36.65.58.98 1.53.87 2.53-.04.53-.29 1.55-1.05 3.09-.51 1.22-.99 2.43-1.01 3.86-.05 2.74 2.17 2.94 2.17 2.94.13.03 2.81.22 3.87-2.51.28.35.59.64.86.89.68.64.83.84.61 1.14-.19.28-.44.43-.77.49-1.08.17-1.94-.56-1.96-.58 0 .26-.84 2.07 1.76 3.41v3.35c-.44.08-.86.05-1.25-.04-.25-.05-.49-.14-.71-.23.04.3.13.55.24.75.17.3.39.51.6.64 1.61 1.02 4.94-.26 6.35-1.26.74-.52 1.34-.54 1.65-.4.11.06.25.16.26.37.02.33-.31.74-.86 1.08-.78.48-1.29 1.06-1.63 1.63-.2-.31-.46-.57-.76-.76-.02 0-.02-.02-.04-.02-.2-.12-.43-.21-.65-.28 0 .07.02.14.03.22.1.67.24 1.78.23 2.74-.01.8.38 1.61 1.07 2.2.17.14.37.29.6.43-.94.36-2.31 1.17-2.63 2.97-.03.17-.05.34-.06.52.24-.14.97-.55 1.1-.62-.04.14-.07.28-.1.41-.01.09-.02.18-.02.28-2.22 1.02-4.94 1.84-8.05 1.95-5.44.21-8.73-2.06-9.59-4.38-.45-1.24-.26-2.49.52-3.57.66 1.9 2.55 2.83 3.92 3.26.51.16.95.26 1.22.3-.27-.25-.56-.52-.85-.84-.09-.1-.17-.2-.25-.3.2.1.39.21.6.29.76.28 1.55.38 2.31.38.84 0 1.63-.14 2.31-.3.31-.08.59-.16.83-.24-.25-.14-.49-.29-.71-.45l-.18-.15c.32.05.63.07.94.07.76 0 1.47-.15 2.09-.34.6-.18 1.08-.39 1.44-.56-.39.05-.89.06-1.44-.07-.9-.22-1.93-.81-2.85-2.21-.62-.96-1.53-1.85-2.68-2.28-.89-.33-1.79-.45-2.78-.56-.35-.04-1.97-.11-2.59.05-2.15.57-3.41 1.95-4.13 4.17-.76 2.35 0 4.86 2.04 6.72 1.86 1.7 4.92 2.99 8.97 2.97 2.66-.02 5.75-.61 9.21-2.02a4.236 4.236 0 0 0 2.56 2.41c1.25.42 2.61.28 3.78-.17.93-.35 1.78-.85 2.54-1.47.16-.14.33-.28.48-.42h-1.53c.22-.32.38-.7.41-1.09.06-.61-.07-1.19-.29-1.71 0-.02-.02-.04-.03-.06-.16-.36-.38-.69-.63-.98.02.21.03.41.03.6 0 .54-.09 1.02-.27 1.46-.37.92-1.11 1.56-2.16 1.85-1.47.4-2.57-.33-3.12-1.14 0-.02-.01-.03-.02-.04 2.61-1.27 4.48-2.74 5.82-4.26 3.72-.81 5.78-3.31 6.61-4.59.15 0 .29.02.43.05.78.17 1.5.66 1.8 1.37.16.33.1.7-.12.98-.21.28-.6.49-.9.39-.29-.09-.74-.81.54-1.42-.03-.01-.79-.43-1.53 0-.66.39-.94 1.29-.65 2.07.12.33.6 1.28 2.19 1.27.22 0 2.86 0 3.56-2.33.7 2.33 3.34 2.33 3.56 2.33 1.59 0 2.07-.94 2.19-1.27.29-.78 0-1.68-.65-2.07-.73-.44-1.5-.02-1.53 0 1.28.61.83 1.33.54 1.42-.3.09-.69-.11-.9-.39-.22-.29-.28-.66-.12-.98.3-.71 1.02-1.2 1.8-1.37.14-.03.29-.04.43-.05.83 1.28 2.89 3.78 6.61 4.59 1.34 1.52 3.21 2.98 5.82 4.26-.01.01-.02.02-.02.04-.55.82-1.66 1.55-3.12 1.14-1.04-.29-1.79-.93-2.16-1.85a4.26 4.26 0 0 1-.27-1.46c0-.19.01-.4.03-.6-.25.3-.47.62-.63.98 0 .02-.02.04-.03.06-.23.52-.36 1.11-.29 1.71.04.39.19.77.41 1.1h-1.53l.48.42c.75.62 1.61 1.12 2.54 1.47 1.17.45 2.53.59 3.78.17a4.158 4.158 0 0 0 2.56-2.41c3.46 1.41 6.55 2 9.21 2.02 4.05.02 7.11-1.27 8.97-2.97 2.04-1.86 2.8-4.37 2.04-6.72Zm-76.96 6.25c-1.87-1.71-2.56-3.92-1.86-6.06.56-1.75 1.66-3.13 3.08-3.6 1.33-.44 3.05-.42 5.63.38 1.03.32 1.79 1.17 2.33 1.99.72 1.11 1.52 1.75 2.3 2.13-.89.16-1.91.14-2.89-.27-.5-.21-.99-.55-1.45-1 .19.36.52.91 1.03 1.49.22.25.46.51.75.76-1.13.22-2.49.3-3.73-.16-.63-.23-1.18-.6-1.65-1.07-.31-.32-.57-.7-.81-1.12-.03.5.07.99.27 1.46.14.32.31.64.51.94-1.15-.51-2.34-1.4-2.68-2.91-.05-.24-.08-.5-.09-.77-.21.19-.41.38-.59.59-1.16 1.34-1.52 2.97-.93 4.55.84 2.27 3.86 4.84 9.62 4.8h.58c3.09-.11 5.79-.9 8.04-1.89.02.2.06.4.11.6-8.47 3.46-14.61 1.88-17.56-.81Zm69.48-28.04s-.41.19-1.12.05c.24.4.76.54.78.54 1.03.6 1.3 2.36 1.3 2.36s-.34.23-.87-.07c0-.84-.4-1.18-.69-1.32.59.97-.11 1.5-.12 1.51 0-.02.28-1.13-.83-2-.81-.68.16-1.77.17-1.77.24.27.7.65 1.38.71Zm-7.8 6.83c.44.96.97 1.93 1.47 2.34.6.49 1.27.58 1.93.23.76-.51.65-1.59.64-1.72-.08-.9-.39-1.94-.96-3.18 0 0-1.04-1.88-1.09-3.54-.03-1.1.31-2.58 1.46-3.4.54-.39 1.17-.56 1.83-.43.58.1 1.11.53 1.32 1.05-.3-.54-.87-.85-1.54-.85-.53 0-1.04.2-1.4.53-.8.72-1.21 1.87-1.08 3.08.16 1.6.98 3.02 1.1 3.29.48 1.15.91 2.3.96 3.61.08 2.08-1.62 2.28-1.62 2.28-.24.04-2.38.33-3.32-2.52.12-.23.22-.48.29-.76Zm-2.03 1.82c-.24.19-.48.4-.66.64l-.01.01c-.02.02-.03.04-.04.06-.06.09-.11.18-.15.27l-.03.09-.03.14V53.11c0 .07 0 .14.02.21 0 .02 0 .04.01.06.01.05.03.11.05.16.04.08.08.16.14.25.09.13.2.25.31.35.05.04.09.08.14.11.22.16.47.25.76.3.1.02 1.01.06 1.4-.2 0 0 0 .01-.02.02 0 .01-.02.03-.04.05-.13.17-.53.56-1.44.76.52.05.9-.02 1.16-.13.04-.02.07-.03.1-.05.03-.02.06-.03.09-.05.03-.02.05-.04.08-.05s.09-.07.13-.1l.05-.05c.07-.06.1-.11.11-.12v.02c0 .02-.02.06-.04.1-.08.19-.25.55-.59.89-.3.29-.73.57-1.35.71v3.22s-1.36.1-2.37-.03c.05-.1.1-.18.15-.25.04-.05.07-.09.11-.12.21-.2.46-.25.72-.27-.57-.21-1 .08-1.24.31-.05.05-.1.1-.13.15-.04.04-.06.07-.07.09-.03 0-.06-.02-.09-.03a.3.3 0 0 1-.08-.04c-.02 0-.04-.01-.05-.02.02-.06.04-.11.06-.16.02-.05.05-.1.08-.14.04-.06.09-.11.14-.16.32-.3.78-.38 1.06-.35-.33-.15-1.07-.21-1.61.31l-.06.06s0-.06.02-.09c0-.01 0-.03.01-.04a.47.47 0 0 1 .1-.16c.01-.01.02-.02.03-.04.4-.42 1.46-.62 2.22-.37v-2.49c.15.02.3.04.45.05h.15c-.13-.08-.25-.15-.36-.22-.11-.07-.21-.15-.31-.22-.19-.14-.36-.29-.49-.42-.5-.49-.65-.93-.62-1.31v-.05c0-.06.02-.12.04-.18.01-.03.02-.07.04-.1.01-.03.03-.07.04-.1v-.02c.01-.03.03-.05.04-.08.02-.03.04-.06.05-.09.02-.03.04-.05.06-.08l.01-.01.12-.15.12-.12c.03-.03.07-.06.1-.09s.07-.05.1-.08c0 0 .01 0 .02-.01.02-.02.04-.03.06-.04.14-.1.24-.15.26-.16-.35.08-.64.21-.89.36l-.09.06c-.03.02-.06.04-.08.06-.03.02-.05.04-.08.06-.02.02-.05.04-.08.06-.05.04-.1.08-.14.13-.08.07-.15.15-.22.23-.05.06-.09.12-.13.17.02-.09.05-.18.08-.26.01-.03.02-.06.04-.08.02-.05.05-.1.08-.15.01-.02.03-.04.04-.06.05-.08.1-.14.14-.18.04-.03.09-.06.13-.09.07-.05.14-.09.22-.14.13-.08.27-.17.42-.24.78-.41 1.46-1.06 1.8-1.87.32-.8.39-1.74.01-2.5.29.79.13 1.68-.24 2.39-.38.72-1.05 1.23-1.78 1.53-.45.17-.91.4-1.34.69l-.19.13c-.06.05-.13.09-.19.14-.05.05-.11.09-.16.14-.07.06-.13.12-.19.18 0-.01.01-.02.02-.03 0 0 0-.01.01-.02v-.02c.03-.05.07-.09.1-.14.03-.04.07-.09.11-.13.04-.04.07-.09.11-.13l.12-.12c.38-.39.85-.72 1.37-1.01.76-.45 1.41-1.13 1.71-1.95.28-.82.3-1.75-.1-2.5.33.77.21 1.68-.13 2.4-.35.73-.99 1.28-1.71 1.61-.64.28-1.3.67-1.84 1.19.2-.33.45-.63.74-.9s.61-.52.96-.75c.73-.5 1.33-1.22 1.58-2.06.21-.76.18-1.6-.18-2.28a2.8 2.8 0 0 0 1.15-.44c.02-.01.04-.02.05-.03.02.04 2.85 3.72-.22 6.08Zm-6.69 10.63c.97.66 1.42 1.79 1.04 2.62-.43.96-1.86 1.26-3.83.79-.03 0-.1-.14-.12-.16a15.732 15.732 0 0 0-.71-.85 14.93 14.93 0 0 0-1.68-1.6c-.74-.61-1.55-1.14-2.41-1.55-.41-.2-.84-.35-1.27-.5-.45-.15-1.09-.34-1.56-.23-1.94.46-2.91 1.45-4.29 1.51 8.04-4.08 10.15-10.28 10.68-13.56l2.35 2.01c.02.38.15.75.47 1.04.57.5 1.42.55 2.08.26.6-.27 1.27-1.29 1.34-1.53-.88.03-1.98-.63-1.98-1.21 0-.68.79-1.24 1.77-1.24.89 0 1.6.47 1.72 1.07-.06.05-.12.09-.18.14-.42.31-.81.7-1.12 1.17-.3.48-.47 1.04-.49 1.61V52.63c0 .06.01.11.02.17 0 .05.02.11.03.16 0 .03.01.05.02.08 0 .04.02.08.03.12 0 .02 0 .03.01.05.01.04.02.08.04.12.01.03.02.07.04.1.06.15.13.29.21.42.31.48.74.86 1.21 1.13.58.33 1.2.54 1.83.67v2.31c-.36-.11-.7-.11-.99-.05-.13-.11-.26-.22-.41-.35-.13-.11-1.98-1.85-3.71-1.98-.5-.04-1 .06-1.51.33-.8.42-1.25 1.11-1.3 1.99-.08 1.5 1.04 3.41 2.68 4.53Zm-28.77-4.53c-.05-.88-.5-1.57-1.3-1.99-.51-.27-1.01-.36-1.51-.33-1.72.13-3.58 1.87-3.71 1.98-.15.13-.28.24-.4.35-.29-.06-.62-.06-.99.05v-2.31c.63-.13 1.25-.33 1.83-.67.47-.26.9-.65 1.21-1.13.31-.48.44-1.09.42-1.64-.02-.56-.19-1.13-.49-1.61-.3-.47-.7-.86-1.12-1.17-.06-.05-.12-.09-.18-.14.12-.6.83-1.07 1.72-1.07.98 0 1.77.55 1.77 1.24 0 .58-1.1 1.24-1.98 1.21.07.24.74 1.27 1.34 1.53.66.3 1.51.24 2.08-.26.33-.29.46-.67.47-1.04l2.35-2.01c.54 3.28 2.64 9.48 10.68 13.56-1.38-.06-2.35-1.06-4.29-1.51-.47-.11-1.11.08-1.56.23-.43.14-.86.3-1.27.5-.86.42-1.67.95-2.41 1.55-.6.49-1.16 1.03-1.68 1.6-.18.2-.36.41-.53.62-.06.08-.12.15-.18.23-.02.03-.09.16-.12.16-1.97.47-3.4.18-3.83-.79-.37-.83.07-1.96 1.04-2.62 1.64-1.12 2.76-3.03 2.68-4.53Zm-7.15-9.35v.03c-.41-.36-.72-.78-.78-1.38-.11.52.11 1.07.43 1.5.11.14.23.26.35.38l.7.7.04.04c.38.36.71.74.94 1.16-.4-.34-.82-.64-1.26-.87-.7-.38-1.3-.97-1.6-1.72-.26-.68-.32-1.49-.04-2.2.19.03.37.03.55.02-.01.41.04 1.55.67 2.34Zm.09-.95s-.02.09-.02.14c-.42-.32-.61-1.14-.69-1.53.12 0 .24-.02.35-.04.02.26.09.84.36 1.44Zm-.2-1.47c.07-.02.13-.03.19-.05.06.35.14.5.2.65-.02.06-.03.12-.05.19-.2-.27-.27-.56-.34-.78Zm.46-.14c.14-.06.22-.1.22-.1-.04.11-.07.21-.11.32-.07-.08-.09-.16-.11-.21Zm2.24-.08a2.87 2.87 0 0 1 2.67 1.09c-.19-.37-.46-.72-.78-1.03.29.03.57.05.84.06.12.28.67 1.48.53 3.09.18-.25.3-.54.38-.83l1.29-1.11c.14.15.3.28.48.39-.36-.81-.53-1.52-.55-1.64.41-.06.74-.13 1.02-.2v.96s-.02.56.07 1.43l-2.43 2.08c-.27 2.4-2.15 1.37-2.18 1.35.19 0 1.34.15 1.61-1.06-.65.83-1.53.64-1.73.59.73-.33 1.24-.92 1.24-1.62 0-1.05-1.09-1.9-2.43-1.9-.12 0-.25.01-.36.03.22-.08 1.74-.63 3.01 1.01-.43-.82-1.61-2.03-3.03-1.86.23-.08 1.63-.61 3.03 1.01-.98-1.71-2.53-1.83-2.67-1.84Zm-2.36-4.5c.29.8 1.03 1.38 1.8 1.62.39.15.81.15 1.04.32.28.17.53.44.76.73.29.37.53.79.75 1.21-.25-.02-.5-.05-.77-.08v-.02c-.3-.58-.72-1.2-1.42-1.49-.36-.15-.71-.1-.96-.19-.28-.08-.55-.21-.8-.38-.49-.34-.9-.82-1.17-1.36-.36-.72-.5-1.54-.49-2.36.29.02 1.05.01 1.14 0-.11.66-.13 1.35.11 2.01Zm1.58.42c.2.12.39.21.58.29.38.15.73.27 1.03.45.05.03.1.05.15.08.15.1.28.21.41.32.09.08.17.16.26.26.23.25.48.51.78.7.55.4 1.38.66 1.99.27-.39.06-.75-.05-1.06-.22.58 0 1.03-.08 1.4-.16.17.27.37.52.62.72-.05-.3-1.08-2.54.51-2.52v3.02c-.61.15-1.69.35-3.12.3-.31-.57-.64-1.12-1.06-1.62-.26-.31-.55-.61-.94-.83a1.8 1.8 0 0 0-.63-.21c-.18-.03-.36-.07-.53-.12-.69-.19-1.3-.64-1.57-1.3-.24-.58-.24-1.24-.15-1.89.23-.02.46-.03.69-.06.36.35.74.94.69 1.95-.4-.27-.67-.77-.89-1.29-.27 1.29.84 1.86.85 1.87Zm4.4-2.6c.27.39.36 1.17.36 1.17 1.31-.72 1-1.82.77-2.32.5-.52.86-1.09 1.13-1.61v5.16c-.49-.08-1.31.19-1.46.73-.08.32-.04.6.04.86-.47.09-1.13.14-1.95.05-.12-.14-.55-.64-.65-.74.49-.51.81-.99 1.03-1.44 1.06-.5.74-1.84.74-1.84Zm-2.71 1.18c.01-.08.03-.16.03-.24.06.02.49 0 1.21.85-.09.15-.19.3-.3.45-.25-.4-.55-.78-.95-1.06Zm1.3.51c-.48-.76-1.16-1.1-1.28-1.15-.01-.11-.03-.2-.04-.3.08.02.87.25 1.48 1.1-.05.12-.1.24-.16.35Zm-.4.62c-.09.12-.2.24-.31.36-.2-.32-.46-.61-.76-.86.04-.1.08-.2.1-.3.36.2.68.47.96.79Zm2.71 5.12-.76.65c-.08-.62-.26-1.05-.38-1.26.29 0 .57-.02.83-.04.08.23.18.46.31.66ZM48 61.42c10.88-5.26 10.42-14.61 10.41-14.71V34.65c.36-.25.46-.46.52-.55.03 0 .05.03.15.04v12.55C58.88 57.75 48 62.15 48 62.15c-11.51-5.49-11.08-15.34-11.07-15.46V34.14c.09-.01.12-.04.15-.04.06.09.15.31.52.55v12.06c0 .09-.53 9.35 10.41 14.71ZM59.26 33.6l-.14.02c-.19-.05-.31-.31-.25-.58.06-.24.29-.51.57-.36-.04.06-.26.35-.18.92Zm-22.39.02s-.09.02-.14-.02c.08-.57-.14-.86-.18-.92.28-.15.51.13.57.36.06.27-.05.54-.25.58Zm22.86 13.05v-.96c.28.07.61.14 1.02.2-.02.12-.2.84-.55 1.64.18-.11.34-.25.48-.39l1.29 1.11c.09.3.2.58.38.83-.14-1.6.41-2.8.53-3.09.27 0 .55-.03.84-.06-.32.31-.59.66-.78 1.03 1.08-1.35 2.55-1.12 2.67-1.09-.13 0-1.69.13-2.67 1.84 1.4-1.62 2.8-1.08 3.03-1.01-1.42-.17-2.6 1.04-3.03 1.86 1.27-1.64 2.78-1.09 3.01-1.01-.12-.01-.24-.03-.36-.03-1.34 0-2.43.85-2.43 1.9 0 .7.51 1.29 1.24 1.62-.21.05-1.08.24-1.73-.59.27 1.21 1.42 1.05 1.61 1.06-.03.01-1.91 1.04-2.18-1.35l-2.43-2.08c.1-.87.07-1.41.07-1.43Zm1.9-6.29s.08-.78.36-1.17c0 0-.32 1.34.74 1.84.21.45.54.94 1.03 1.44-.1.1-.53.6-.65.74-.82.09-1.48.04-1.95-.05.08-.25.11-.54.04-.86-.15-.54-.97-.81-1.46-.73v-5.16c.26.52.63 1.1 1.13 1.61-.23.49-.54 1.59.78 2.32Zm3.12.35c.03.1.07.2.1.3-.3.25-.55.54-.76.86-.11-.12-.21-.24-.31-.36.28-.32.6-.59.96-.79Zm-1.01.73c-.11-.15-.21-.3-.3-.45.73-.84 1.15-.83 1.21-.85 0 .08.02.16.03.24-.4.29-.7.66-.95 1.06Zm.93-1.71c-.12.06-.8.39-1.28 1.15-.07-.12-.12-.24-.16-.35.61-.85 1.41-1.08 1.48-1.1-.02.1-.03.19-.04.3Zm-4.43 4.77c.25-.2.45-.45.62-.72.36.09.82.16 1.4.16-.32.17-.67.28-1.06.22.6.39 1.43.13 1.99-.27.3-.19.54-.45.78-.7.08-.1.17-.18.26-.26.13-.12.25-.23.41-.32.05-.03.1-.05.15-.08.3-.18.65-.29 1.03-.45.19-.08.39-.17.58-.29.01 0 1.12-.58.85-1.87-.22.53-.49 1.02-.89 1.29-.05-1.02.33-1.61.69-1.95.23.03.46.04.69.06.09.65.09 1.32-.15 1.89-.27.66-.87 1.11-1.57 1.3-.18.05-.35.09-.53.12-.17.02-.45.1-.63.21-.39.22-.67.52-.94.83-.42.51-.75 1.06-1.06 1.62-1.43.04-2.51-.15-3.12-.3v-3.02c1.59-.02.56 2.22.51 2.52Zm7.84-5.13c.09 0 .85.02 1.14 0 0 .82-.12 1.64-.49 2.36-.27.55-.68 1.03-1.17 1.36-.25.17-.52.3-.8.38-.25.09-.59.05-.96.19-.7.29-1.12.9-1.42 1.49v.02c-.27.04-.52.06-.76.08.22-.42.46-.84.75-1.21.22-.29.48-.55.76-.73.24-.17.65-.17 1.04-.32.77-.24 1.52-.82 1.8-1.62.25-.67.22-1.36.11-2.01Zm-5.85 6.64c-.12.22-.3.64-.38 1.26l-.76-.65c.13-.2.24-.42.31-.66.26.02.54.04.83.04Zm5.97 3.05c.12-.12.24-.24.35-.38.32-.42.54-.98.43-1.5-.05.6-.37 1.02-.78 1.38v-.03c.64-.79.68-1.93.67-2.34.17 0 .35 0 .55-.02.28.71.22 1.52-.04 2.2-.3.76-.9 1.34-1.6 1.72-.44.22-.86.53-1.26.87.23-.42.56-.81.94-1.16l.04-.04c.23-.22.47-.45.7-.7Zm-.56-3.19s.08.04.22.1c-.02.06-.04.13-.1.21-.04-.1-.07-.21-.11-.32Zm.33 1.03c-.02-.06-.03-.12-.05-.19.06-.15.14-.3.2-.65.06.02.12.04.19.05-.07.23-.14.51-.34.78Zm.5-.75c.11.02.22.04.35.04-.08.39-.27 1.21-.69 1.53 0-.04-.01-.09-.02-.14.27-.6.35-1.17.36-1.44Zm2.66-5.42c-.32.18-1.88 1.33-2.19 2.49.94.6 1.74.75 1.95.78-.02.01-.72.45-2.49.24 1.15.55 2.23.34 2.49.29-.16.2-.58.95-1.95 1.01-.75.03-1.95-.74-2.01-.78.05-.02 1.1-.46 1.72-1.35-.48.46-1.09.8-1.69.98-.68.2-1.03.47-1.04.48-.28.07-.54.12-.81.18.22-.4.52-.74.9-.91.22-.12.54-.09.9-.22.33-.11.63-.28.9-.48.54-.4.96-.95 1.23-1.56.36-.81.46-1.67.41-2.53.26-.03.51-.08.76-.13.03.31.06 1.34-.56 2.25.92-.7 1.12-1.97 1.15-2.42.15-.05.56-.22.62-.25 0 .22 0 1.02-.59 1.94.78-.69 1.09-1.91 1.13-2.32.07-.06.14-.11.2-.18.01.02.11 1.84-1.03 2.5Zm-.44 1.21c-.15.45-.24.88-.31 1.28-.22-.07-.41-.15-.6-.24.32-.62.87-1.01.91-1.04Zm-3.92-7.84c-.18-.51-.91-.51-.92-.51.22-.27.58-.45.58-.45-1.27.19-1.71.97-1.71.97-.16-.44.52-.98.64-1.09l-.48-.24 1.29-.41.14.22-.37.35 1.31-.44-.53-.25.69-.48-1.09.29.1-.21 1.1-.25c.14.13.74.78.86.94.26-.38.66-.44.73-.44.47 0 .85.38.85.85 0 .34-.21.64-.5.77-.11.05-.22.08-.35.08-.03 0-1.15-.68-2.31.04.35-.05.99.05 1.3.19-.01 0-.31-.03-1.08.34.35-.05.76-.04 1.08.09-.3.05-.59.15-.84.29.24-.03.47-.02.7 0-.38.25-.88.48-1.54.69-.24.08-.46.16-.69.25l-.06-.08c1.25-.41 1.2-1.24 1.09-1.55Zm-.14 2.01c1.38-.44 2.24-.99 2.62-1.66.76-.08 1.37-.7 1.37-1.49 0-.84-.68-1.52-1.52-1.52-.24 0-.45.07-.65.16-.13-.15-.25-.29-.41-.44.12-.58.34-1.21.71-1.55.21-.2.45-.3.74-.27.37.02.88.12 1.43.24 1.33.28 2.94.61 4.21.09-.13.41-.33.78-.54 1.1-.29-.08-1.97-.38-3.82.36 4.16-.63 4.57 1.14 4.7 1.61.14.46.27.98.53 1.45.27.49 1.01 1.09 1.7 1.23 0 0-1.03.88-2.18.82.13-1.01-.05-2.11-.81-2.87-.98-.96-2.34-1.17-3.55-1.05 5.92.67 2.49 5.95 2.98 6.87-.15-.08-1.03-.44-1.69-1.37.25-.48.32-1.04.2-1.54-.21-1-1.01-1.94-2.01-1.96.91.3 1.42 1.21 1.51 2.04.1.87-.35 2.74-4.84 2.59.35-.15 2.8-.93 2.41-2.81-.01.96-.72 1.64-1.53 1.89-.85.25-2.02.57-2.74 1.17.46-1.65 1.39-1.97 2.47-2.33-.57-.08-1.6-.07-2.68 1.19-1.48.36-2.13 1.27-2.2 1.34.4-1.51 1.55-2.64 3.57-3.28Zm-5-.14c.47.51 1.15.85 2.01 1.04-.42.38-.74.8-.95 1.25-.02-.08-.12-.92-.04-1.26-.18.3-.38.99-.37 1.22-.05-.14-.17-1.11-.09-1.45-.18.3-.34.89-.37 1.21-.06-.16-.19-1.17-.12-1.51-.17.29-.29.62-.34.97-.05-.14-.18-1.12-.1-1.46-.29.51-.36 1.04-.36 1.06-.05-.13-.16-1.08-.09-1.42-.13.22-.22.47-.29.73-.1-.31-.12-.92-.04-1.26-.15.26-.26.56-.32.87a2.22 2.22 0 0 1-.1-1.06c1.04-.69.35-1.34.35-1.34-.01.46-.44.66-.62.08-.03-.2-.03-.35.03-.56.18-.62.84-.3.87-.27.26.23.28.9.23 1.28 0 .04-.1 1.03.69 1.9Zm1.01-4.48c.32-.62 1.17-.41 1.58-.31.43.1.9.02 1.27-.19.13-.07.23-.17.34-.26-.38.84-1.16.89-1.55.87-.27-.02-.6-.04-.91.04-.12.03-.24.07-.36.14.1.09.19.2.27.31.05.07.11.14.15.22.25.45.28 1.01.16 1.53-.06.26-.15.52-.27.76-.1.19-.13.4-.15.6-.03-.1-.06-.2-.07-.3-.01-.31.1-.59.23-.89.23-.66.11-1.43-.33-1.93.26.6.32 1.26.1 1.84-.1.29-.25.65-.18 1 .02.14.07.26.14.38-.07-.03-.15-.06-.21-.1-.26-.19-.33-.49-.26-.81.06-.32.18-.64.28-.98.34-1.24-.83-1.69-1.26-1.61-.37.05-.66.22-.93.43a1.08 1.08 0 0 0-.53.02c-.11.03-.21.07-.29.11-.02-.01-.03-.02-.05-.04 1.26-1.64 2.72-.87 2.83-.81Zm-2.43-3.15c.15.21.3.4.44.59.11.15.73 1.19-.63 1.54.13-.59.2-2.02.19-2.13Zm-2.44-2.67c-.77-.52-2.22.08-2.01 1.29-.15-.21-.23-.44-.22-.68.02-.71.62-1.06 1.29-1.21.27-.06.55-.09.81-.09-.14-.17-.3-.32-.47-.44-.76-.58-1.72-.74-2.56-.73-.49 0-.98-.15-1.27-.5-.3-.34-.3-.88.01-1.24.3-.37.81-.56 1.32-.62.51-.06 1.04.02 1.57.1.25.03.5.06.76.04-.1.03-.2.06-.31.08-.35.07-.71.01-1.08 0-.38 0-.75.04-1.11.16-.33.12-.74.32-.79.72.27-.77 1.54-.77 1.89-.71 1.15.18 1.46.03 1.62-.03-.15.18-.4.58-2.1.53-.04 0-.57-.02-.83.18-.29.26-.08.61.08.78-.13-.22-.17-.55.03-.62.1-.05.21-.07.34-.06a.65.65 0 0 0-.07.21c0 .18.17.27.29.31.54.17 1.09.24 1.61.43a4.38 4.38 0 0 1 2.44 2.03c.74 1.26.86 2.75.58 4.16-.08-.24-.23-.47-.42-.65.02-.23.19-2.34-1.4-3.4Zm-5.29 7.5c.6-.12 1.28-.05 1.92.08.63.17 1.43.32 2.17.17.76-.12 1.51-.7 1.72-1.45.13-.37.16-.81-.04-1.19-.19-.38-.62-.62-1.04-.57-.1.01-.19.05-.28.09.52-.79 1.22-.62 1.53-.42-.71-.7-1.42-.11-1.56.02.03-.07.06-.15.11-.21.29-.39.83-.57 1.29-.42.46.13.8.56.87 1.08.02.15.09.79-.45 1.65.37-.27.69-.66.85-1.13 1.79-.15 1.98-1.36 1.89-1.65-.06-.27-.18-.46-.3-.65-.24-.36-.5-.67-.67-.99-.19-.33-.25-.58-.09-.77.16-.23.53-.39.87-.55-.32.16-.63.4-.66.84 0 .29.2.49.33.67.14.19.27.37.4.56.26.37.47.79.47 1.22 0 .44-.25.85-.58 1.18.39-.25.74-.66.78-1.17.04-.51-.2-.98-.46-1.37-.24-.39-.67-.75-.74-1.11-.02-.29.2-.54.47-.75-.06.1-.12.19-.14.32-.07.24 0 .54.1.74.23.4.49.63.7.92.49.56.65 1.09.49 1.78-.06.26-.17.51-.29.76-.39-.11-1.79-.3-2.84 1.23-.41.02-.8.34-.91.81-.1.43.05.84.34 1.07-.33.32-.74.53-1.18.53-.36 0-.73-.07-1.09-.2-.36-.12-.68-.32-1.13-.47-.42-.12-.89-.22-1.39-.08-.5.12-.94.67-.88 1.19.01.19.07.35.13.5-.1-.04-1.4-.41-.72-1.44.16-.25.47-.39.79-.4-.32-.04-.66.05-.92.29-.25.23-.52.81-.24 1.29-.33-.21-.57-.49-.57-.85-.03-.64.33-1.04.95-1.15Zm-6.78.32h4.61c.23 0 .41.19.41.41s-.19.41-.41.41H45.7c-.23 0-.41-.19-.41-.41s.19-.41.41-.41ZM37 25.58a4.38 4.38 0 0 1 2.44-2.03c.52-.19 1.07-.26 1.61-.43.12-.04.3-.14.29-.31 0-.08-.04-.15-.07-.21.12 0 .24.01.34.06.21.07.16.4.04.62.16-.17.37-.52.07-.78-.25-.2-.79-.18-.83-.18-1.7.06-1.95-.34-2.1-.53.17.06.48.21 1.62.03.35-.06 1.62-.06 1.89.71-.05-.39-.46-.59-.79-.72-.36-.12-.73-.17-1.11-.16-.38 0-.73.06-1.08 0-.1-.01-.21-.04-.31-.08.26.03.52 0 .76-.04.53-.08 1.06-.16 1.57-.1.5.06 1.01.25 1.32.62.31.36.31.9.01 1.24-.29.35-.78.5-1.27.5-.85 0-1.8.16-2.56.73-.17.13-.33.27-.47.44.26 0 .54.03.81.09.67.15 1.27.5 1.29 1.21.02.24-.07.48-.22.68.21-1.21-1.24-1.81-2.01-1.29-1.58 1.06-1.42 3.17-1.4 3.4-.19.19-.34.41-.42.65-.28-1.41-.16-2.89.58-4.16Zm-1.01 4.9c-1.37-.36-.75-1.39-.63-1.54.14-.19.29-.38.44-.59 0 .11.06 1.54.19 2.13Zm-1.92-2.14c.21-.29.47-.53.7-.92.11-.2.17-.5.1-.74-.03-.13-.09-.22-.14-.32.27.21.49.46.47.75-.07.36-.5.72-.74 1.11-.25.39-.49.86-.46 1.37.03.52.39.92.78 1.17-.33-.33-.59-.74-.58-1.18 0-.44.21-.85.47-1.22.12-.19.26-.38.4-.56.12-.18.32-.38.33-.67-.03-.44-.34-.68-.66-.84.34.15.71.32.87.55.16.2.11.45-.09.77-.18.32-.44.63-.67.99-.11.19-.23.38-.3.65-.09.29.1 1.5 1.89 1.65.16.47.48.86.85 1.13-.54-.86-.47-1.5-.45-1.65.07-.52.41-.95.87-1.08.45-.15 1 .03 1.29.42.04.06.07.14.11.21-.14-.13-.84-.72-1.56-.02.32-.19 1.01-.36 1.53.42a.837.837 0 0 0-.28-.09c-.42-.06-.85.19-1.04.57-.2.38-.17.82-.04 1.19.21.75.97 1.33 1.72 1.45.74.15 1.54 0 2.17-.17.64-.13 1.32-.2 1.92-.08.62.11.98.52.95 1.15 0 .36-.24.64-.57.85.28-.48.01-1.06-.24-1.29-.25-.23-.6-.33-.92-.29.32.01.63.15.79.4.67 1.03-.62 1.4-.72 1.44.07-.15.12-.32.13-.5.07-.52-.38-1.07-.88-1.19-.5-.14-.97-.04-1.39.08-.45.15-.77.35-1.13.47-.36.13-.72.2-1.09.2-.44 0-.84-.21-1.18-.53.29-.22.44-.64.34-1.07-.11-.47-.5-.8-.91-.81-1.05-1.53-2.45-1.33-2.84-1.23-.12-.25-.23-.5-.29-.76-.16-.69 0-1.22.49-1.78Zm.33 3.44c-.42-.07-1.6.38-1.26 1.61.1.35.22.66.28.98.07.32 0 .62-.26.81-.06.04-.14.07-.21.1.07-.12.12-.24.14-.38.06-.35-.08-.71-.18-1-.22-.57-.16-1.23.1-1.84-.44.5-.56 1.27-.33 1.93.13.31.24.58.23.89 0 .1-.04.21-.07.3-.02-.21-.05-.41-.15-.6-.12-.23-.21-.5-.27-.76-.12-.52-.09-1.08.16-1.53.04-.08.1-.15.15-.22.08-.11.17-.22.27-.31-.11-.07-.23-.11-.35-.14-.32-.08-.64-.06-.91-.04-.39.02-1.17-.03-1.54-.87.11.1.21.19.34.26.37.21.84.29 1.27.19.41-.1 1.26-.32 1.58.31.12-.07 1.57-.83 2.83.81-.01.02-.03.02-.05.04-.08-.04-.18-.08-.29-.11-.21-.05-.39-.05-.53-.02-.27-.21-.56-.38-.93-.43Zm-.03 4.19c.79-.86.7-1.86.69-1.9-.05-.38-.02-1.05.23-1.28.04-.03.69-.35.87.27.07.22.07.37.04.56-.18.58-.61.38-.62-.08 0 0-.69.65.35 1.34.03.25.05.58-.1 1.06-.06-.31-.16-.61-.32-.87.08.34.06.95-.04 1.26-.06-.26-.15-.51-.29-.73.08.34-.04 1.29-.09 1.42 0-.02-.07-.55-.36-1.06.08.34-.05 1.32-.1 1.46-.05-.35-.17-.69-.34-.97.08.34-.05 1.35-.12 1.51-.03-.33-.19-.91-.37-1.21.08.34-.04 1.31-.09 1.45 0-.23-.19-.92-.37-1.22.08.34-.02 1.18-.04 1.26-.21-.45-.53-.87-.95-1.25.86-.19 1.54-.53 2.01-1.04Zm-5.9-4.37 1.09.25.1.21-1.09-.29.69.48-.53.25 1.31.44-.37-.35.14-.22 1.29.41-.48.24c.13.11.79.65.64 1.09 0 0-.43-.78-1.71-.97 0 0 .36.18.58.45-.01 0-.74 0-.92.51-.11.31-.15 1.15 1.09 1.55l-.07.08c-.22-.09-.45-.18-.69-.25-.66-.21-1.16-.44-1.54-.69.23-.03.46-.04.7 0-.25-.14-.53-.24-.84-.29.32-.13.73-.14 1.08-.09-.77-.36-1.06-.34-1.08-.34.32-.14.95-.24 1.3-.19-1.16-.73-2.28-.04-2.31-.04-.13 0-.24-.03-.35-.08-.3-.13-.5-.43-.5-.77 0-.47.38-.85.85-.85.07 0 .47.06.73.44.12-.17.72-.82.86-.94Zm-6.61 7.58c.49-.92-2.94-6.2 2.97-6.87-1.21-.12-2.57.09-3.55 1.05-.76.77-.94 1.86-.81 2.87-1.15.07-2.18-.81-2.18-.82.69-.14 1.43-.74 1.7-1.23.26-.47.4-.99.53-1.45.12-.47.54-2.24 4.7-1.61-1.85-.74-3.54-.44-3.82-.36-.21-.32-.41-.69-.54-1.1 1.26.52 2.88.19 4.21-.09.54-.11 1.06-.22 1.43-.24.29-.02.53.08.74.27.37.35.59.98.71 1.55-.16.15-.27.29-.41.44-.2-.1-.42-.16-.65-.16-.84 0-1.52.68-1.52 1.52 0 .78.61 1.41 1.37 1.49.38.67 1.24 1.22 2.63 1.66 2.01.64 3.17 1.77 3.57 3.28-.06-.07-.72-.99-2.2-1.34-1.08-1.26-2.11-1.27-2.68-1.19 1.08.37 2.01.69 2.47 2.33-.72-.6-1.88-.92-2.74-1.17-.81-.24-1.51-.93-1.53-1.89-.39 1.88 2.06 2.66 2.41 2.81-4.49.15-4.94-1.72-4.84-2.59.09-.83.6-1.74 1.51-2.04-1.01.03-1.8.96-2.01 1.96-.12.5-.05 1.06.2 1.54-.66.94-1.54 1.3-1.69 1.37Zm3 1.54c-1.14-.67-1.04-2.48-1.03-2.5.06.07.13.12.2.18.04.41.35 1.63 1.14 2.32-.59-.91-.59-1.72-.59-1.94.06.03.47.2.62.25.03.45.23 1.73 1.15 2.42-.62-.91-.59-1.94-.56-2.25.25.05.5.1.76.13-.05.86.05 1.73.41 2.53.27.6.69 1.15 1.23 1.56.27.2.57.37.9.48.36.13.68.1.9.22.38.17.67.51.9.91-.27-.05-.53-.1-.81-.18 0 0-.36-.29-1.04-.48-.61-.18-1.21-.51-1.69-.98.62.89 1.67 1.33 1.72 1.35-.06.04-1.26.81-2.02.78-1.37-.06-1.79-.81-1.95-1.01.26.06 1.34.27 2.49-.29-1.78.21-2.47-.23-2.49-.24.21-.03 1.01-.18 1.95-.78-.31-1.15-1.87-2.3-2.19-2.49Zm.44 1.21s.59.42.91 1.04c-.18.09-.38.17-.59.24-.07-.41-.17-.83-.31-1.28Zm-8 2.27c-1.1.87-.83 1.99-.83 2-.01-.01-.71-.54-.12-1.51-.29.14-.69.48-.69 1.32-.53.3-.87.07-.87.07s.28-1.76 1.3-2.36c.02 0 .54-.14.78-.54-.71.14-1.1-.04-1.12-.05.68-.06 1.13-.44 1.38-.71 0 0 .98 1.09.17 1.77Zm3.22 9.04s-1.71-.2-1.62-2.28c.05-1.31.48-2.45.96-3.61.12-.27.93-1.69 1.1-3.29.12-1.2-.28-2.35-1.08-3.08-.36-.34-.88-.53-1.4-.53-.67 0-1.24.32-1.54.85.21-.52.75-.95 1.33-1.05.66-.13 1.29.04 1.83.43 1.15.83 1.5 2.3 1.46 3.4-.05 1.66-1.09 3.54-1.09 3.54-.56 1.24-.87 2.28-.95 3.18-.01.13-.12 1.21.64 1.72.67.35 1.33.26 1.93-.23.5-.41 1.03-1.38 1.47-2.34.07.28.17.53.29.76-.94 2.85-3.08 2.56-3.32 2.52Zm2.92 1.39s.44.67 1.73.54c-1.12-.24-1.46-.78-1.5-.83.38.27 1.3.22 1.4.21.5-.08.92-.33 1.21-.76.57-.82-.06-1.51-.71-2.01-3.08-2.37-.25-6.04-.22-6.08.01 0 .03.02.05.03.39.25.78.38 1.15.44-.35.68-.39 1.52-.18 2.28.24.85.85 1.57 1.58 2.06.7.45 1.3.98 1.7 1.65-.55-.52-1.2-.91-1.84-1.19-.72-.33-1.36-.88-1.71-1.61-.33-.72-.46-1.63-.12-2.4-.41.74-.39 1.68-.11 2.5.3.83.95 1.51 1.71 1.95.73.41 1.36.9 1.81 1.53.01.02.02.04.04.07-.6-.59-1.35-1-2.08-1.28-.73-.3-1.4-.82-1.78-1.53-.37-.71-.53-1.6-.24-2.39-.37.76-.31 1.7.01 2.5.34.81 1.02 1.47 1.8 1.87.28.14.53.3.77.47.11.11.29.36.37.74-.33-.46-.86-.93-1.71-1.13.1.05 2.78 1.48-.71 3.54.2 0 .4-.03.6-.05v2.49c.94-.31 2.33.07 2.38.7-.54-.59-1.34-.53-1.68-.37.38-.05 1.14.13 1.33.81-.07.03-.13.06-.22.09-.09-.12-.61-.85-1.44-.55.38.03.74.12.98.64-1.01.13-2.37.03-2.37.03v-3.22c-1.53-.35-1.91-1.52-2-1.72Zm9.14 19.13c.31 0 .63-.04.97-.14 1.24-.34 2.14-1.11 2.58-2.23 0 .13 0 .26-.02.38-.04.48-.24.91-.56 1.28-.33.37-.76.68-1.24.97.55-.05 1.12-.23 1.58-.6l.05-.05h1.14c-.24.12-.48.25-.72.36-.54.26-1.1.49-1.68.64-1.14.32-2.34.41-3.42.03-1.09-.34-1.97-1.19-2.42-2.25-.23-.53-.35-1.12-.33-1.7 0-.58.16-1.2.63-1.61-.23.12-.4.31-.54.52-.15.08-.34.18-.57.31.59-1.61 2.25-2.05 2.74-2.14.55.19 1.24.32 2.07.35-.15.12-.31.23-.48.36-.64-.31-1.82-.44-2.79.83-.63.81-.56 2.08.16 3.15.54.81 1.54 1.54 2.84 1.54Zm-.84-5.06c-.54.37-1.17.76-1.84 1.14.05-.13.11-.26.19-.37.6-.79 1.23-.85 1.65-.77Zm-1.78 2.57c-.08-.22-.14-.44-.16-.66 1.78-.95 3.17-1.97 4.09-2.73.36-.02.75-.06 1.16-.11-1.25 1.24-2.9 2.44-5.09 3.5Zm17.26-5.65c0-.16.05-1.26-1.1-2.05.43.45 1.14 1.58.06 3.08-.22.11-.47.2-.75.28.08-.1.79-.97.36-2.2.06.62-.09 1.76-1.55 2.34-.73-.03-1.23-.33-1.42-.85-.18-.49-.06-1.2.66-1.4-.32.36-.24 1.02.27 1.26 1.06.33 1.99-.9 1.53-1.85-.38-.87-1.25-1.4-2.13-1.52-.11-.02-1.33-.16-2.48.61.39-.15.8-.27 1.2-.32-.95 1.33-3 3.5-6.43 4.08-2.57.43-4.61.13-5.74-.83-.55-.47-.86-1.1-.85-1.71.01-.72-.06-1.49-.13-2.13.16.16.29.34.41.54.02.04.03.08.05.12.16.3.26.62.32.96.06.35.09.72.1 1.11.16-.37.23-.77.22-1.19 0-.19-.03-.38-.08-.56.27-.6.75-1.29 1.63-1.83.77-.47 1.19-1.07 1.17-1.65-.02-.4-.25-.72-.62-.9-.62-.3-1.47-.13-2.29.45-1.35.96-4.09 1.9-5.42 1.32.64.01 1.32-.14 2.01-.58h.29c.77-.03 2.49.02 2.91-1.11.08-.23-.28-.63-.51-.8-.04-.03-.12-.08-.22-.14.16-.14.32-.27.49-.39 1.07-.8 1.72-1.48 3.14-1.55.34-.02.69.08 1.03.26.6.32.93.81.96 1.47.07 1.28-.96 2.99-2.4 3.98-1.22.83-1.76 2.3-1.26 3.41.28.61 1.28 1.96 4.68 1.11l.11-.03c3.05-.84 3.95-2.35 3.95-2.35-1.05.88-2.44 1.35-3.36 1.59.04 0 .11-.12.13-.15.05-.06.1-.11.15-.17l.33-.36c.26-.28.54-.54.82-.8.71-.64 1.47-1.21 2.3-1.67.5-.28.84-.45 1.38-.63.26-.09.63-.21.9-.27.67-.15 1.29.06 1.59.2.55.24 1.18.56 1.74.8.3.13.59.26.89.38l.45.18c.08.03.16.06.23.09.03.01.18.05.2.08.16.32.56 1.31.07 2.32ZM54.11 63c.41.06.81.17 1.2.32-1.15-.76-2.37-.62-2.48-.61-.88.11-1.75.65-2.13 1.52-.46.94.48 2.18 1.53 1.85.5-.24.59-.9.27-1.26.71.2.84.91.66 1.4-.19.52-.69.81-1.42.85-1.46-.59-1.6-1.72-1.55-2.34-.43 1.23.29 2.1.36 2.2-.28-.07-.53-.16-.75-.28-1.08-1.5-.37-2.63.06-3.08-1.15.79-1.1 1.89-1.1 2.05-.49-1.01-.09-2 .07-2.32.02-.03.16-.06.2-.08.08-.03.16-.06.23-.09l.45-.18c.3-.12.6-.25.89-.38.55-.24 1.19-.56 1.74-.8.3-.13.91-.35 1.59-.2.27.06.64.18.9.27.54.18.89.36 1.38.63.83.46 1.6 1.03 2.3 1.67.28.26.56.52.82.8l.33.36c.05.05.1.11.15.17.03.03.09.14.13.15-.92-.23-2.31-.7-3.36-1.59 0 0 .91 1.5 3.95 2.35l.11.03c3.39.85 4.4-.5 4.68-1.11.5-1.11-.04-2.57-1.26-3.41-1.44-.99-2.48-2.7-2.4-3.98.04-.66.36-1.15.96-1.47.34-.18.68-.28 1.03-.26 1.41.07 2.07.75 3.14 1.55.16.12.33.26.49.39-.02 0-.04.02-.05.03-.07.04-.12.07-.15.09 0 0-.01 0-.02.01-.22.16-.59.56-.5.79.18.44.53.7.94.86.03.01.06.02.08.03l.1.03c.06.02.13.04.19.05.07.02.15.03.22.04h.02c.14.02.28.04.42.05h.11c.18.01.34.02.5.02.12 0 .24 0 .33.01H69.76c.69.44 1.37.59 2.01.58-1.34.58-4.07-.37-5.42-1.32-.82-.58-1.68-.75-2.29-.45-.37.18-.6.51-.62.9-.03.58.4 1.18 1.17 1.65.88.54 1.36 1.22 1.63 1.83-.05.19-.08.37-.08.56 0 .41.06.82.22 1.19 0-.38.03-.75.1-1.11.06-.34.17-.66.32-.96.02-.04.03-.08.05-.12.11-.19.25-.37.41-.54-.08.64-.15 1.41-.13 2.13 0 .61-.3 1.24-.85 1.71-1.12.97-3.16 1.26-5.74.83-3.43-.57-5.48-2.75-6.43-4.08Zm6.82 4.77c.41.05.8.09 1.16.11.91.76 2.3 1.78 4.09 2.73-.02.22-.07.44-.16.66-2.19-1.07-3.84-2.26-5.09-3.5Zm3.31.93c.42-.08 1.05-.02 1.65.77.08.11.14.24.19.37-.67-.38-1.3-.76-1.84-1.14Zm3.22 1.76c.02.58-.1 1.17-.33 1.7-.45 1.06-1.33 1.91-2.42 2.25-1.08.38-2.28.28-3.42-.03-.57-.15-1.13-.38-1.68-.64-.24-.11-.48-.24-.72-.37h1.14s.03.04.05.06c.46.38 1.03.55 1.58.6-.48-.29-.91-.6-1.24-.97-.32-.37-.51-.8-.56-1.28-.02-.13-.02-.25-.02-.38.44 1.11 1.33 1.89 2.58 2.23.34.1.67.14.97.14 1.31 0 2.3-.73 2.84-1.54.72-1.06.78-2.33.16-3.15-.97-1.27-2.15-1.14-2.79-.83-.17-.12-.33-.24-.48-.36.83-.03 1.52-.16 2.07-.35.49.1 2.15.53 2.74 2.14-.23-.13-.42-.23-.57-.31-.14-.22-.31-.41-.54-.52.47.41.62 1.03.63 1.61Zm17.77.73c-2.94 2.69-9.09 4.27-17.56.81.05-.2.09-.39.11-.6 2.24.99 4.95 1.79 8.04 1.89h.58c5.76.03 8.78-2.53 9.62-4.8.59-1.58.23-3.22-.93-4.55-.18-.2-.37-.4-.59-.59 0 .27-.04.53-.09.77-.34 1.51-1.54 2.4-2.68 2.91.2-.3.38-.61.51-.94.2-.47.3-.96.27-1.46-.23.42-.5.8-.81 1.12-.47.48-1.02.84-1.65 1.07-1.23.46-2.6.38-3.73.16.29-.25.53-.5.75-.76.51-.58.84-1.12 1.03-1.49-.47.45-.95.79-1.45 1-.98.42-2 .43-2.89.27.78-.37 1.58-1.02 2.3-2.13.53-.82 1.3-1.67 2.33-1.99 2.58-.8 4.3-.82 5.63-.38 1.43.47 2.52 1.86 3.08 3.6.69 2.14 0 4.34-1.86 6.06Z"></path><path d="M69.11 33.5c.29 0 .53-.24.53-.53s-.24-.53-.53-.53a.47.47 0 0 0-.26.08c.12 0 .23.06.31.14h-.01c-.17 0-.3.14-.3.32s.13.32.3.32a.47.47 0 0 1-.3.14c.08.04.16.08.26.08zm-42.22-1.07c-.29 0-.53.24-.53.53s.24.53.53.53a.47.47 0 0 0 .26-.08c-.12 0-.22-.06-.3-.14.17 0 .3-.14.3-.32s-.13-.32-.3-.32h-.01c.08-.08.19-.14.31-.14a.567.567 0 0 0-.26-.08zm25.01-5.88c-.44.56 0 1.41 0 1.41-1.64-.6-1.61 1.06-1.61 1.06s.32-.47.82-.19.31 1.14-.09 1.39c-.3.18-1.63.6-1.85-1.07s1.6-2.03 1.6-2.03c-.45-.44-1.04-.27-1.04-.27.08-1.19-.94-1.11-.94-1.11.26-1.55-.79-2.22-.79-2.22s-1.05.67-.79 2.22c0 0-1.02-.08-.95 1.11 0 0-.59-.17-1.04.27 0 0 1.82.36 1.61 2.03-.22 1.67-1.55 1.25-1.85 1.07-.4-.25-.59-1.11-.09-1.39s.82.19.82.19.03-1.66-1.61-1.06c0 0 .44-.85 0-1.41-.44-.57-1.8-1.07-1.8-1.07s.96 2.11 1.27 3.62l.42 2.01c.03.16.16.29.33.32.56.1 1.95.33 3.69.33a20.17 20.17 0 0 0 3.69-.33c.16-.03.29-.15.33-.32l.42-2.01c.31-1.51 1.27-3.62 1.27-3.62s-1.36.5-1.8 1.07zm-8.23 1.69l-.11-.58-.17-.56c-.07-.18-.15-.36-.24-.53s-.19-.34-.31-.5a1.72 1.72 0 0 1 .41.44c.11.17.21.35.28.54a2.435 2.435 0 0 1 .15 1.19zm.58.38c-.08.12-.13.26-.16.41s-.04.31-.05.48c-.06-.15-.08-.32-.08-.49a.88.88 0 0 1 .15-.49c.03-.03.06-.07.09-.1s.07-.06.11-.08a.61.61 0 0 1 .25-.08c.09-.02.17 0 .25 0l.24.07h-.35l-.11.04c-.15.03-.27.11-.35.23zm3.74 2.18c-.11 0-.19-.13-.19-.28s.09-.27.19-.28c.11 0 .2.13.2.28s-.09.28-.2.28zm0-1.19c-.17 0-.3-.19-.3-.42s.14-.42.3-.42c.17 0 .31.19.31.42s-.14.42-.31.42zm.66-2.52a1.16 1.16 0 0 0-.49.49l-.18.32-.18-.32a1.16 1.16 0 0 0-.49-.49l-.32-.18.32-.18a1.16 1.16 0 0 0 .49-.49l.18-.32.18.32a1.16 1.16 0 0 0 .49.49l.32.18-.32.18zm3.21 2.42c0-.16-.02-.32-.05-.48-.03-.15-.07-.3-.16-.41-.08-.12-.2-.2-.35-.23a.36.36 0 0 0-.11-.02h-.11c-.08-.02-.16-.01-.24-.02.08-.03.16-.05.24-.07.08 0 .17-.03.25 0 .09 0 .17.05.25.08.04.02.07.05.11.08.03.03.06.07.09.1a1 1 0 0 1 .15.49c0 .17-.02.34-.08.49zm.66-2.41c-.07.18-.13.36-.17.56-.05.19-.08.38-.11.58-.03-.2-.04-.4-.01-.6.02-.2.08-.4.15-.59s.17-.37.28-.54a1.9 1.9 0 0 1 .41-.44l-.31.5c-.09.17-.17.35-.24.53z"></path></g><path d="M44.16 51.27V47.4c0-1.97 1.17-2.53 1.8-2.53-.98 0-1.8-.91-1.8-2.12v-1.92c.06-.58.9-.78 1.37-.91h-3.66c.46.12.95.46 1.06.91v1.92c0 1.08.89 1.95 2.04 2.12-1.17.31-2.04 1.21-2.04 2.72v3.68c-.11.45-.6.78-1.06.92h3.66c-.46-.14-1.21-.34-1.37-.92zm7.69 0V47.4c0-1.97-1.17-2.53-1.8-2.53.98 0 1.8-.91 1.8-2.12v-1.92c-.06-.58-.9-.78-1.37-.91h3.66c-.46.12-.95.46-1.06.91v1.92c0 1.08-.89 1.95-2.04 2.12 1.17.31 2.04 1.21 2.04 2.72v3.68c.11.45.6.78 1.06.92h-3.66c.46-.14 1.21-.34 1.37-.92zm-3.83-4.72l-.58.9c-.39.6-.66 1.1-.66 1.55a1.16 1.16 0 0 0 .53.99c.15.12.37.2.65.2.66 0 1.18-.54 1.18-1.19s-1.11-2.44-1.11-2.44zm-.42 3.3c-.35 0-.69-.35-.69-.85 0-.38.24-.84.6-1.41.39.66.72 1.23.72 1.59s-.24.68-.62.68zm-1.44-9.93c.75.19 1.67.92 1.84 1.83.18-.92 1.09-1.64 1.84-1.83h-3.69zm2.02 3.8v2.3c.03-.23.29-.49.58-.7a2.5 2.5 0 0 1 1.08-.44l-.07-.01c-.34-.06-.67-.2-.96-.4-.31-.22-.6-.5-.64-.74zm-1 .74c-.29.2-.62.34-.96.4h-.07v.01a2.5 2.5 0 0 1 1.08.44c.29.21.55.47.58.7v-2.3c-.03.23-.33.51-.64.74z" fill="#fff"></path><path d="m48.18 37.43-.18-.32-.18.32c-.11.21-.28.38-.49.49l-.32.18.32.18c.21.11.38.28.49.49l.18.32.18-.32c.11-.21.28-.38.49-.49l.32-.18-.32-.18c-.21-.11-.38-.28-.49-.49ZM48.18 53.36l-.18-.32-.18.32c-.11.21-.28.38-.49.49l-.32.18.32.18c.21.11.38.28.49.49l.18.32.18-.32c.11-.21.28-.38.49-.49l.32-.18-.32-.18c-.21-.11-.38-.28-.49-.49ZM56.63 46.23l.32-.18-.32-.18c-.21-.11-.38-.28-.49-.49l-.18-.32-.18.32c-.11.21-.28.38-.49.49l-.32.18.32.18c.21.11.38.28.49.49l.18.32.18-.32c.11-.21.28-.38.49-.49ZM40.7 46.23l.32-.18-.32-.18c-.21-.11-.38-.28-.49-.49l-.18-.32-.18.32c-.11.21-.28.38-.49.49l-.32.18.32.18c.21.11.38.28.49.49l.18.32.18-.32c.11-.21.28-.38.49-.49Z" fill="#daa351"></path></svg> 