<svg xmlns="http://www.w3.org/2000/svg" xmlns:v="https://vecta.io/nano" viewBox="0 0 1080 1080"><path fill="#14254c" d="M-2.5-2.5h1085v1085H-2.5z"/><g fill="#fff"><path d="M954.51 716.6c-7.46-23.12-20.67-37.57-43.08-43.53-6.41-1.7-23.4-.95-27.01-.54-10.29 1.17-19.69 2.33-29 5.82-12.02 4.51-21.48 13.78-27.99 23.82-9.52 14.57-20.32 20.74-29.7 23.02a41.285 41.285 0 0 1-15.04.77c3.73 1.84 8.82 4.02 15.04 5.87 6.43 1.94 13.88 3.46 21.79 3.51 3.22.02 6.49-.23 9.78-.76-.66.52-1.25 1.1-1.91 1.6-2.28 1.69-4.8 3.26-7.44 4.72 2.6.88 5.45 1.73 8.71 2.52 7.04 1.72 15.35 3.11 24.08 3.16 7.94.05 16.22-1.01 24.15-3.94 2.2-.8 4.18-1.99 6.23-3.05l-2.6 3.11c-2.94 3.27-5.98 6.18-8.83 8.74 2.81-.5 7.38-1.5 12.69-3.17 14.31-4.47 34.02-14.2 40.92-34.02 8.19 11.29 10.19 24.32 5.45 37.24-8.96 24.16-43.25 47.94-100.05 45.7-32.46-1.14-60.82-9.72-84.02-20.36-.04-.98-.08-1.95-.23-2.9-.24-1.41-.6-2.86-1.02-4.29l11.5 6.48c-.12-1.91-.27-3.72-.6-5.44-3.33-18.82-17.61-27.31-27.45-31.02a43.38 43.38 0 0 0 6.28-4.45c7.25-6.24 11.31-14.62 11.18-23.01-.17-10.07 1.31-21.58 2.37-28.6l.35-2.29c-2.36.69-4.68 1.63-6.82 2.93-.14.04-.23.18-.39.25-3.16 1.98-5.85 4.75-7.96 7.93-3.52-5.89-8.86-12-16.99-16.99-5.83-3.53-9.2-7.74-9.02-11.23.1-2.13 1.54-3.26 2.72-3.84 3.27-1.54 9.53-1.33 17.23 4.14 14.68 10.45 49.4 23.74 66.24 13.11 2.23-1.39 4.51-3.56 6.25-6.67 1.17-2.08 2.05-4.68 2.5-7.81-2.3.98-4.77 1.83-7.41 2.4-4.07.91-8.48 1.18-13.05.36V630.9c3.33-1.7 6.1-3.47 8.43-5.3.76-.57 1.48-1.16 2.13-1.77 2.2-1.96 3.88-3.94 5.17-5.89a23.67 23.67 0 0 0 1.33-2.22c2.66-5.04 2.94-9.83 2.57-13.53l-.18-1.53a26.73 26.73 0 0 0-.24-1.39l-.31-1.5c-.09-.44-.2-.85-.28-1.2-.13-.55-.22-.98-.22-1.24-.54.37-9.41 7.76-20.47 6.02-.07-.02-.15-.02-.22-.04-.76-.13-1.5-.31-2.18-.57-2.25-.81-4.1-2.27-5.64-4.45-.98-1.39-1.24-2.59-.63-4.03a7.72 7.72 0 0 1 .2-.41c.28-.55.7-1.15 1.22-1.81.39-.48.85-1 1.39-1.55.18-.18.37-.39.57-.59l.61-.61c.42-.43.89-.87 1.37-1.35h.02l1.66-1.57c2.77-2.59 6.01-5.62 8.92-9.28 11.09 28.57 39.03 26.52 40.38 26.24 0 0 23.19-2.07 22.64-30.67-.3-14.95-5.23-27.55-10.59-40.3-7.91-16.04-10.51-26.7-10.9-32.21-1.09-10.44 2.29-20.29 9.09-26.37 2.55-2.37 6.26-3.79 9.98-3.79 2.24 0 7.69.57 10.37 5.99.68 1.35 1.02 2.94 1.24 4.6-.79.55-19.94 11.01-4.79 25.96 2.62 2.98 13.75 11.12 6.41 27.26 6.52-1.15 11.36-4.53 13.45-7.15 10.03 5.17 22.1-.7 24.08-1.85-6.39-2.73-10.18-15.65-10.18-15.65-.76-2.18-3.46-8.02-7-12.34.26-.11 6.91-1.64 8.48-9.68-14.88-.67-17.57-7.35-17.98-7.95 0-2.94-.24-5.8-1.13-8.52-2.79-8.26-10.61-14.88-19.42-16.45-8.43-1.72-17.3.52-24.45 5.65-12.1 8.7-18.41 24.17-18.15 41.41.2 12.84 11.99 39.58 11.99 39.58 5.51 12.16 8.57 22.27 9.39 31.69.76 8.3-3.14 10.46-3.25 10.57-4.14 2.14-8.35 1.63-12.44-1.7-6.15-5.03-14.25-22.99-19.33-35.66-1.42-8.44-8.76-23.75-13.88-32.58 3.77-3.92 11.2-17.94 12.01-20.22-2.7.48-5.95 1.59-13.66.39 1.11-6.82 3.36-14.43 6.78-22.78 7.32-6.45 12.6-13.12 13.73-21.12 9.04 7.87 23.19 9.07 24.61 8.98-9.61-8.5.76-32.06.98-32.89 20.79-1.79 31.45-16.28 32.17-17.52-19.03-3.55-22.25-17.28-24.78-27.42-2.96-13.21-9.22-15.56-9.65-15.84 8.89-13.93 8.02-26.28 7.48-29.9-1.74 2.86-8.89 18.13-50.5 7.91-6.17-1.52-11.57-2.42-15.98-2.62-4.79-.22-9.17 1.39-12.75 4.73-4.32 4.05-9.18 18.92-9.48 20.33l-13.93 3.22-2.75 5.53-16.24 5.19 2.25 8.54c-8.56 8.04-.48 19.55-.2 19.9 10.59-17.26 18.57-9.96 19.13-9 5.45 9.61-16.52 10.57-16.52 10.57l5.73 6.86a73.421 73.421 0 0 0-10.99 6.38c-10.02-1.4-17.76-4.58-22.62-9.83-6.62-7.13-5.91-15.26-5.88-15.52.17-1.24 1.26-11.64-3.38-17.07 4.25-3.14 9.55-4.29 12.92.18 4.34 4.12.04 11.88-.7 19.05-.65 3.7.7 8.5 4.25 10.55 1.48.89 2.99 1.4 4.53 1.87.72.22 1.42.41 2.18.55-.06-.41-.24-.79-.24-1.22-.02-.15.04-.33.04-.5-.02-2.55.63-5.19 1.77-7.32 1.57-2.72 2.64-5.49 3.46-8.44 1.59-5.84 1.59-12.49-1.24-18.26-.39-.74-.87-1.4-1.31-2.11 2.16-.59 4.53-.91 7.13-.94 4.62-.18 14.34-2.33 17.83-14.12-.26.2-7.74 7.71-17.78 4.32-3.86-1.31-8.81-3.01-13.66-1.61-1.74.46-3.2 1.48-4.68 2.46-.22-.09-.44-.22-.65-.33 14.06-14.58 2.16-28.6-.17-31.78-16.13-18.26-1.64-23.04-.55-24.48-25.67 4.45-26.48 9.66-26.76 10.09-1.53-4.19-3.34-8.24-5.75-11.97-6.26-10.14-16.54-17.98-27.9-21.05-5.62-1.76-11.55-2.22-17.04-3.64-1.33-.41-2.7-1.11-2.7-2.42.04-.74.31-1.44.7-2.14 1.07.04 2.18.13 3.27.22 5.45.5 11.2.92 17.04-.67 13.91-3.81 10.96-18.11 10.9-18.61-.39 1.07-1.9 9.57-15.95 6.23-10.4-2.48-23.78-4.29-33.04 4.95-4.51 4.47-5.1 12.68-.92 17.85 3.97 5.3 10.53 7.45 16.46 7.78 6.74.11 13.53 1.87 19.03 4.97-1.02.42-12.53 3.55-11.77 15.76.18 4.32 5.41 11.35 9.55 13.16-.17-.7-2.31-15.65 9.17-14.64 1.74.17 16.54 4.23 17.57 27.42-.89-.44-1.72-1.05-2.7-1.35-7.59-2.38-16.56 1.16-20.01 8.37-2.05 4.56-2.29 9.26-.42 16.28.44-.74 2.99-4.77 7.34-4.79 6.49-.06 9.13 7.56 6.12 13.03-2.59 6.01-7.8 9.79-14.21 10.64-6.6 1.03-12.81-.09-20.1-2.12-29.29-5.75-34.44 7.21-34.76 7.76-2-3.16-5.34-5.38-9.33-5.38h-48.1c-3.99 0-7.34 2.22-9.33 5.38-.31-.55-5.45-13.51-34.76-7.76-7.28 2.03-13.51 3.16-20.11 2.12-6.41-.85-11.62-4.64-14.19-10.64-3.03-5.47-.39-13.08 6.1-13.03 4.34.02 6.89 4.05 7.35 4.79 1.85-7.02 1.61-11.72-.44-16.28-3.46-7.21-12.42-10.75-20.01-8.37-.96.3-1.81.91-2.7 1.35 1.02-23.19 15.84-27.26 17.59-27.42 11.46-1.02 9.31 13.93 9.15 14.64 4.14-1.81 9.37-8.83 9.55-13.16.76-12.21-10.74-15.34-11.77-15.76 5.51-3.1 12.29-4.86 19.05-4.97 5.91-.33 12.47-2.48 16.43-7.78 4.19-5.17 3.6-13.38-.91-17.85-9.28-9.24-22.64-7.43-33.04-4.95-14.04 3.34-15.54-5.16-15.95-6.23-.06.5-3.01 14.8 10.9 18.61 5.84 1.59 11.59 1.16 17.04.67 1.09-.09 2.2-.18 3.27-.22.39.7.68 1.4.7 2.14 0 1.31-1.37 2.01-2.7 2.42-5.49 1.42-11.42 1.88-17.04 3.64-11.36 3.07-21.64 10.9-27.9 21.05-2.4 3.73-4.21 7.78-5.75 11.97-.28-.43-1.07-5.64-26.76-10.09 1.09 1.44 15.58 6.23-.55 24.48-2.31 3.18-14.23 17.2-.15 31.78-.22.11-.44.24-.67.33-1.48-.98-2.94-2-4.66-2.46-4.88-1.4-9.81.3-13.67 1.61-10.03 3.38-17.52-4.12-17.78-4.32 3.49 11.79 13.21 13.93 17.83 14.12 2.62.04 4.97.35 7.13.94-.44.7-.92 1.37-1.29 2.11-2.85 5.77-2.85 12.42-1.26 18.26.81 2.96 1.9 5.73 3.47 8.44 1.13 2.13 1.77 4.77 1.74 7.32 0 .17.09.35.06.5 0 .43-.18.81-.24 1.22a21.71 21.71 0 0 0 2.18-.55c1.55-.46 3.07-.98 4.53-1.87 3.57-2.05 4.92-6.86 4.27-10.55-.76-7.17-5.06-14.93-.7-19.05 3.34-4.47 8.67-3.33 12.9-.18-4.64 5.43-3.53 15.84-3.38 17.07.04.26.74 8.39-5.88 15.52-4.86 5.25-12.58 8.43-22.62 9.83-3.29-2.31-6.93-4.45-10.98-6.38l5.73-6.86s-21.99-.96-16.54-10.57c.55-.96 8.54-8.26 19.13 9 .26-.35 8.35-11.86-.18-19.9l2.24-8.54-16.22-5.19-2.77-5.53-13.93-3.22c-.28-1.4-5.16-16.28-9.48-20.33-3.58-3.34-7.96-4.95-12.73-4.73-4.44.2-9.83 1.11-16 2.62-41.61 10.22-48.77-5.04-50.5-7.91-.54 3.62-1.4 15.97 7.48 29.9-.43.28-6.69 2.62-9.65 15.84-2.53 10.14-5.75 23.87-24.78 27.42.72 1.24 11.38 15.73 32.19 17.52.2.83 10.57 24.39.96 32.89 1.44.09 15.58-1.11 24.61-8.98 1.13 8 6.41 14.67 13.75 21.12 3.4 8.35 5.67 15.97 6.78 22.78-7.72 1.2-10.98.09-13.67-.39.81 2.27 8.24 16.3 12.03 20.22-5.14 8.83-12.47 24.13-13.9 32.58-5.08 12.68-13.18 30.64-19.33 35.66-4.08 3.33-8.3 3.84-12.44 1.7-.13-.11-4.01-2.27-3.25-10.57.81-9.42 3.88-19.53 9.39-31.69 0 0 11.81-26.74 11.99-39.58.26-17.24-6.04-32.71-18.15-41.41-7.15-5.14-16.02-7.37-24.45-5.65-8.8 1.57-16.63 8.19-19.42 16.45-.89 2.72-1.13 5.58-1.13 8.52-.41.59-3.09 7.28-17.98 7.95 1.57 8.04 8.22 9.57 8.48 9.68-3.55 4.32-6.25 10.16-7 12.34 0 0-3.79 12.92-10.18 15.65 1.98 1.15 14.04 7.02 24.1 1.85 2.07 2.62 6.93 6.01 13.45 7.15-7.37-16.13 3.77-24.28 6.39-27.26 15.15-14.95-3.99-25.41-4.79-25.96.22-1.66.54-3.25 1.24-4.6 2.68-5.41 8.15-5.99 10.38-5.99 3.7 0 7.43 1.42 9.96 3.79 6.8 6.08 10.18 15.93 9.11 26.37-.41 5.51-2.99 16.17-10.92 32.21-5.34 12.75-10.29 25.35-10.59 40.3-.55 28.6 22.64 30.67 22.64 30.67 1.35.28 29.29 2.33 40.38-26.24 2.92 3.66 6.15 6.69 8.94 9.28 7.11 6.63 8.63 8.74 6.39 11.92-2.01 2.9-4.64 4.53-8.02 5.06-11.23 1.76-20.2-5.86-20.49-6.04 0 2.73-8.81 21.62 18.39 35.59v35.01c-4.58.82-8.99.54-13.07-.38-2.63-.57-5.11-1.42-7.41-2.4.45 3.13 1.33 5.73 2.5 7.81 1.74 3.12 4.02 5.28 6.25 6.67 16.84 10.62 51.56-2.66 66.24-13.11 7.7-5.46 13.96-5.68 17.23-4.14 1.18.58 2.62 1.71 2.72 3.84.18 3.49-3.2 7.7-9.02 11.23-8.13 4.99-13.47 11.1-16.99 16.99-2.1-3.18-4.8-5.96-7.96-7.93-.16-.07-.25-.2-.39-.25-2.14-1.3-4.46-2.24-6.82-2.93.09.7.24 1.45.35 2.29 1.06 7.02 2.54 18.53 2.37 28.6-.13 8.39 3.93 16.78 11.18 23.01a42.41 42.41 0 0 0 6.28 4.45c-9.84 3.71-24.12 12.2-27.45 31.02-.33 1.73-.48 3.54-.6 5.44 2.49-1.47 10.12-5.71 11.5-6.48-.42 1.43-.78 2.88-1.02 4.29-.15.95-.19 1.93-.23 2.9-23.2 10.64-51.56 19.21-84.02 20.36-56.8 2.24-91.09-21.54-100.05-45.7-4.75-12.92-2.74-25.94 5.45-37.24 6.9 19.82 26.61 29.54 40.92 34.02 5.31 1.67 9.88 2.66 12.69 3.17-2.85-2.57-5.88-5.47-8.83-8.74-.89-1.01-1.74-2.05-2.6-3.11 2.05 1.05 4.03 2.24 6.23 3.05 7.93 2.92 16.21 3.98 24.15 3.94 8.73-.05 17.04-1.44 24.08-3.16a105.07 105.07 0 0 0 8.71-2.52c-2.64-1.46-5.16-3.03-7.44-4.72-.66-.49-1.25-1.08-1.91-1.6a60.28 60.28 0 0 0 9.78.76c7.91-.05 15.36-1.56 21.79-3.51a96.013 96.013 0 0 0 15.04-5.87c-4.08.55-9.29.6-15.04-.77-9.38-2.28-20.18-8.45-29.7-23.02-6.51-10.04-15.97-19.31-27.99-23.82-9.31-3.49-18.72-4.65-29-5.82-3.6-.41-20.6-1.16-27.01.54-22.42 5.96-35.63 20.4-43.08 43.53-7.9 24.49.07 50.72 21.32 70.14 19.4 17.73 51.33 31.23 93.59 30.98 27.77-.16 60.07-6.39 96.14-21.09 4.65 11.65 14.68 21.22 26.77 25.12 13.06 4.37 27.22 2.88 39.44-1.8a93.839 93.839 0 0 0 26.5-15.37c1.71-1.42 3.41-2.9 5.03-4.43l-16.01.09c2.32-3.39 3.92-7.37 4.33-11.45.64-6.33-.71-12.44-3.08-17.87-.09-.2-.25-.41-.34-.61-1.68-3.78-3.99-7.16-6.61-10.28.19 2.15.34 4.26.31 6.28-.08 5.6-.96 10.68-2.77 15.28-3.82 9.64-11.62 16.33-22.51 19.34-15.3 4.19-26.84-3.42-32.61-11.94-.07-.16-.14-.29-.25-.41 27.2-13.27 46.72-28.57 60.7-44.41 38.79-8.51 60.33-34.59 68.96-47.95 1.52.1 3.06.23 4.54.54 8.1 1.77 15.68 6.89 18.79 14.26 1.65 3.41 1.06 7.29-1.28 10.28-2.18 2.96-6.3 5.07-9.38 4.11-3.04-.93-7.76-8.46 5.63-14.82-.27-.13-8.28-4.46-15.94.09-6.91 4.1-9.81 13.43-6.81 21.62 1.24 3.39 6.31 13.34 22.89 13.24 2.32-.01 29.88.05 37.16-24.3 7.27 24.36 34.84 24.29 37.16 24.3 16.57.1 21.64-9.85 22.89-13.24 3-8.19.1-17.53-6.81-21.62-7.66-4.56-15.67-.23-15.94-.09 13.38 6.36 8.67 13.88 5.63 14.82-3.09.96-7.2-1.15-9.38-4.11-2.34-2.98-2.93-6.86-1.28-10.28 3.11-7.37 10.68-12.5 18.79-14.26 1.48-.31 3.02-.44 4.54-.54 8.63 13.36 30.17 39.45 68.96 47.95 13.99 15.84 33.51 31.15 60.7 44.41-.11.11-.18.25-.25.41-5.76 8.51-17.3 16.13-32.61 11.94-10.89-3.01-18.69-9.7-22.51-19.34-1.81-4.59-2.69-9.67-2.77-15.28-.03-2.02.12-4.13.31-6.28-2.63 3.11-4.94 6.5-6.61 10.28-.09.2-.25.41-.34.61-2.37 5.43-3.72 11.54-3.08 17.87.41 4.08 2.02 8.06 4.33 11.45l-16.01-.09c1.62 1.53 3.31 3.01 5.03 4.43a93.839 93.839 0 0 0 26.5 15.37c12.22 4.68 26.38 6.16 39.44 1.8 12.09-3.9 22.12-13.47 26.77-25.12 36.07 14.7 68.37 20.92 96.14 21.09 42.26.25 74.2-13.25 93.59-30.98 21.25-19.42 29.22-45.65 21.32-70.14zm-803.24 65.23c-19.56-17.86-26.68-40.92-19.47-63.21 5.86-18.22 17.3-32.69 32.2-37.6 13.85-4.56 31.82-4.36 58.72 3.98 10.74 3.33 18.71 12.18 24.29 20.76 7.53 11.54 15.91 18.29 24.03 22.19-9.33 1.62-19.9 1.5-30.17-2.86-5.23-2.21-10.33-5.72-15.18-10.43 1.97 3.8 5.45 9.49 10.75 15.53 2.28 2.64 4.84 5.3 7.85 7.89-11.78 2.29-26.03 3.08-38.92-1.67-6.61-2.43-12.33-6.23-17.23-11.19-3.24-3.31-5.98-7.29-8.44-11.67-.36 5.19.76 10.31 2.81 15.22 1.43 3.37 3.21 6.67 5.34 9.79-11.96-5.3-24.44-14.57-28.02-30.37-.56-2.49-.85-5.19-.93-8.04-2.23 1.99-4.28 4.02-6.13 6.14-12.09 13.95-15.82 31.02-9.69 47.53 8.76 23.69 40.27 50.48 100.4 50.12l6.05-.1c32.21-1.12 60.48-9.41 83.88-19.77.22 2.11.64 4.17 1.13 6.23-88.41 36.14-152.54 19.61-183.27-8.46zm725.19-292.72c-.24.06-4.27 1.96-11.68.48 2.48 4.21 7.93 5.62 8.13 5.65 10.7 6.3 13.6 24.63 13.6 24.63s-3.55 2.42-9.09-.72c0-8.81-4.19-12.33-7.19-13.79 6.15 10.11-1.16 15.61-1.27 15.74.06-.18 2.92-11.81-8.63-20.92-8.46-7.13 1.72-18.5 1.76-18.52 2.55 2.85 7.3 6.76 14.38 7.43zm-81.36 71.25c4.58 9.98 10.13 20.18 15.32 24.41 6.23 5.1 13.21 6.08 20.18 2.38 7.96-5.36 6.82-16.61 6.73-17.98-.85-9.44-4.1-20.29-10-33.21 0 0-10.83-19.61-11.33-36.94-.33-11.53 3.27-26.9 15.28-35.52 5.6-4.07 12.18-5.88 19.11-4.51 6.04 1.09 11.6 5.56 13.82 10.99-3.12-5.6-9.07-8.91-16.06-8.91-5.49 0-10.83 2.05-14.65 5.58-8.39 7.52-12.6 19.55-11.31 32.1 1.7 16.7 10.18 31.52 11.46 34.35 5.05 12.05 9.46 24 10.02 37.66.87 21.69-16.95 23.78-16.95 23.78-2.48.46-24.82 3.47-34.65-26.3 1.28-2.38 2.31-5.03 3.03-7.91zm-21.18 18.96c-2.53 1.94-5.03 4.16-6.84 6.63-.04.06-.07.09-.11.15-.17.22-.31.44-.46.67-.61.91-1.13 1.87-1.52 2.83-.11.31-.24.65-.33.96a9.83 9.83 0 0 0-.33 1.48c-.04.24-.07.46-.09.68 0 .17-.02.33-.02.5-.04.7.02 1.44.17 2.16.04.2.07.41.13.61a10.09 10.09 0 0 0 .57 1.68 15.71 15.71 0 0 0 1.46 2.61c.98 1.4 2.07 2.62 3.27 3.66a21.37 21.37 0 0 0 1.5 1.16c2.29 1.63 4.95 2.66 7.91 3.1 1.09.17 10.59.65 14.64-2.13-.04.04-.09.11-.17.24-.09.11-.22.3-.39.48-1.4 1.74-5.58 5.84-15.06 7.91 5.43.55 9.35-.2 12.12-1.33a28.73 28.73 0 0 0 1.09-.5 11.27 11.27 0 0 0 .98-.52c.3-.18.57-.37.83-.54h.02a21.15 21.15 0 0 0 1.33-1.03c.18-.17.35-.31.52-.48.68-.67 1.03-1.18 1.13-1.27-.02.07-.06.15-.09.22a18.91 18.91 0 0 1-.39 1c-.83 2.03-2.61 5.77-6.21 9.28-3.14 3.05-7.65 5.95-14.14 7.45v33.58s-14.23 1.05-24.71-.31a14.18 14.18 0 0 1 1.55-2.59c.37-.5.76-.92 1.16-1.29 2.22-2.05 4.84-2.57 7.54-2.77-5.95-2.18-10.4.79-12.9 3.23a23.82 23.82 0 0 0-1.4 1.53c-.37.43-.63.78-.78.96-.33-.09-.63-.2-.92-.3-.3-.11-.57-.24-.83-.37a6.55 6.55 0 0 1-.55-.24c.17-.61.37-1.16.63-1.7a13.27 13.27 0 0 1 .85-1.48c.42-.61.91-1.15 1.42-1.64 3.29-3.14 8.17-3.97 11.01-3.62-3.42-1.53-11.2-2.16-16.83 3.22l-.67.67-.02.02c.02-.31.07-.63.18-.92.04-.15.07-.3.15-.44.22-.57.55-1.13 1-1.66.11-.13.24-.26.35-.39 4.18-4.4 15.24-6.5 23.17-3.84v-25.98c1.57.18 3.12.37 4.69.48.5.04 1.02.06 1.53.07h.04a80.74 80.74 0 0 1-3.77-2.35h-.02a98.59 98.59 0 0 1-3.25-2.27c-2.01-1.5-3.73-2.98-5.16-4.4-5.19-5.16-6.76-9.76-6.45-13.67.02-.18.04-.37.07-.55.07-.67.2-1.29.39-1.92.11-.35.22-.7.37-1.05a13.06 13.06 0 0 1 .44-1.02c.02-.06.06-.11.07-.17.15-.28.28-.54.43-.79.18-.31.39-.63.57-.92l.59-.83c.04-.04.07-.09.11-.15a21.982 21.982 0 0 1 2.54-2.8l1.05-.92a13.87 13.87 0 0 1 1.02-.81c.06-.04.13-.07.18-.13.2-.17.41-.31.61-.46 1.44-1.02 2.53-1.59 2.73-1.7-3.62.85-6.69 2.16-9.26 3.79-.31.18-.63.39-.92.59-.3.2-.59.41-.87.61-.3.2-.57.41-.85.63a16.01 16.01 0 0 0-.79.65c-.52.42-1.02.89-1.48 1.33-.81.78-1.57 1.59-2.25 2.4-.5.59-.96 1.2-1.4 1.79a20.04 20.04 0 0 1 .81-2.7c.13-.3.24-.59.37-.89.26-.55.54-1.07.81-1.53.13-.24.28-.46.41-.67v-.02c.54-.83 1.05-1.46 1.48-1.9l1.4-.92 2.25-1.46c1.4-.89 2.86-1.74 4.4-2.49 8.13-4.27 15.23-11.09 18.74-19.57 3.36-8.35 4.03-18.11.15-26.06 3.05 8.2 1.35 17.57-2.49 24.95-3.99 7.47-10.94 12.86-18.61 15.98-4.73 1.79-9.54 4.18-14.03 7.19h-.07a37.9 37.9 0 0 0-2 1.4c-.67.48-1.31.98-1.94 1.48h-.02l-1.68 1.44c-.68.59-1.35 1.2-2 1.83.06-.11.13-.22.18-.35l.11-.17c.02-.06.06-.11.09-.17l1.07-1.44c.35-.46.72-.94 1.13-1.39.37-.46.76-.91 1.16-1.35l1.22-1.29h.02c4.01-4.12 8.85-7.54 14.27-10.55 7.93-4.66 14.69-11.77 17.81-20.4 2.94-8.52 3.18-18.31-1.09-26.06 3.44 8.06 2.18 17.52-1.31 25.06-3.66 7.65-10.33 13.34-17.85 16.83-6.73 2.9-13.53 7-19.22 12.44 2.12-3.47 4.71-6.6 7.71-9.44 2.99-2.85 6.39-5.41 10.05-7.78 7.61-5.17 13.91-12.71 16.45-21.55 2.18-7.91 1.85-16.69-1.83-23.82 3.79-.55 7.85-1.9 11.96-4.56a6.5 6.5 0 0 0 .52-.31c.24.42 29.75 38.82-2.35 63.51zm-69.79 110.94c10.12 6.93 14.78 18.7 10.88 27.38-4.53 10.06-19.39 13.1-40 8.22-.34-.08-1.06-1.42-1.28-1.71l-1.91-2.43a149.42 149.42 0 0 0-5.57-6.51c-5.43-6.01-11.3-11.63-17.58-16.75-7.75-6.32-16.16-11.88-25.18-16.22-4.33-2.08-8.75-3.68-13.28-5.18-4.68-1.55-11.41-3.56-16.29-2.41-20.26 4.78-30.39 15.18-44.78 15.81 83.92-42.64 105.92-107.33 111.5-141.53l24.5 20.99c.17 3.92 1.52 7.85 4.93 10.87 5.97 5.19 14.82 5.78 21.75 2.68 6.23-2.79 13.27-13.47 13.99-16.02-9.22.31-20.7-6.54-20.7-12.58 0-7.11 8.3-12.9 18.48-12.9 9.29 0 16.67 4.9 17.94 11.12l-1.92 1.48c-4.38 3.27-8.5 7.3-11.7 12.23-3.16 4.97-4.92 10.9-5.16 16.78-.04.78-.04 1.57 0 2.38.02.57.06 1.16.09 1.74.02.11.02.24.04.35.06.59.13 1.16.22 1.76v.04a26.3 26.3 0 0 0 .3 1.59c.04.28.11.55.18.83a16.08 16.08 0 0 0 .33 1.28c.04.17.09.33.15.5.11.43.26.83.41 1.26.11.35.24.72.41 1.05a23.71 23.71 0 0 0 2.22 4.38c3.25 5.04 7.71 9.02 12.58 11.77 6.06 3.49 12.49 5.62 19.09 6.98v24.06c-3.79-1.19-7.31-1.14-10.31-.55l-4.23-3.61c-1.32-1.14-20.71-19.35-38.69-20.66-5.23-.38-10.48.6-15.8 3.42-8.35 4.39-13.01 11.58-13.57 20.8-.89 15.71 10.85 35.59 27.95 47.32zm-300.32-47.32c-.55-9.22-5.22-16.41-13.57-20.8-5.32-2.83-10.57-3.8-15.8-3.42-17.99 1.31-37.38 19.51-38.69 20.66l-4.22 3.61c-3-.58-6.51-.63-10.3.56v-24.06c6.58-1.37 13.05-3.49 19.09-6.98 4.88-2.75 9.35-6.74 12.58-11.77s4.62-11.38 4.34-17.15c-.24-5.88-2-11.81-5.16-16.78-3.18-4.93-7.32-8.96-11.7-12.23-.61-.5-1.27-.98-1.92-1.48 1.27-6.23 8.65-11.12 17.94-11.12 10.18 0 18.48 5.78 18.48 12.9 0 6.04-11.48 12.9-20.7 12.58.72 2.55 7.76 13.23 13.99 16.02 6.93 3.1 15.78 2.51 21.75-2.68 3.42-3.01 4.77-6.95 4.93-10.87l24.5-20.99c5.6 34.2 27.58 98.9 111.5 141.53-14.41-.62-24.53-11.03-44.8-15.81-4.88-1.15-11.6.86-16.29 2.41-4.53 1.5-8.95 3.1-13.28 5.18-9.02 4.34-17.42 9.91-25.18 16.22-6.28 5.12-12.15 10.74-17.58 16.75-1.91 2.12-3.77 4.29-5.57 6.51-.65.8-1.28 1.61-1.91 2.43-.22.29-.94 1.63-1.28 1.71-20.6 4.88-35.47 1.84-40-8.22-3.91-8.68.76-20.46 10.88-27.38 17.09-11.73 28.83-31.62 27.95-47.32zm-74.65-97.56c0 .09-.02.24-.02.35-4.25-3.81-7.56-8.19-8.13-14.41-1.15 5.38 1.13 11.22 4.49 15.63 1.13 1.42 2.38 2.68 3.64 3.94 2.46 2.51 4.93 4.92 7.34 7.26.15.15.31.28.44.43 3.97 3.71 7.37 7.74 9.78 12.12-4.16-3.55-8.56-6.71-13.12-9.05-7.3-3.97-13.56-10.09-16.72-17.98-2.73-7.06-3.34-15.56-.41-22.95 2 .28 3.9.33 5.69.24-.11 4.29.39 16.17 7.02 24.43zm.96-9.92c-.09.48-.17.96-.22 1.42-4.42-3.33-6.32-11.86-7.19-15.95 1.28-.09 2.48-.26 3.6-.46.17 2.73.98 8.72 3.81 14.99zm-2.11-15.34c.68-.17 1.33-.35 1.94-.54.63 3.66 1.48 5.25 2.11 6.78-.2.65-.33 1.29-.5 1.94-2.09-2.83-2.85-5.8-3.55-8.19zm4.75-1.5c1.44-.59 2.29-1.05 2.29-1.05-.46 1.11-.78 2.2-1.18 3.29-.74-.89-.92-1.63-1.11-2.24zm23.41-.87c1.2-.24 16.59-2.72 27.85 11.4-2.03-3.84-4.8-7.56-8.17-10.75a131.93 131.93 0 0 0 8.76.59c1.29 2.94 6.99 15.49 5.53 32.21 1.87-2.61 3.09-5.6 3.97-8.7l13.49-11.57c1.5 1.55 3.14 2.96 5.01 4.12-3.73-8.43-5.51-15.89-5.77-17.17 4.31-.59 7.72-1.35 10.66-2.05v10.02c-.02.24-.26 5.82.74 14.93l-25.32 21.69c-2.79 25-22.47 14.28-22.75 14.14 1.94-.07 13.95 1.57 16.8-11.01-6.8 8.67-15.93 6.71-18.09 6.17 7.61-3.44 12.92-9.59 12.92-16.91 0-10.92-11.4-19.81-25.39-19.81-1.29 0-2.57.13-3.81.28 2.35-.79 18.11-6.62 31.41 10.55-4.49-8.57-16.76-21.16-31.6-19.42 2.4-.81 17.04-6.39 31.6 10.5-10.24-17.83-26.44-19.13-27.85-19.2zm-24.61-46.94c2.98 8.37 10.75 14.41 18.83 16.93 4.12 1.57 8.43 1.55 10.88 3.33 2.94 1.79 5.56 4.6 7.91 7.58 2.98 3.84 5.49 8.2 7.82 12.62-2.62-.24-5.21-.48-8-.89-.02-.07-.06-.15-.07-.22-3.16-6.1-7.48-12.55-14.84-15.52-3.81-1.55-7.41-1.09-9.98-2.03-2.92-.79-5.73-2.22-8.33-3.95-5.16-3.53-9.37-8.52-12.2-14.25-3.81-7.54-5.19-16.06-5.12-24.65 3.07.24 10.99.11 11.92.07-1.16 6.84-1.37 14.04 1.18 20.99zm16.46 4.36c2.05 1.28 4.07 2.22 6.1 3.03 3.94 1.61 7.58 2.83 10.75 4.66.5.31 1.09.5 1.59.83 1.59 1 2.94 2.14 4.25 3.36.91.85 1.79 1.68 2.68 2.7 2.44 2.66 4.97 5.34 8.11 7.35 5.77 4.18 14.43 6.84 20.73 2.79-4.1.61-7.78-.48-11.07-2.29 6.08-.04 10.77-.79 14.58-1.7 1.79 2.81 3.84 5.4 6.43 7.5-.55-3.09-11.25-26.55 5.32-26.3v31.47c-6.39 1.57-17.63 3.64-32.6 3.18-3.2-5.93-6.65-11.64-11.05-16.94-2.72-3.2-5.75-6.32-9.78-8.61-1.83-1.13-4.79-1.96-6.56-2.14-1.92-.33-3.77-.74-5.56-1.28-7.24-2.01-13.58-6.65-16.37-13.56-2.51-6.02-2.53-12.97-1.57-19.77 2.4-.22 4.84-.31 7.23-.67 3.81 3.62 7.72 9.79 7.21 20.4-4.19-2.83-7.02-8-9.29-13.51-2.86 13.42 8.76 19.42 8.87 19.5zm45.88-27.13c2.86 4.05 3.75 12.18 3.75 12.18 13.69-7.56 10.48-19.01 8.08-24.17 5.19-5.4 9.02-11.4 11.77-16.85v53.81c-5.16-.87-13.71 1.98-15.26 7.63-.81 3.33-.46 6.26.39 8.93-4.9.94-11.81 1.46-20.34.5l-6.78-7.71c5.06-5.28 8.46-10.35 10.7-15.08 11.01-5.23 7.71-19.24 7.71-19.24zm-28.25 12.29c.11-.83.31-1.7.35-2.49.63.2 5.06.06 12.66 8.85a51.01 51.01 0 0 1-3.1 4.73c-2.57-4.21-5.75-8.09-9.9-11.09zm13.58 5.28c-5.03-7.95-12.07-11.44-13.34-12.03-.11-1.13-.28-2.13-.42-3.14.79.17 9.05 2.62 15.47 11.48-.48 1.24-1.03 2.46-1.7 3.7zm-4.16 6.47a60.42 60.42 0 0 1-3.2 3.81 38.284 38.284 0 0 0-7.91-8.98c.41-1.03.81-2.07 1.09-3.09 3.75 2.09 7.1 4.9 10.02 8.26zm28.24 53.4l-7.93 6.78c-.85-6.49-2.68-10.92-3.97-13.19 3.05-.06 5.91-.2 8.65-.44.81 2.44 1.87 4.79 3.25 6.86zM540.02 679.8c113.51-54.86 108.77-152.5 108.67-153.48v-125.9c3.79-2.57 4.8-4.79 5.4-5.77.28.09.57.31 1.52.46v130.96c-2.07 115.47-115.6 161.32-115.6 161.32-120.17-57.3-115.68-160.1-115.58-161.32V395.11c.94-.15 1.24-.37 1.52-.46.59.98 1.61 3.2 5.4 5.77v125.9c-.07.98-5.58 97.62 108.69 153.48zm117.56-290.37c-.52.48-1.46.22-1.46.22-2.03-.48-3.2-3.25-2.57-6.08.59-2.46 2.99-5.32 5.95-3.77-.44.61-2.72 3.66-1.92 9.63zm-233.68.22s-.94.26-1.46-.22c.79-5.97-1.48-9.02-1.9-9.63 2.94-1.55 5.34 1.31 5.93 3.77.63 2.83-.54 5.6-2.57 6.08zm238.62 136.19v-10.02c2.94.7 6.38 1.46 10.66 2.05-.26 1.28-2.05 8.74-5.77 17.17 1.87-1.16 3.51-2.57 5.03-4.12l13.47 11.57c.89 3.1 2.11 6.1 3.97 8.7-1.46-16.72 4.23-29.27 5.54-32.21 2.79-.09 5.71-.3 8.74-.59-3.34 3.2-6.14 6.91-8.17 10.75 11.25-14.12 26.65-11.64 27.85-11.4-1.39.07-17.61 1.37-27.85 19.2 14.56-16.89 29.21-11.31 31.6-10.5-14.84-1.74-27.11 10.85-31.6 19.42 13.3-17.17 29.07-11.35 31.41-10.55-1.24-.15-2.49-.28-3.81-.28-13.99 0-25.39 8.89-25.39 19.81 0 7.32 5.3 13.47 12.92 16.91-2.16.54-11.27 2.49-18.09-6.17 2.85 12.58 14.86 10.94 16.8 11.01-.28.15-19.96 10.87-22.75-14.14l-25.32-21.69c1-9.11.76-14.69.74-14.93zm19.86-65.62s.89-8.13 3.75-12.18c0 0-3.33 14.01 7.69 19.24 2.24 4.73 5.64 9.79 10.7 15.08-1.05 1.07-5.49 6.26-6.78 7.71-8.54.96-15.45.44-20.33-.5.83-2.66 1.18-5.6.37-8.93-1.53-5.65-10.09-8.5-15.26-7.63V419.2c2.75 5.45 6.58 11.46 11.77 16.85-2.4 5.16-5.6 16.61 8.09 24.17zm32.58 3.6c.28 1.02.68 2.05 1.09 3.09a38.714 38.714 0 0 0-7.91 8.98 57.706 57.706 0 0 1-3.2-3.81c2.92-3.36 6.28-6.17 10.02-8.26zm-10.5 7.59a53.132 53.132 0 0 1-3.1-4.73c7.59-8.8 12.05-8.65 12.68-8.85.02.79.24 1.66.35 2.49-4.18 2.99-7.35 6.87-9.92 11.09zm9.66-17.83c-1.26.59-8.32 4.08-13.34 12.03-.68-1.24-1.22-2.46-1.7-3.7 6.41-8.85 14.67-11.31 15.48-11.48-.17 1.02-.33 2.01-.44 3.14zm-46.29 49.82c2.61-2.11 4.66-4.69 6.43-7.5 3.81.91 8.52 1.66 14.58 1.7-3.29 1.81-6.97 2.9-11.07 2.29 6.3 4.05 14.97 1.39 20.75-2.79 3.12-2.01 5.67-4.69 8.09-7.35.89-1.02 1.77-1.85 2.68-2.7 1.31-1.22 2.66-2.37 4.25-3.36.5-.33 1.09-.52 1.61-.83 3.16-1.83 6.8-3.05 10.75-4.66 2.01-.81 4.05-1.76 6.1-3.03.11-.07 11.72-6.08 8.85-19.5-2.27 5.51-5.1 10.68-9.29 13.51-.52-10.61 3.42-16.78 7.23-20.4 2.37.35 4.8.44 7.21.67.96 6.8.94 13.75-1.57 19.77-2.77 6.91-9.13 11.55-16.35 13.56-1.83.54-3.66.94-5.56 1.28-1.79.18-4.73 1.02-6.58 2.14-4.03 2.29-7.04 5.41-9.77 8.61-4.4 5.3-7.85 11.01-11.05 16.94-14.97.46-26.2-1.61-32.6-3.18V477.1c16.58-.26 5.89 23.21 5.32 26.3zm81.81-53.59c.92.04 8.85.17 11.92-.07.07 8.59-1.29 17.11-5.1 24.65-2.85 5.73-7.06 10.72-12.21 14.25-2.59 1.74-5.41 3.16-8.32 3.95-2.57.94-6.19.48-10 2.03-7.34 2.98-11.66 9.42-14.84 15.52-.02.07-.04.15-.07.22-2.77.41-5.38.65-7.98.89 2.31-4.42 4.82-8.78 7.8-12.62 2.35-2.98 4.97-5.78 7.91-7.58 2.46-1.77 6.74-1.76 10.88-3.33 8.07-2.51 15.85-8.56 18.83-16.93 2.57-6.95 2.35-14.15 1.18-20.99zm-61.03 69.26c-1.29 2.27-3.12 6.71-3.97 13.19l-7.95-6.78c1.4-2.07 2.46-4.42 3.27-6.86a121.33 121.33 0 0 0 8.65.44zm62.27 31.8c1.24-1.26 2.51-2.51 3.66-3.94 3.34-4.42 5.6-10.26 4.47-15.63-.55 6.23-3.88 10.61-8.13 14.41 0-.11-.02-.26-.02-.35 6.63-8.26 7.13-20.14 7.02-24.43 1.79.09 3.7.04 5.71-.24 2.92 7.39 2.31 15.89-.42 22.95-3.16 7.89-9.41 14.01-16.7 17.98-4.56 2.35-8.98 5.51-13.14 9.05 2.4-4.38 5.82-8.41 9.77-12.12.15-.15.3-.28.44-.43l7.34-7.26zm-5.9-33.32s.83.46 2.27 1.05c-.18.61-.37 1.35-1.09 2.24-.42-1.09-.74-2.18-1.18-3.29zm3.47 10.74c-.17-.65-.3-1.29-.5-1.94.65-1.53 1.48-3.12 2.11-6.78.61.18 1.26.37 1.94.54-.7 2.38-1.46 5.36-3.55 8.19zm5.25-7.83a34.61 34.61 0 0 0 3.6.46c-.85 4.08-2.77 12.62-7.19 15.95-.04-.46-.13-.94-.2-1.42 2.81-6.26 3.62-12.25 3.79-14.99zm27.79-56.56c-3.33 1.92-19.64 13.9-22.82 25.94 9.78 6.28 18.16 7.83 20.33 8.13-.22.13-7.5 4.75-26.04 2.53 12.03 5.78 23.23 3.57 25.98 2.98-1.63 2.09-6.06 9.94-20.33 10.53-7.87.33-20.4-7.69-21.03-8.09.5-.2 11.49-4.77 17.96-14.08-5.04 4.84-11.33 8.37-17.68 10.2-7.13 2.05-10.77 4.95-10.85 5.04-2.94.76-5.67 1.26-8.46 1.83 2.35-4.14 5.4-7.74 9.35-9.5 2.35-1.2 5.65-.96 9.41-2.27 3.47-1.13 6.6-2.9 9.44-5.01 5.64-4.21 10.02-9.94 12.82-16.24 3.75-8.41 4.8-17.48 4.29-26.42 2.68-.28 5.32-.79 7.95-1.37.35 3.23.63 13.99-5.84 23.47 9.61-7.28 11.68-20.55 11.99-25.3 1.55-.52 5.88-2.27 6.47-2.62-.04 2.27-.06 10.68-6.15 20.22 8.19-7.23 11.38-19.94 11.85-24.24.7-.63 1.46-1.13 2.09-1.83.11.18 1.16 19.16-10.72 26.11zm-4.64 12.62a96.574 96.574 0 0 0-3.25 13.38c-2.25-.72-4.32-1.55-6.23-2.53 3.29-6.49 9.05-10.53 9.48-10.85zm-40.89-81.86c-1.87-5.34-9.48-5.34-9.63-5.32 2.31-2.77 6.1-4.66 6.1-4.66-13.3 1.94-17.81 10.11-17.81 10.11-1.64-4.6 5.38-10.26 6.67-11.42l-5.01-2.55 13.49-4.31 1.44 2.25-3.83 3.68 13.69-4.55-5.51-2.57 7.15-5.01-11.4 3.05 1.05-2.14 11.44-2.61c1.44 1.33 7.69 8.09 8.93 9.85 2.73-3.92 6.84-4.55 7.59-4.55 4.92 0 8.91 4.01 8.91 8.91 0 3.58-2.18 6.67-5.27 8.06-1.11.52-2.33.85-3.64.85-.33 0-11.99-7.13-24.1.46 3.64-.52 10.31.54 13.6 2.01-.15 0-3.23-.28-11.25 3.53 3.64-.52 7.96-.46 11.29.94-3.16.57-6.12 1.59-8.72 3.07 2.49-.35 4.95-.26 7.3.06-3.95 2.62-9.18 5.04-16.08 7.23-2.48.79-4.82 1.72-7.15 2.62l-.66-.81c13.01-4.23 12.55-12.94 11.4-16.19zm-1.5 20.97c14.45-4.6 23.43-10.29 27.39-17.3 7.98-.79 14.3-7.32 14.3-15.5 0-8.72-7.1-15.82-15.82-15.82-2.46 0-4.73.68-6.8 1.7-1.39-1.52-2.61-2.98-4.25-4.56 1.29-6.04 3.57-12.6 7.45-16.22 2.22-2.05 4.66-3.09 7.72-2.86 3.84.17 9.22 1.29 14.89 2.48 13.88 2.88 30.69 6.36 43.91.94-1.35 4.29-3.4 8.09-5.64 11.44-3.01-.89-20.57-3.99-39.9 3.73 43.44-6.54 47.75 11.9 49.04 16.82 1.42 4.82 2.86 10.26 5.54 15.15 2.85 5.14 10.51 11.35 17.76 12.82-.04.06-10.79 9.22-22.77 8.54 1.39-10.55-.48-21.97-8.48-29.99-10.18-9.98-24.43-12.21-37.05-10.94 61.79 7 25.96 62.14 31.06 71.73-1.53-.81-10.75-4.56-17.61-14.34 2.62-5.03 3.36-10.87 2.11-16.06-2.22-10.4-10.53-20.2-21.03-20.47 9.52 3.1 14.82 12.64 15.8 21.31 1.02 9.05-3.66 28.62-50.5 27.05 3.66-1.55 29.21-9.76 25.19-29.34-.13 10.02-7.5 17.17-15.93 19.68-8.89 2.59-21.05 5.93-28.55 12.23 4.82-17.19 14.52-20.51 25.76-24.34-5.97-.87-16.7-.72-27.94 12.38-15.47 3.71-22.27 13.27-22.93 14.03 4.16-15.8 16.22-27.59 37.27-34.28zm-52.24-1.44c4.9 5.34 12.03 8.87 20.99 10.83-4.34 3.97-7.71 8.33-9.92 13.01-.24-.87-1.24-9.55-.42-13.14-1.88 3.12-3.94 10.31-3.84 12.75-.5-1.5-1.77-11.55-.96-15.13-1.88 3.12-3.53 9.24-3.84 12.66-.65-1.66-2.01-12.18-1.22-15.76a28.207 28.207 0 0 0-3.59 10.14c-.54-1.5-1.85-11.66-1.02-15.23-2.98 5.34-3.71 10.88-3.73 11.05-.5-1.4-1.72-11.27-.92-14.86-1.39 2.29-2.31 4.9-2.99 7.59-1.07-3.27-1.27-9.61-.46-13.19-1.61 2.68-2.7 5.8-3.34 9.04-1.63-5.03-1.35-8.46-1.05-11.05 10.87-7.21 3.68-13.97 3.68-13.97-.13 4.82-4.56 6.87-6.43.85-.35-2.05-.33-3.6.35-5.89 1.9-6.43 8.72-3.18 9.09-2.83 2.72 2.37 2.92 9.39 2.44 13.32-.06.43-1.07 10.79 7.21 19.81zm10.51-46.73c3.38-6.52 12.18-4.29 16.48-3.2 4.53 1.03 9.39.24 13.29-1.96 1.31-.74 2.4-1.76 3.51-2.75-3.92 8.78-12.12 9.31-16.13 9.05-2.83-.24-6.25-.39-9.54.42a14.39 14.39 0 0 0-3.71 1.46c1.07.98 2 2.09 2.81 3.23.55.74 1.13 1.48 1.55 2.27 2.59 4.75 2.88 10.57 1.64 16.02-.61 2.72-1.59 5.47-2.86 7.89-1 2.03-1.4 4.14-1.57 6.28-.31-1.03-.67-2.13-.7-3.18-.11-3.25 1.03-6.12 2.38-9.33 2.42-6.86 1.18-14.88-3.46-20.1 2.68 6.28 3.34 13.18 1 19.16-1.05 3.07-2.57 6.78-1.92 10.44.17 1.44.74 2.72 1.44 3.92-.74-.31-1.52-.59-2.16-1.05-2.7-1.94-3.4-5.16-2.7-8.46.59-3.33 1.88-6.65 2.88-10.26 3.55-12.94-8.67-17.61-13.1-16.85-3.83.48-6.86 2.29-9.66 4.47-1.48-.31-3.29-.37-5.51.18-1.16.31-2.14.72-3.03 1.16-.17-.15-.33-.24-.48-.41 13.18-17.13 28.36-9.13 29.55-8.43zm-25.41-32.84l4.58 6.15c1.18 1.57 7.67 12.4-6.6 16.11 1.4-6.17 2.09-21.08 2.01-22.27zm-25.43-27.85c-8.06-5.4-23.15.89-21.01 13.49-1.52-2.14-2.42-4.56-2.27-7.11.22-7.41 6.49-11.09 13.45-12.62a40.79 40.79 0 0 1 8.44-.94c-1.5-1.79-3.18-3.31-4.93-4.64-7.95-6.01-17.91-7.76-26.76-7.67-5.1-.02-10.24-1.59-13.3-5.27-3.09-3.57-3.12-9.15.15-12.92 3.16-3.84 8.48-5.89 13.75-6.5 5.34-.67 10.85.17 16.39 1 2.59.31 5.27.67 7.96.39-1.05.35-2.12.67-3.22.81-3.62.68-7.37.11-11.29.04-3.94-.04-7.85.42-11.59 1.7-3.44 1.29-7.72 3.36-8.24 7.47 2.77-8.06 16.04-8.02 19.72-7.43 11.96 1.88 15.21.28 16.94-.33-1.57 1.92-4.16 6.1-21.92 5.51-.39.02-5.99-.18-8.67 1.92-3.05 2.72-.85 6.41.79 8.17-1.35-2.29-1.79-5.77.35-6.5 1.02-.52 2.24-.68 3.53-.67-.35.63-.65 1.33-.72 2.16-.06 1.83 1.76 2.81 3.05 3.25 5.67 1.76 11.4 2.48 16.8 4.49 10.98 3.6 19.96 11.27 25.5 21.18 7.72 13.16 8.96 28.7 6.08 43.37-.87-2.55-2.44-4.86-4.4-6.82.26-2.42 1.94-24.45-14.6-35.52zm-55.23 78.33c6.28-1.24 13.38-.54 20.07.87 6.54 1.74 14.91 3.36 22.65 1.79 7.89-1.26 15.8-7.28 18-15.15 1.31-3.86 1.68-8.46-.44-12.44-2.01-3.95-6.52-6.5-10.88-5.91-1.03.13-2 .48-2.88.92 5.47-8.2 12.7-6.43 15.98-4.42-7.45-7.34-14.82-1.15-16.26.17.35-.72.67-1.52 1.11-2.16 3.01-4.05 8.7-5.91 13.43-4.4 4.8 1.35 8.37 5.88 9.07 11.25.22 1.59.98 8.24-4.68 17.24 3.86-2.83 7.24-6.86 8.89-11.79 18.68-1.57 20.64-14.15 19.68-17.22-.66-2.79-1.9-4.82-3.1-6.76-2.46-3.77-5.19-7-7.04-10.33-2.03-3.42-2.62-6.02-.92-8.08 1.7-2.4 5.51-4.12 9.09-5.69-3.33 1.7-6.56 4.21-6.86 8.78.04 3.07 2.11 5.12 3.42 7.02 1.42 1.96 2.85 3.9 4.14 5.89 2.72 3.88 4.9 8.22 4.93 12.77.07 4.56-2.61 8.91-6.08 12.31 4.05-2.61 7.74-6.84 8.09-12.21.39-5.34-2.13-10.18-4.75-14.3-2.48-4.1-7-7.82-7.74-11.59-.2-2.98 2.09-5.64 4.88-7.8-.59 1.02-1.22 2-1.48 3.33-.72 2.51-.09 5.67 1.07 7.72 2.4 4.16 5.12 6.62 7.26 9.65 5.08 5.82 6.82 11.35 5.08 18.53-.67 2.68-1.77 5.34-3.05 7.95-4.08-1.11-18.68-3.14-29.68 12.81-4.32.17-8.37 3.53-9.52 8.48-1.02 4.45.52 8.8 3.53 11.14-3.47 3.36-7.71 5.53-12.27 5.51a32.12 32.12 0 0 1-11.33-2.09c-3.75-1.26-7.1-3.29-11.79-4.9-4.42-1.29-9.33-2.27-14.51-.85-5.25 1.28-9.85 6.97-9.17 12.4.15 1.96.68 3.66 1.39 5.27-1.05-.44-14.56-4.32-7.5-15.06 1.68-2.57 4.95-4.03 8.28-4.18-3.29-.41-6.91.55-9.55 2.99-2.64 2.37-5.47 8.46-2.51 13.45-3.44-2.2-5.97-5.14-5.97-8.91-.33-6.63 3.4-10.88 9.9-12.01zm-70.72 3.38h48.1c2.37 0 4.31 1.94 4.31 4.32s-1.94 4.32-4.31 4.32h-48.1c-2.37 0-4.31-1.94-4.31-4.32s1.94-4.32 4.31-4.32zm-90.77-82.75c5.54-9.9 14.54-17.57 25.5-21.18 5.4-2.01 11.12-2.73 16.8-4.49 1.29-.44 3.1-1.42 3.05-3.25-.07-.83-.37-1.53-.72-2.16 1.29-.02 2.51.15 3.53.67 2.14.74 1.7 4.21.37 6.5 1.64-1.76 3.82-5.45.78-8.17-2.66-2.11-8.28-1.9-8.68-1.92-17.76.59-20.33-3.58-21.9-5.51 1.74.61 4.99 2.22 16.95.33 3.68-.59 16.94-.63 19.7 7.43-.5-4.1-4.77-6.17-8.22-7.47-3.73-1.28-7.65-1.74-11.59-1.7-3.92.07-7.67.65-11.29-.04-1.07-.15-2.16-.46-3.22-.81 2.7.28 5.38-.07 7.96-.39 5.54-.83 11.05-1.66 16.39-1 5.27.61 10.59 2.66 13.75 6.5 3.27 3.77 3.25 9.35.13 12.92-3.05 3.68-8.17 5.25-13.29 5.27-8.85-.09-18.81 1.66-26.76 7.67a30.264 30.264 0 0 0-4.93 4.64c2.7.02 5.62.31 8.44.94 6.97 1.53 13.23 5.21 13.45 12.62.17 2.55-.76 4.97-2.27 7.11 2.14-12.6-12.94-18.89-21.01-13.49-16.54 11.07-14.86 33.1-14.58 35.52-1.98 1.96-3.55 4.27-4.42 6.82-2.88-14.67-1.63-30.21 6.08-43.37zm-10.5 51.15c-14.27-3.71-7.78-14.54-6.6-16.11l4.6-6.15c-.09 1.18.59 16.09 2 22.27zm-20.01-22.32c2.14-3.03 4.86-5.49 7.26-9.65 1.16-2.05 1.79-5.21 1.09-7.72-.28-1.33-.91-2.31-1.5-3.33 2.79 2.16 5.08 4.82 4.9 7.8-.76 3.77-5.27 7.48-7.76 11.59-2.62 4.12-5.12 8.96-4.75 14.3.35 5.38 4.05 9.61 8.09 12.21-3.47-3.4-6.15-7.74-6.08-12.31.04-4.55 2.22-8.89 4.93-12.77 1.29-2 2.72-3.94 4.16-5.89 1.29-1.9 3.36-3.95 3.4-7.02-.3-4.56-3.51-7.08-6.86-8.78 3.58 1.57 7.39 3.29 9.09 5.69 1.7 2.05 1.11 4.66-.92 8.08-1.87 3.33-4.58 6.56-7.04 10.33-1.18 1.94-2.42 3.97-3.1 6.76-.94 3.07 1 15.65 19.68 17.22 1.64 4.93 5.03 8.96 8.89 11.79-5.67-9-4.88-15.65-4.68-17.24.7-5.38 4.27-9.9 9.07-11.25 4.73-1.52 10.44.35 13.43 4.4.46.65.76 1.44 1.11 2.16-1.44-1.31-8.81-7.5-16.26-.17 3.29-2.01 10.51-3.79 15.98 4.42-.89-.44-1.83-.79-2.88-.92-4.36-.59-8.87 1.96-10.88 5.91-2.11 3.97-1.77 8.57-.44 12.44 2.2 7.87 10.11 13.9 18 15.15 7.74 1.57 16.11-.06 22.65-1.79 6.69-1.4 13.8-2.11 20.07-.87 6.5 1.13 10.24 5.38 9.9 12.01 0 3.77-2.53 6.71-5.97 8.91 2.96-4.99.13-11.09-2.51-13.45-2.64-2.44-6.26-3.4-9.55-2.99 3.33.15 6.62 1.61 8.3 4.18 7.04 10.74-6.47 14.62-7.52 15.06.7-1.61 1.24-3.31 1.39-5.27.7-5.43-3.92-11.12-9.15-12.4-5.19-1.42-10.11-.44-14.52.85-4.69 1.61-8.04 3.64-11.79 4.9-3.73 1.4-7.56 2.09-11.33 2.09-4.56.02-8.8-2.14-12.29-5.51 3.03-2.35 4.58-6.69 3.55-11.14-1.13-4.95-5.19-8.32-9.52-8.48-10.98-15.95-25.59-13.91-29.68-12.81-1.26-2.61-2.37-5.27-3.05-7.95-1.72-7.19 0-12.71 5.08-18.53zm3.46 35.9c-4.43-.76-16.65 3.92-13.1 16.85 1 3.6 2.29 6.93 2.88 10.26.7 3.31 0 6.52-2.7 8.46-.65.46-1.42.74-2.16 1.05.7-1.2 1.27-2.48 1.44-3.92.65-3.66-.87-7.37-1.92-10.44-2.35-5.99-1.68-12.88 1-19.16-4.64 5.23-5.88 13.25-3.46 20.1 1.35 3.22 2.49 6.08 2.38 9.33-.04 1.05-.39 2.14-.7 3.18-.17-2.14-.57-4.25-1.57-6.28-1.27-2.42-2.24-5.17-2.86-7.89-1.24-5.45-.94-11.27 1.64-16.02.44-.79 1-1.53 1.55-2.27.83-1.15 1.76-2.25 2.79-3.23-1.18-.68-2.42-1.15-3.7-1.46-3.29-.81-6.69-.67-9.53-.42-4.03.26-12.21-.28-16.11-9.05 1.11 1 2.18 2.01 3.51 2.75a18.81 18.81 0 0 0 13.25 1.96c4.32-1.09 13.12-3.33 16.5 3.2 1.2-.7 16.37-8.7 29.55 8.43-.15.17-.31.26-.48.41-.89-.44-1.85-.85-3.01-1.16-2.22-.55-4.03-.5-5.53-.18-2.81-2.18-5.82-3.99-9.66-4.47zm-.35 43.72c8.3-9.02 7.26-19.38 7.21-19.81-.48-3.94-.26-10.96 2.44-13.32.37-.35 7.19-3.6 9.09 2.83.68 2.29.7 3.84.37 5.89-1.87 6.02-6.32 3.97-6.43-.85 0 0-7.21 6.76 3.66 13.97.3 2.59.57 6.02-1.05 11.05-.65-3.23-1.72-6.36-3.34-9.04.81 3.58.63 9.92-.46 13.19-.66-2.7-1.61-5.3-2.99-7.59.81 3.58-.44 13.45-.92 14.86-.02-.17-.76-5.71-3.73-11.05.81 3.57-.48 13.73-1.02 15.23-.54-3.66-1.81-7.15-3.58-10.14.79 3.58-.57 14.1-1.22 15.76-.31-3.42-1.94-9.53-3.84-12.66.81 3.58-.46 13.64-.96 15.13.09-2.44-1.94-9.63-3.84-12.75.81 3.58-.18 12.27-.42 13.14-2.22-4.68-5.56-9.04-9.92-13.01 8.98-1.96 16.1-5.49 20.99-10.83zm-61.57-45.57l11.42 2.61 1.05 2.14-11.4-3.05 7.15 5.01-5.51 2.57 13.69 4.55-3.83-3.68 1.46-2.25 13.47 4.31-5.01 2.55c1.31 1.16 8.3 6.82 6.69 11.42 0 0-4.51-8.17-17.83-10.11 0 0 3.79 1.88 6.1 4.66-.15-.02-7.76-.02-9.63 5.32-1.15 3.25-1.61 11.96 11.42 16.19l-.68.81c-2.31-.91-4.66-1.83-7.15-2.62-6.89-2.18-12.1-4.6-16.08-7.23 2.37-.31 4.82-.41 7.3-.06-2.61-1.48-5.56-2.49-8.72-3.07 3.33-1.4 7.65-1.46 11.29-.94-8.02-3.81-11.11-3.53-11.25-3.53 3.29-1.48 9.96-2.53 13.6-2.01-12.1-7.59-23.76-.46-24.1-.46-1.31 0-2.53-.33-3.64-.85-3.09-1.39-5.27-4.47-5.27-8.06 0-4.9 3.99-8.91 8.91-8.91.76 0 4.88.63 7.59 4.55 1.24-1.76 7.48-8.52 8.94-9.85zm-69.04 79.16c5.1-9.59-30.73-64.73 31.04-71.73-12.6-1.28-26.85.96-37.05 10.94-7.98 8.02-9.85 19.44-8.46 29.99-11.97.68-22.73-8.48-22.77-8.54 7.24-1.48 14.93-7.69 17.76-12.82 2.68-4.9 4.14-10.33 5.54-15.15 1.29-4.92 5.6-23.36 49.04-16.82-19.33-7.72-36.9-4.62-39.9-3.73-2.24-3.34-4.29-7.15-5.64-11.44 13.19 5.41 30.03 1.94 43.91-.94 5.67-1.18 11.05-2.31 14.89-2.48 3.07-.22 5.51.81 7.72 2.86 3.88 3.62 6.15 10.18 7.45 16.22-1.64 1.59-2.86 3.05-4.23 4.56-2.09-1.02-4.36-1.7-6.82-1.7-8.72 0-15.82 7.1-15.82 15.82 0 8.19 6.32 14.71 14.3 15.5 3.95 7 12.95 12.69 27.4 17.3 21.03 6.69 33.1 18.48 37.25 34.28-.67-.76-7.47-10.31-22.91-14.03-11.25-13.1-21.99-13.25-27.96-12.38 11.24 3.83 20.94 7.15 25.76 24.34-7.48-6.3-19.66-9.65-28.55-12.23-8.43-2.51-15.8-9.66-15.93-19.68-4.03 19.59 21.53 27.79 25.21 29.34-46.84 1.57-51.54-18-50.52-27.05.98-8.67 6.28-18.2 15.8-21.31-10.5.28-18.81 10.07-21.03 20.47-1.24 5.19-.52 11.03 2.11 16.06-6.86 9.78-16.06 13.53-17.61 14.34zm31.36 16.11c-11.92-6.95-10.83-25.93-10.72-26.11.61.7 1.37 1.2 2.07 1.83.46 4.31 3.66 17.02 11.86 24.24-6.12-9.54-6.14-17.94-6.15-20.22.59.35 4.9 2.11 6.45 2.62.31 4.75 2.38 18.02 11.99 25.3-6.47-9.48-6.19-20.23-5.84-23.47 2.62.57 5.27 1.09 7.95 1.37-.52 8.94.54 18.02 4.29 26.42 2.81 6.3 7.19 12.03 12.82 16.24 2.85 2.11 5.97 3.88 9.44 5.01 3.75 1.31 7.08 1.07 9.41 2.27 3.95 1.76 7 5.36 9.35 9.5-2.77-.57-5.53-1.07-8.44-1.83-.09-.09-3.73-2.99-10.87-5.04a43.12 43.12 0 0 1-17.68-10.2c6.49 9.31 17.46 13.88 17.96 14.08-.63.41-13.16 8.43-21.05 8.09-14.25-.59-18.68-8.44-20.31-10.53 2.75.59 13.95 2.81 25.98-2.98-18.53 2.22-25.81-2.4-26.04-2.53 2.16-.3 10.55-1.85 20.34-8.13-3.2-12.05-19.51-24.02-22.82-25.94zm4.62 12.62c.42.31 6.21 4.36 9.48 10.85-1.9.98-3.97 1.81-6.21 2.53-.74-4.23-1.76-8.67-3.27-13.38zm-83.47 23.67c-11.53 9.11-8.68 20.73-8.63 20.92-.11-.13-7.41-5.64-1.27-15.74-2.99 1.46-7.19 4.97-7.17 13.79-5.56 3.14-9.11.72-9.11.72s2.9-18.33 13.62-24.63c.18-.04 5.64-1.44 8.11-5.65-7.39 1.48-11.44-.42-11.68-.48 7.08-.67 11.83-4.58 14.39-7.43.02.02 10.2 11.38 1.74 18.52zm33.61 94.37s-17.81-2.09-16.95-23.78c.55-13.66 4.97-25.61 10.03-37.66 1.26-2.83 9.74-17.65 11.44-34.35 1.29-12.55-2.92-24.58-11.31-32.1-3.81-3.53-9.17-5.58-14.63-5.58-7 0-12.94 3.31-16.08 8.91 2.22-5.43 7.78-9.9 13.84-10.99 6.91-1.37 13.49.44 19.09 4.51 12.01 8.61 15.61 23.99 15.28 35.52-.52 17.33-11.35 36.94-11.35 36.94-5.88 12.92-9.13 23.76-9.96 33.21-.11 1.37-1.26 12.62 6.73 17.98 6.97 3.7 13.93 2.72 20.18-2.38 5.17-4.23 10.72-14.43 15.32-24.41.72 2.88 1.74 5.53 3.01 7.91-9.83 29.77-32.17 26.76-34.65 26.3zm30.45 14.47c.39.37 4.64 7.04 18.02 5.67-11.66-2.55-15.28-8.19-15.63-8.65 4.01 2.79 13.58 2.31 14.65 2.14 5.27-.79 9.55-3.47 12.68-7.93 5.97-8.54-.59-15.74-7.37-20.95-32.1-24.69-2.59-63.09-2.35-63.51l.52.31c4.1 2.66 8.17 4.01 11.97 4.56-3.7 7.13-4.03 15.91-1.85 23.82 2.53 8.83 8.83 16.37 16.45 21.55 7.34 4.73 13.53 10.27 17.76 17.22-5.69-5.43-12.49-9.54-19.22-12.44-7.5-3.49-14.17-9.18-17.85-16.83-3.49-7.54-4.77-17-1.29-25.06-4.27 7.74-4.07 17.54-1.11 26.06 3.12 8.63 9.89 15.74 17.81 20.4 7.65 4.25 14.19 9.37 18.87 16.02.15.22.26.46.41.68-6.3-6.15-14.14-10.46-21.75-13.34-7.67-3.12-14.62-8.52-18.61-15.98-3.84-7.37-5.54-16.74-2.49-24.95-3.88 7.95-3.2 17.7.15 26.06 3.51 8.48 10.61 15.3 18.74 19.57 2.9 1.42 5.49 3.16 8.06 4.88 1.11 1.16 3.01 3.77 3.88 7.71-3.47-4.79-8.94-9.7-17.83-11.79 1.09.55 28.99 15.47-7.45 36.92 2.11-.06 4.19-.3 6.26-.55v25.98c9.78-3.27 24.32.68 24.85 7.26-5.67-6.12-13.97-5.49-17.5-3.9 3.94-.48 11.88 1.31 13.9 8.44-.76.31-1.39.67-2.31.91-.92-1.2-6.41-8.89-15.08-5.73 3.95.3 7.72 1.26 10.27 6.65-10.5 1.37-24.72.31-24.72.31v-33.58c-15.97-3.68-19.98-15.85-20.83-17.94zm95.44 199.69c3.2-.02 6.57-.45 10.15-1.44 12.99-3.55 22.29-11.6 26.91-23.24.03 1.36-.03 2.7-.2 4.01-.45 4.97-2.48 9.49-5.82 13.37-3.4 3.85-7.94 7.1-12.91 10.08 5.73-.53 11.64-2.36 16.47-6.31.18-.16.31-.36.5-.52l11.9-.07c-2.49 1.38-4.97 2.66-7.53 3.83-5.67 2.75-11.53 5.1-17.51 6.7-11.86 3.29-24.44 4.27-35.71.35-11.36-3.58-20.52-12.37-25.24-23.47-2.37-5.54-3.63-11.65-3.44-17.75.08-6.05 1.65-12.53 6.54-16.77-2.4 1.24-4.18 3.22-5.61 5.47l-5.97 3.21c6.11-16.79 23.48-21.36 28.59-22.37 5.77 1.96 12.97 3.3 21.65 3.66-1.56 1.21-3.23 2.45-4.97 3.73-6.68-3.25-19-4.58-29.13 8.68-6.52 8.5-5.86 21.73 1.62 32.84 5.67 8.42 16.03 16.12 29.68 16.03zm-8.79-52.87c-5.67 3.89-12.22 7.89-19.25 11.86.49-1.39 1.12-2.73 1.99-3.87 6.28-8.2 12.83-8.85 17.25-7.99zm-18.61 26.84c-.88-2.31-1.41-4.62-1.63-6.91 18.62-9.95 33.12-20.58 42.66-28.5 3.78-.2 7.82-.59 12.12-1.16-13.03 12.96-30.28 25.44-53.15 36.57zm180.17-58.97c-.01-1.68.56-13.11-11.44-21.38 4.52 4.69 11.93 16.53.62 32.15-2.26 1.19-4.91 2.14-7.83 2.88.81-1.05 8.28-10.16 3.79-22.97.6 6.48-.91 18.32-16.13 24.45-7.6-.36-12.83-3.42-14.81-8.82-1.89-5.16-.6-12.51 6.85-14.64-3.31 3.78-2.45 10.69 2.8 13.16 11.04 3.43 20.76-9.44 16.01-19.28-4-9.07-13.08-14.66-22.27-15.83-1.13-.17-13.93-1.66-25.92 6.32 4.07-1.61 8.3-2.79 12.54-3.38-9.96 13.84-31.34 36.55-67.15 42.55-26.84 4.49-48.12 1.4-59.86-8.71-5.74-4.95-8.96-11.46-8.86-17.88.14-7.51-.59-15.57-1.4-22.23 1.62 1.71 3.06 3.56 4.23 5.6.23.38.34.84.55 1.22 1.63 3.1 2.71 6.45 3.37 9.98.66 3.69.95 7.57 1.02 11.56 1.68-3.84 2.42-8.09 2.33-12.39-.01-2-.34-3.94-.83-5.89 2.84-6.27 7.86-13.47 17-19.06 8.02-4.9 12.45-11.21 12.19-17.24-.21-4.13-2.56-7.56-6.45-9.44-6.44-3.14-15.38-1.41-23.94 4.68-14.11 10.01-42.64 19.84-56.58 13.83 6.67.11 13.8-1.47 20.96-6.01 1.25.03 2.32.04 3.05.02 8.07-.35 26.02.17 30.4-11.62.89-2.4-2.96-6.62-5.29-8.32-.43-.31-1.23-.86-2.33-1.46 1.68-1.43 3.37-2.82 5.07-4.09 11.12-8.34 17.97-15.45 32.73-16.18 3.6-.18 7.19.82 10.74 2.7 6.3 3.3 9.66 8.47 10.04 15.31.78 13.33-9.99 31.17-25.06 41.5-12.71 8.71-18.36 24.01-13.17 35.58 2.9 6.4 13.41 20.44 48.81 11.61l1.2-.3c31.8-8.8 41.28-24.5 41.28-24.5-10.94 9.22-25.49 14.14-35.09 16.58.39-.1 1.1-1.29 1.38-1.61l1.52-1.73 3.47-3.76c2.75-2.88 5.6-5.67 8.56-8.33 7.36-6.64 15.38-12.61 24.05-17.43 5.2-2.89 8.8-4.7 14.44-6.6 2.7-.91 6.62-2.18 9.41-2.82 7.03-1.61 13.44.67 16.58 2.05 5.74 2.52 12.37 5.84 18.11 8.35l9.33 3.95a460.462 460.462 0 0 0 7.14 2.87c.36.14 1.91.5 2.08.81 1.72 3.35 5.89 13.68.73 24.21zm71.88-27.35c4.24.59 8.47 1.77 12.54 3.38-11.99-7.98-24.79-6.5-25.92-6.32-9.19 1.17-18.27 6.76-22.27 15.83-4.75 9.83 4.97 22.7 16.01 19.28 5.25-2.46 6.11-9.37 2.8-13.16 7.45 2.13 8.74 9.48 6.85 14.64-1.98 5.41-7.22 8.46-14.81 8.82-15.22-6.12-16.74-17.97-16.13-24.45-4.5 12.81 2.98 21.92 3.79 22.97-2.92-.74-5.57-1.69-7.83-2.88-11.31-15.62-3.9-27.46.62-32.15-12 8.27-11.43 19.7-11.44 21.38-5.15-10.53-.99-20.86.73-24.21.16-.32 1.72-.67 2.08-.81l2.45-.97a473.552 473.552 0 0 0 14.02-5.85c5.75-2.51 12.37-5.83 18.11-8.35 3.14-1.38 9.55-3.65 16.58-2.05 2.78.64 6.7 1.91 9.41 2.82 5.64 1.9 9.24 3.71 14.44 6.6 8.67 4.83 16.69 10.79 24.05 17.43a160.194 160.194 0 0 1 12.03 12.09l1.52 1.73c.27.32.99 1.51 1.38 1.61-9.6-2.44-24.15-7.35-35.09-16.58 0 0 9.47 15.7 41.28 24.5l1.2.3c35.41 8.83 45.92-5.21 48.81-11.61 5.19-11.58-.45-26.87-13.17-35.58-15.06-10.34-25.84-28.18-25.06-41.5.38-6.84 3.74-12.02 10.04-15.31 3.55-1.88 7.14-2.88 10.74-2.7 14.76.72 21.61 7.83 32.73 16.18 1.71 1.29 3.41 2.69 5.11 4.12-.02 0-.04.02-.05.03a7.63 7.63 0 0 0-.55.31c-.68.37-1.2.72-1.55.98-.07.06-.13.09-.18.13-2.33 1.68-6.15 5.88-5.27 8.3v.02c1.88 4.55 5.54 7.26 9.83 8.91.3.11.59.22.89.31l1.07.33c.67.2 1.33.37 2.01.54.76.17 1.52.33 2.27.46.07 0 .13.02.18.04a45.97 45.97 0 0 0 4.38.55c.39.02.76.06 1.11.09 1.85.13 3.58.2 5.17.26l3.47.11c.66.02 1.61 0 2.72-.02h.29c7.16 4.55 14.29 6.13 20.97 6.01-13.93 6.02-42.47-3.81-56.58-13.83-8.56-6.08-17.5-7.81-23.94-4.68-3.89 1.88-6.24 5.31-6.45 9.44-.26 6.03 4.17 12.34 12.19 17.24 9.15 5.59 14.16 12.78 17 19.06-.49 1.95-.82 3.89-.83 5.89-.09 4.31.65 8.55 2.33 12.39.07-3.99.36-7.87 1.02-11.56.66-3.53 1.74-6.88 3.37-9.98.21-.38.32-.84.55-1.22 1.17-2.03 2.61-3.88 4.23-5.6-.81 6.66-1.54 14.73-1.4 22.23.1 6.42-3.12 12.93-8.86 17.88-11.74 10.11-33.02 13.2-59.86 8.71-35.81-5.99-57.19-28.7-67.15-42.55zm71.21 49.76c4.3.57 8.34.96 12.12 1.16 9.54 7.92 24.04 18.55 42.66 28.5-.22 2.29-.75 4.6-1.63 6.91-22.88-11.13-40.13-23.61-53.15-36.57zm34.54 9.73c4.43-.86 10.97-.21 17.25 7.99.88 1.14 1.5 2.48 1.99 3.87-7.03-3.96-13.58-7.97-19.25-11.86zm33.63 18.38c.19 6.1-1.07 12.21-3.44 17.75-4.71 11.1-13.88 19.89-25.24 23.47-11.27 3.92-23.85 2.94-35.71-.35-5.98-1.6-11.83-3.95-17.51-6.7-2.56-1.17-5.04-2.46-7.53-3.83l11.9.07c.18.16.32.36.5.52 4.83 3.95 10.74 5.78 16.47 6.31-4.97-2.98-9.51-6.22-12.91-10.08-3.33-3.87-5.37-8.4-5.82-13.37-.17-1.32-.23-2.65-.2-4.01 4.62 11.64 13.92 19.69 26.91 23.24 3.58 1 6.95 1.42 10.15 1.44 13.65.08 24.01-7.61 29.68-16.03 7.48-11.11 8.15-24.35 1.62-32.84-10.12-13.26-22.44-11.92-29.13-8.68l-4.97-3.73c8.69-.36 15.88-1.7 21.65-3.66 5.12 1.01 22.48 5.57 28.59 22.37l-5.97-3.21c-1.44-2.25-3.22-4.24-5.61-5.47 4.9 4.25 6.47 10.72 6.54 16.77zm185.51 7.59c-30.73 28.07-94.85 44.6-183.27 8.46.49-2.06.91-4.12 1.13-6.23 23.4 10.36 51.67 18.65 83.88 19.77 2.06.08 4.06.09 6.05.1 60.13.36 91.64-26.44 100.4-50.12 6.13-16.51 2.4-33.59-9.69-47.53-1.85-2.12-3.9-4.15-6.13-6.14-.09 2.86-.37 5.55-.93 8.04-3.58 15.8-16.06 25.07-28.02 30.37 2.13-3.12 3.92-6.42 5.34-9.79 2.05-4.91 3.17-10.03 2.81-15.22-2.45 4.38-5.2 8.36-8.44 11.67-4.9 4.96-10.62 8.76-17.23 11.19-12.88 4.75-27.14 3.97-38.92 1.67 3.01-2.59 5.56-5.25 7.85-7.89 5.3-6.04 8.78-11.74 10.75-15.53-4.86 4.71-9.96 8.22-15.18 10.43-10.27 4.36-20.84 4.48-30.17 2.86 8.12-3.9 16.5-10.65 24.03-22.19 5.58-8.58 13.55-17.43 24.29-20.76 26.9-8.34 44.87-8.55 58.72-3.98 14.9 4.91 26.34 19.38 32.2 37.6 7.21 22.28.09 45.35-19.47 63.21z"/><path d="M760.31 388.62c3.05 0 5.54-2.49 5.54-5.55s-2.49-5.56-5.54-5.56c-1 0-1.88.34-2.71.8 1.29.05 2.43.62 3.27 1.5-.05 0-.08-.06-.12-.06-1.75 0-3.16 1.49-3.16 3.32s1.41 3.33 3.16 3.33c-.83.81-1.9 1.37-3.16 1.43.82.46 1.71.79 2.71.79zm-440.6-11.11c-3.05 0-5.55 2.49-5.55 5.56a5.56 5.56 0 0 0 5.55 5.55c1 0 1.89-.34 2.7-.79-1.24-.06-2.32-.63-3.14-1.43 1.74 0 3.14-1.48 3.14-3.33s-1.4-3.32-3.14-3.32c-.04 0-.07.06-.12.06.84-.88 1.98-1.45 3.27-1.5-.81-.46-1.7-.8-2.7-.8zm261.04-61.42c-4.6 5.88 0 14.77 0 14.77-17.12-6.31-16.8 11.02-16.8 11.02s3.32-4.92 8.56-2.03c5.24 2.91 3.21 11.9-.96 14.47-3.1 1.9-17.03 6.25-19.3-11.17-2.29-17.42 16.73-21.16 16.73-21.16-4.71-4.58-10.89-2.82-10.89-2.82.83-12.37-9.84-11.56-9.84-11.56 2.7-16.14-8.24-23.13-8.24-23.13s-10.94 7-8.22 23.13c0 0-10.68-.81-9.87 11.56 0 0-6.16-1.75-10.89 2.82 0 0 19.05 3.74 16.76 21.16s-16.2 13.08-19.3 11.17c-4.19-2.57-6.21-11.56-.96-14.47 5.24-2.89 8.56 2.03 8.56 2.03s.32-17.33-16.82-11.02c0 0 4.62-8.88 0-14.77-4.6-5.91-18.83-11.15-18.83-11.15s10.06 22.06 13.27 37.81l4.43 21.01a4.25 4.25 0 0 0 3.4 3.3c5.86 1.09 20.37 3.42 38.48 3.42s32.63-2.33 38.48-3.42c1.71-.3 3.04-1.6 3.4-3.3l4.43-21.01c3.21-15.75 13.27-37.81 13.27-37.81s-14.21 5.24-18.83 11.15zm-85.86 17.65c-.41-2.05-.68-4.09-1.2-6.03-.47-1.99-1.07-3.92-1.8-5.8-.68-1.88-1.56-3.72-2.5-5.52-.94-1.78-2.01-3.53-3.19-5.26 1.71 1.24 3.1 2.87 4.3 4.58 1.2 1.73 2.2 3.64 2.95 5.61.73 1.99 1.31 4.04 1.52 6.16.3 2.08.21 4.22-.09 6.27zm6.06 4c-.86 1.22-1.31 2.74-1.63 4.32-.28 1.58-.41 3.25-.47 4.96-.62-1.6-.88-3.36-.81-5.11.06-1.73.49-3.57 1.54-5.14.32-.36.6-.75.94-1.07.36-.3.75-.6 1.13-.86.86-.39 1.73-.79 2.65-.86.9-.19 1.78.02 2.65.09.86.17 1.67.45 2.48.73-.88.09-1.71.04-2.53.09l-1.2.15c-.43.02-.79.13-1.16.26-1.52.36-2.78 1.18-3.62 2.44zM540 360.51c-1.11-.04-2.03-1.33-2.03-2.89s.92-2.82 2.03-2.89c1.16 0 2.1 1.31 2.1 2.89s-.94 2.89-2.1 2.89zm0-12.39c-1.73-.04-3.15-2.01-3.15-4.41s1.41-4.37 3.15-4.43c1.78 0 3.23 1.99 3.23 4.43s-1.46 4.41-3.23 4.41zm6.93-26.32a12.912 12.912 0 0 0-5.09 5.09l-1.84 3.36-1.84-3.36c-1.18-2.14-2.93-3.92-5.09-5.09l-3.36-1.84 3.36-1.84a12.66 12.66 0 0 0 5.09-5.09l1.84-3.36 1.84 3.36c1.18 2.16 2.95 3.92 5.09 5.09l3.36 1.84-3.36 1.84zm33.47 25.23c-.06-1.71-.21-3.38-.49-4.96-.32-1.58-.77-3.1-1.63-4.32-.81-1.26-2.1-2.08-3.62-2.44-.36-.13-.75-.24-1.16-.26l-1.2-.15c-.81-.04-1.65 0-2.53-.09.81-.28 1.63-.56 2.48-.73.88-.06 1.78-.28 2.65-.09.92.06 1.8.47 2.65.86.39.26.77.56 1.13.86.34.32.62.71.92 1.07 1.09 1.56 1.5 3.4 1.56 5.14.06 1.75-.17 3.51-.79 5.11zm6.93-25.12c-.71 1.88-1.33 3.81-1.8 5.8-.51 1.95-.79 3.98-1.18 6.03-.3-2.05-.39-4.19-.11-6.27.21-2.12.79-4.17 1.52-6.16.77-1.97 1.75-3.87 2.95-5.61 1.2-1.71 2.61-3.34 4.3-4.58-1.2 1.73-2.23 3.49-3.19 5.26-.94 1.8-1.82 3.64-2.5 5.52z"/></g><path fill="#14254c" d="M499.88 574.13v-40.34c0-20.53 12.19-26.46 18.76-26.46-10.26 0-18.76-9.46-18.76-22.13v-8.93h.02v-11.11c.6-6.06 9.44-8.18 14.25-9.46h-38.16c4.81 1.28 9.94 4.81 11.06 9.46v20.04c0 11.22 9.3 20.36 21.33 22.13-12.19 3.21-21.33 12.67-21.33 28.38v38.42c-1.12 4.65-6.25 8.18-11.06 9.62h38.16c-4.81-1.44-12.67-3.53-14.27-9.62zm80.27 0v-40.34c0-20.53-12.19-26.46-18.76-26.46 10.26 0 18.76-9.46 18.76-22.13v-8.93h-.02v-11.11c-.6-6.06-9.44-8.18-14.25-9.46h38.16c-4.81 1.28-9.94 4.81-11.06 9.46v20.04c0 11.22-9.3 20.36-21.33 22.13 12.19 3.21 21.33 12.67 21.33 28.38v38.42c1.12 4.65 6.25 8.18 11.06 9.62h-38.16c4.81-1.44 12.67-3.53 14.27-9.62zm-39.98-49.22l-6.09 9.34c-4.1 6.23-6.94 11.46-6.94 16.14 0 4.39 2.12 8.07 5.52 10.33 1.56 1.27 3.82 2.12 6.79 2.12 6.94 0 12.31-5.66 12.31-12.46s-11.61-25.48-11.61-25.48zm-4.39 34.39c-3.68 0-7.22-3.68-7.22-8.92 0-3.96 2.55-8.78 6.23-14.72 4.1 6.94 7.5 12.88 7.5 16.56s-2.55 7.08-6.51 7.08zm-15.01-103.61c7.88 2.01 17.39 9.57 19.26 19.14 1.86-9.57 11.38-17.14 19.26-19.14h-38.51zm21.12 39.65v23.96c.34-2.39 3.06-5.1 6.1-7.34 3.32-2.45 7.21-4.02 11.29-4.64s-.72-.13-.72-.13c-3.6-.66-7.03-2.06-10.02-4.17-3.27-2.31-6.3-5.23-6.67-7.68zm-10.41 7.68c-2.99 2.11-6.42 3.51-10.02 4.17l-.72.13c4.08.62 7.97 2.19 11.29 4.64 3.05 2.24 5.76 4.95 6.1 7.34v-23.96c-.36 2.44-3.4 5.36-6.67 7.68z"/><path fill="#daa351" d="M541.86 429.63l-1.84-3.36-1.84 3.36a12.785 12.785 0 0 1-5.09 5.09l-3.36 1.84 3.36 1.84c2.15 1.18 3.92 2.94 5.09 5.09l1.84 3.36 1.84-3.36c1.18-2.15 2.94-3.92 5.09-5.09l3.36-1.84-3.36-1.84a12.785 12.785 0 0 1-5.09-5.09zm0 166.32l-1.84-3.36-1.84 3.36a12.785 12.785 0 0 1-5.09 5.09l-3.36 1.84 3.36 1.84c2.15 1.18 3.92 2.94 5.09 5.09l1.84 3.36 1.84-3.36c1.18-2.15 2.94-3.92 5.09-5.09l3.36-1.84-3.36-1.84a12.785 12.785 0 0 1-5.09-5.09zm88.25-74.39l3.36-1.84-3.36-1.84a12.785 12.785 0 0 1-5.09-5.09l-1.84-3.36-1.84 3.36a12.785 12.785 0 0 1-5.09 5.09l-3.36 1.84 3.36 1.84c2.15 1.18 3.92 2.94 5.09 5.09l1.84 3.36 1.84-3.36c1.18-2.15 2.94-3.92 5.09-5.09zm-166.32 0l3.36-1.84-3.36-1.84a12.785 12.785 0 0 1-5.09-5.09l-1.84-3.36-1.84 3.36a12.785 12.785 0 0 1-5.09 5.09l-3.36 1.84 3.36 1.84c2.15 1.18 3.92 2.94 5.09 5.09l1.84 3.36 1.84-3.36c1.18-2.15 2.94-3.92 5.09-5.09z"/></svg>