<svg xmlns="http://www.w3.org/2000/svg" xmlns:v="https://vecta.io/nano" viewBox="0 0 96 96"><path fill="#14254c" d="M0 0h96v96H0z"/><path fill="#fff" d="M30.22 72.11V54.23c0-9.09 5.4-11.72 8.31-11.72-4.55 0-8.31-4.19-8.31-9.81v-3.96h.01v-4.92c.27-2.69 4.18-3.62 6.31-4.19H19.63c2.13.57 4.41 2.13 4.9 4.19v8.88c0 4.97 4.12 9.02 9.45 9.81-5.4 1.42-9.45 5.61-9.45 12.58v17.02c-.5 2.06-2.77 3.62-4.9 4.26h16.91c-2.13-.64-5.61-1.56-6.32-4.26zm35.56 0V54.23c0-9.09-5.4-11.72-8.31-11.72 4.55 0 8.31-4.19 8.31-9.81v-3.96h-.01v-4.92c-.27-2.69-4.18-3.62-6.31-4.19h16.9c-2.13.57-4.41 2.13-4.9 4.19v8.88c0 4.97-4.12 9.02-9.45 9.81 5.4 1.42 9.45 5.61 9.45 12.58v17.02c.5 2.06 2.77 3.62 4.9 4.26H59.45c2.13-.64 5.61-1.56 6.32-4.26zM48.07 50.3l-2.7 4.14c-1.82 2.76-3.07 5.08-3.07 7.15a5.41 5.41 0 0 0 2.45 4.58c.69.56 1.69.94 3.01.94 3.07 0 5.46-2.51 5.46-5.52S48.08 50.3 48.08 50.3zm-1.94 15.24c-1.63 0-3.2-1.63-3.2-3.95 0-1.76 1.13-3.89 2.76-6.52 1.82 3.07 3.32 5.71 3.32 7.34s-1.13 3.14-2.88 3.14zm-6.66-45.91c3.49.89 7.71 4.24 8.53 8.48.83-4.24 5.04-7.59 8.53-8.48H39.47zm9.36 17.57v10.62c.15-1.06 1.36-2.26 2.7-3.25 1.47-1.08 3.2-1.78 5-2.05s-.32-.06-.32-.06c-1.59-.29-3.12-.91-4.44-1.85-1.45-1.02-2.79-2.32-2.95-3.4zm-4.61 3.4c-1.32.94-2.84 1.55-4.44 1.85l-.32.06c1.81.27 3.53.97 5 2.05 1.35.99 2.55 2.19 2.7 3.25V37.19c-.16 1.08-1.51 2.38-2.95 3.4z"/><path fill="#daa351" d="M48.81 8.08L48 6.59l-.81 1.49a5.65 5.65 0 0 1-2.26 2.26l-1.49.81 1.49.81a5.65 5.65 0 0 1 2.26 2.26l.81 1.49.81-1.49a5.65 5.65 0 0 1 2.26-2.26l1.49-.81-1.49-.81a5.65 5.65 0 0 1-2.26-2.26zm0 73.7L48 80.29l-.81 1.49a5.65 5.65 0 0 1-2.26 2.26l-1.49.81 1.49.81a5.65 5.65 0 0 1 2.26 2.26l.81 1.49.81-1.49a5.65 5.65 0 0 1 2.26-2.26l1.49-.81-1.49-.81a5.65 5.65 0 0 1-2.26-2.26zm39.11-32.97l1.49-.81-1.49-.81a5.65 5.65 0 0 1-2.26-2.26l-.81-1.49-.81 1.49a5.65 5.65 0 0 1-2.26 2.26l-1.49.81 1.49.81a5.65 5.65 0 0 1 2.26 2.26l.81 1.49.81-1.49a5.65 5.65 0 0 1 2.26-2.26zm-73.7 0l1.49-.81-1.49-.81a5.65 5.65 0 0 1-2.26-2.26l-.81-1.49-.81 1.49a5.65 5.65 0 0 1-2.26 2.26L6.59 48l1.49.81a5.65 5.65 0 0 1 2.26 2.26l.81 1.49.81-1.49a5.65 5.65 0 0 1 2.26-2.26z"/></svg>